<?xml version="1.0" encoding="iso-8859-1"?>
<!-- Generator: Adobe Illustrator 19.1.0, SVG Export Plug-In . SVG Version: 6.00 Build 0)  -->
<svg xmlns="http://www.w3.org/2000/svg" xmlns:xlink="http://www.w3.org/1999/xlink" version="1.1" id="Capa_1" x="0px" y="0px" viewBox="0 0 64.292 64.292" style="enable-background:new 0 0 64.292 64.292;" xml:space="preserve" width="512px" height="512px">
<g>
	<g>
		<path d="M32.146,64.292c7.824,0,15.18-3.047,20.713-8.581c5.533-5.532,8.58-12.888,8.58-20.712s-3.047-15.18-8.58-20.712    c-4.094-4.094-9.188-6.823-14.729-7.968C38.136,6.214,38.146,6.107,38.146,6c0-3.309-2.691-6-6-6s-6,2.691-6,6    c0,0.107,0.01,0.213,0.016,0.32c-5.542,1.145-10.635,3.874-14.729,7.968C5.9,19.82,2.854,27.176,2.854,35s3.047,15.18,8.58,20.712    C16.965,61.245,24.32,64.292,32.146,64.292z M32.146,2c2.2,0,3.989,1.785,3.998,3.983c-1.314-0.178-2.648-0.275-3.998-0.275    s-2.684,0.097-3.998,0.275C28.156,3.785,29.945,2,32.146,2z M12.847,15.702c4.918-4.918,11.384-7.723,18.299-7.97V12h2V7.732    c6.915,0.248,13.38,3.052,18.299,7.97C56.362,20.62,59.167,27.086,59.414,34h-4.268v2h4.268    c-0.248,6.914-3.051,13.38-7.969,18.298c-4.919,4.918-11.384,7.723-18.299,7.97V58h-2v4.268    c-6.915-0.248-13.381-3.052-18.299-7.97S5.125,42.914,4.878,36h4.268v-2H4.878C5.125,27.086,7.929,20.62,12.847,15.702z" fill="#FFFFFF"/>
		<path d="M37.507,40.932l0.56-0.544l8-19l-1.31-1.31l-19,8l-0.544,0.56l-7,18l1.294,1.294L37.507,40.932z M36.8,38.241    l-8.896-8.896l15.367-6.471L36.8,38.241z M26.521,30.791l8.833,8.833L20.9,45.245L26.521,30.791z" fill="#FFFFFF"/>
	</g>
</g>
<g>
</g>
<g>
</g>
<g>
</g>
<g>
</g>
<g>
</g>
<g>
</g>
<g>
</g>
<g>
</g>
<g>
</g>
<g>
</g>
<g>
</g>
<g>
</g>
<g>
</g>
<g>
</g>
<g>
</g>
</svg>
