<?xml version="1.0" encoding="iso-8859-1"?>
<!-- Generator: Adobe Illustrator 19.0.0, SVG Export Plug-In . SVG Version: 6.00 Build 0)  -->
<svg xmlns="http://www.w3.org/2000/svg" xmlns:xlink="http://www.w3.org/1999/xlink" version="1.1" id="Layer_1" x="0px" y="0px" viewBox="0 0 512 512" style="enable-background:new 0 0 512 512;" xml:space="preserve" width="512px" height="512px">
<g>
	<g>
		<path d="M421.241,136.788L260.322,43.884c-2.675-1.545-5.972-1.545-8.648,0L90.745,136.78c-2.676,1.545-4.324,4.4-4.324,7.491    l0.016,189.604c0,3.088,1.648,5.942,4.322,7.487l160.903,92.972c1.339,0.774,2.833,1.16,4.327,1.16    c1.492,0,2.986-0.386,4.324-1.159l160.928-92.9c2.675-1.545,4.324-4.4,4.324-7.491V144.278    C425.566,141.187,423.917,138.333,421.241,136.788z M247.337,411.858l-143.604-82.975l-0.014-169.63l143.631,82.926    L247.337,411.858z M255.998,227.199l-143.632-82.927l143.632-82.911l143.62,82.917L255.998,227.199z M264.634,411.866    l0.012-169.688l143.619-82.92v169.692h0.001L264.634,411.866z" fill="#FFFFFF"/>
	</g>
</g>
<g>
	<g>
		<path d="M499.904,96.577c-2.389-4.136-7.679-5.554-11.814-3.165l-31.028,17.914C415.012,44.505,340.611,0,255.998,0    S96.984,44.504,54.934,111.324L23.912,93.411c-4.136-2.387-9.426-0.972-11.815,3.165s-0.971,9.426,3.165,11.815l30.999,17.899    C28.618,159.463,18.601,197.28,18.601,237.4c0,128.001,101.834,232.647,228.737,237.223v28.729c0,4.776,3.872,8.649,8.649,8.649    c4.777,0,8.649-3.872,8.649-8.649v-28.73c126.915-4.564,228.76-109.215,228.76-237.224c0-40.119-10.017-77.936-27.661-111.107    l31.004-17.9C500.875,106.002,502.292,100.713,499.904,96.577z M476.098,237.398c0,121.364-98.738,220.1-220.1,220.1    c-121.364,0-220.101-98.736-220.101-220.1S134.634,17.297,255.998,17.297S476.098,116.035,476.098,237.398z" fill="#FFFFFF"/>
	</g>
</g>
<g>
</g>
<g>
</g>
<g>
</g>
<g>
</g>
<g>
</g>
<g>
</g>
<g>
</g>
<g>
</g>
<g>
</g>
<g>
</g>
<g>
</g>
<g>
</g>
<g>
</g>
<g>
</g>
<g>
</g>
</svg>
