<?xml version="1.0" encoding="iso-8859-1"?>
<!-- Generator: Adobe Illustrator 19.0.0, SVG Export Plug-In . SVG Version: 6.00 Build 0)  -->
<svg version="1.1" id="Capa_1" xmlns="http://www.w3.org/2000/svg" xmlns:xlink="http://www.w3.org/1999/xlink" x="0px" y="0px"
	 viewBox="0 0 512 512" style="enable-background:new 0 0 512 512;" xml:space="preserve">
<g>
	<g>
		<g>
			<path d="M279.375,333.504l-31.614,33.918l-12.733-13.946c-4.717-5.165-11.435-8.127-18.432-8.127
				c-21.601,0-33.017,25.794-18.422,41.779l30.973,33.921c9.807,10.738,26.752,10.845,36.68,0.187l50.055-53.705
				c4.545-4.876,6.92-11.23,6.685-17.891C321.791,327.547,294.531,317.244,279.375,333.504z M304.923,357.316l-50.057,53.707
				c-1.878,2.015-4.536,3.172-7.294,3.172v7.49l-0.049-7.49c-2.775-0.014-5.442-1.198-7.315-3.248l-30.973-33.92
				c-5.849-6.409-1.238-16.698,7.359-16.698c2.839,0,5.457,1.154,7.369,3.248c19.768,21.651,19.455,22.36,23.701,22.382
				c4.366,0.038,2.069,1.315,42.667-42.24c3.816-4.096,10.123-4.201,14.095-0.496c1.949,1.816,3.074,4.282,3.168,6.944
				C307.689,352.828,306.74,355.368,304.923,357.316z"/>
			<path d="M488.356,176.86c-13.814-18.02-32.97-31.696-54.368-38.916c-1.674-16.659-9.078-32.086-21.178-43.91
				c-18.161-17.746-43.25-23.821-66.168-18.503c-17.622-22.873-43.579-38.504-71.999-43.184c-4.092-0.671-7.935,2.093-8.608,6.174
				c-0.672,4.082,2.092,7.936,6.174,8.608c26.201,4.314,50,19.354,65.296,41.264c1.871,2.682,5.266,3.839,8.385,2.858
				c5.473-1.719,11.178-2.591,16.959-2.591c30.906,0,55.726,24.199,56.503,55.09c0.083,3.276,2.285,6.117,5.436,7.015
				c42.468,12.097,72.128,51.403,72.128,95.585c0,54.813-44.594,99.406-99.408,99.406h-24.735v-46.775
				c0-13.231-10.763-23.995-23.994-23.995h-11.274v-14.541c0-44.97-36.586-81.556-81.557-81.556
				c-17.851,0-34.804,5.663-49.026,16.375c-13.751,10.358-24.061,25.089-29.032,41.483c-1.2,3.959,1.036,8.14,4.995,9.342
				c3.955,1.201,8.14-1.036,9.342-4.995c8.565-28.246,34.173-47.225,63.722-47.225c36.71,0,66.576,29.866,66.576,66.576v14.541
				c-7.093,0-145.503,0-159.407,0c-13.23,0-23.994,10.764-23.994,23.995v46.776h-24.734c-54.815-0.002-99.409-44.595-99.409-99.408
				c0-44.182,29.661-83.489,72.131-95.587c3.151-0.897,5.353-3.739,5.436-7.015c0.968-38.371,38.066-63.603,73.465-52.5
				c3.12,0.979,6.513-0.18,8.384-2.859c15.292-21.907,39.089-36.947,65.289-41.261c4.082-0.672,6.846-4.526,6.174-8.608
				c-0.673-4.082-4.53-6.845-8.608-6.174c-28.42,4.681-54.375,20.311-71.993,43.182c-42.423-9.836-83.09,20.058-87.346,62.413
				C33.085,153.067,0,195.399,0,246.35c0,63.073,51.314,114.386,114.389,114.386h24.734v95.022
				c0,13.231,10.764,23.995,23.994,23.995h185.661c13.231,0,23.994-10.764,23.994-23.995v-31.338c0-4.137-3.353-7.49-7.49-7.49
				s-7.49,3.354-7.49,7.49v31.338c0,4.971-4.044,9.014-9.013,9.014H163.117c-4.971,0-9.013-4.044-9.013-9.014
				c0-6.864,0-150.124,0-156.779c0-4.971,4.044-9.014,9.013-9.014c6.915,0,179.207,0,185.661,0c4.971,0,9.013,4.044,9.013,9.014
				c0,6.775,0,78.717,0,90.486c0,4.137,3.353,7.49,7.49,7.49s7.49-3.354,7.49-7.49v-28.73h24.735
				C492.144,360.737,545.751,251.73,488.356,176.86z"/>
		</g>
	</g>
</g>
<g>
</g>
<g>
</g>
<g>
</g>
<g>
</g>
<g>
</g>
<g>
</g>
<g>
</g>
<g>
</g>
<g>
</g>
<g>
</g>
<g>
</g>
<g>
</g>
<g>
</g>
<g>
</g>
<g>
</g>
</svg>
