<?xml version="1.0" encoding="iso-8859-1"?>
<!-- Generator: Adobe Illustrator 19.0.0, SVG Export Plug-In . SVG Version: 6.00 Build 0)  -->
<svg version="1.1" id="Capa_1" xmlns="http://www.w3.org/2000/svg" xmlns:xlink="http://www.w3.org/1999/xlink" x="0px" y="0px"
	 viewBox="0 0 512.006 512.006" style="enable-background:new 0 0 512.006 512.006;" xml:space="preserve">
<g>
	<g>
		<g>
			<path d="M509.399,25.013c-2.021-2.333-4.979-3.677-8.063-3.677h-83.875c-11.229-3.083-81.146-21.333-161.458-21.333
				S105.774,18.253,94.545,21.336H10.67c-3.083,0-6.042,1.344-8.063,3.677c-2.021,2.333-2.938,5.438-2.5,8.5L21.44,182.847
				c0.333,2.281,1.396,4.396,3.021,6.031l18.458,18.448l10.438,187.917c0.146,2.792,1.396,5.417,3.479,7.302L174.17,509.232
				c1.958,1.781,4.521,2.771,7.167,2.771h149.292c2.646,0,5.208-0.99,7.167-2.771L455.17,402.545
				c2.083-1.885,3.333-4.51,3.479-7.302l10.438-187.917l18.458-18.448c1.625-1.635,2.688-3.75,3.021-6.031l21.333-149.333
				C512.336,30.451,511.42,27.347,509.399,25.013z M256.003,21.336c65.516,0,125.156,12.962,147.564,18.474l-7.793,38.995
				l-139.771,89.854L116.232,78.805l-7.793-38.995C130.847,34.299,190.487,21.336,256.003,21.336z M277.521,265.627l-0.185,1.043
				v117.333h-53.354l-0.125-119.115l-17.346-102.69l43.721,28.107c1.75,1.135,3.771,1.698,5.771,1.698c2,0,4.021-0.563,5.771-1.698
				l32.81-21.091l-16.888,95.422c-0.04,0.198-0.227,0.322-0.255,0.523C277.417,265.323,277.537,265.463,277.521,265.627z
				 M42.065,176.305L22.961,42.67h64.298l8.952,44.76c0.563,2.833,2.25,5.313,4.688,6.875l81.339,52.289l18.141,106.609
				l-91.625-18.326c-0.033-0.007-0.064,0.009-0.096,0.003l-48.173-40.147L42.065,176.305z M128.003,438.418L74.42,389.69
				l-9.074-163.12l30.658,25.549v35.883c0,3.563,1.792,6.896,4.75,8.875l27.25,18.167V438.418z M117.336,282.295v-23.948
				l65.979,13.198l-44.208,25.26L117.336,282.295z M196.14,490.67l14.217-42.667h81.708l21.314,42.667H196.14z M362.67,457.793
				l-28.796,26.176l-25.663-51.393c-1.813-3.625-5.5-5.906-9.542-5.906h-96c-4.583,0-8.667,2.938-10.125,7.292l-16.154,48.46
				l-27.055-24.603V315.524l53.333-30.475V394.67c0,5.896,4.771,10.667,10.667,10.667h74.667c5.896,0,10.667-4.771,10.667-10.667
				l-0.146-110.813l64.146,32.073V457.793z M321.399,271.44l73.271-13.323v24.177l-22.104,14.729L321.399,271.44z M437.586,389.69
				l-53.583,48.71V315.045l27.25-18.167c2.958-1.979,4.75-5.313,4.75-8.875V252.12l30.658-25.549L437.586,389.69z M469.94,176.305
				l-18.418,18.428l-48.141,40.12l-102.184,18.579l17.823-99.93l92.086-59.198c2.438-1.563,4.125-4.042,4.688-6.875l8.952-44.76
				h64.298L469.94,176.305z"/>
			<path d="M174.399,61.43l74.667,64c2,1.719,4.458,2.573,6.938,2.573c2.479,0,4.938-0.854,6.938-2.573l74.667-64
				c3.396-2.896,4.625-7.604,3.063-11.792c-1.542-4.188-5.542-6.969-10-6.969H181.336c-4.458,0-8.458,2.781-10,6.969
				C169.774,53.826,171.003,58.534,174.399,61.43z M301.836,64.003l-45.833,39.281L210.17,64.003H301.836z"/>
			<path d="M160.003,192.003c3.125,0,6.229-1.375,8.333-4c3.667-4.604,2.938-11.313-1.667-15L60.003,87.67
				c-4.604-3.646-11.313-2.938-15,1.667c-3.667,4.604-2.938,11.313,1.667,15l106.667,85.333
				C155.315,191.242,157.649,192.003,160.003,192.003z"/>
			<path d="M160.003,234.67c3.229,0,6.438-1.469,8.542-4.271c3.521-4.708,2.563-11.396-2.146-14.927l-85.333-64
				c-4.667-3.5-11.375-2.594-14.938,2.135c-3.521,4.708-2.563,11.396,2.146,14.927l85.333,64
				C155.524,233.972,157.774,234.67,160.003,234.67z"/>
			<path d="M343.67,188.003c2.104,2.625,5.208,4,8.333,4c2.333,0,4.688-0.76,6.667-2.333l106.667-85.333
				c4.604-3.688,5.333-10.396,1.667-15c-3.646-4.583-10.354-5.323-15-1.667l-106.667,85.333
				C340.732,176.69,340.003,183.399,343.67,188.003z"/>
			<path d="M430.94,151.472l-85.333,64c-4.708,3.531-5.667,10.219-2.146,14.927c2.104,2.802,5.313,4.271,8.542,4.271
				c2.229,0,4.479-0.698,6.396-2.135l85.333-64c4.708-3.531,5.667-10.219,2.146-14.927
				C442.315,148.857,435.649,147.961,430.94,151.472z"/>
		</g>
	</g>
</g>
<g>
</g>
<g>
</g>
<g>
</g>
<g>
</g>
<g>
</g>
<g>
</g>
<g>
</g>
<g>
</g>
<g>
</g>
<g>
</g>
<g>
</g>
<g>
</g>
<g>
</g>
<g>
</g>
<g>
</g>
</svg>
