<?xml version="1.0" encoding="iso-8859-1"?>
<!-- Generator: Adobe Illustrator 19.0.0, SVG Export Plug-In . SVG Version: 6.00 Build 0)  -->
<svg version="1.1" id="Capa_1" xmlns="http://www.w3.org/2000/svg" xmlns:xlink="http://www.w3.org/1999/xlink" x="0px" y="0px"
	 viewBox="0 0 511.998 511.998" style="enable-background:new 0 0 511.998 511.998;" xml:space="preserve">
<g>
	<g>
		<path d="M511.924,282.654c-0.016-0.113-0.043-0.222-0.063-0.333c-0.041-0.224-0.087-0.446-0.148-0.664
			c-0.035-0.126-0.078-0.248-0.12-0.372c-0.067-0.198-0.14-0.393-0.223-0.585c-0.053-0.122-0.108-0.242-0.168-0.361
			c-0.094-0.188-0.197-0.37-0.306-0.549c-0.066-0.109-0.13-0.218-0.201-0.323c-0.128-0.189-0.269-0.368-0.415-0.545
			c-0.068-0.083-0.131-0.17-0.203-0.251c-0.218-0.244-0.451-0.476-0.702-0.691c-0.007-0.006-0.013-0.013-0.02-0.019
			c-0.239-0.204-0.492-0.393-0.759-0.568c-0.022-0.015-0.047-0.025-0.069-0.039c-0.083-0.053-0.172-0.096-0.256-0.146
			c-0.216-0.126-0.435-0.246-0.66-0.349c-0.038-0.017-0.072-0.041-0.11-0.058l-119.744-52.473V76.617
			c0-0.347-0.029-0.69-0.076-1.029c-0.016-0.113-0.043-0.222-0.063-0.333c-0.041-0.224-0.087-0.446-0.148-0.664
			c-0.035-0.126-0.078-0.248-0.12-0.372c-0.067-0.199-0.14-0.394-0.223-0.586c-0.053-0.122-0.108-0.242-0.167-0.36
			c-0.094-0.188-0.197-0.37-0.306-0.55c-0.066-0.109-0.13-0.218-0.201-0.323c-0.128-0.189-0.269-0.368-0.415-0.545
			c-0.068-0.083-0.131-0.17-0.203-0.251c-0.22-0.246-0.455-0.48-0.708-0.696c-0.005-0.004-0.009-0.009-0.014-0.013
			c-0.239-0.204-0.493-0.394-0.759-0.568c-0.022-0.015-0.047-0.025-0.069-0.039c-0.083-0.053-0.172-0.096-0.257-0.146
			c-0.216-0.126-0.434-0.245-0.659-0.349c-0.038-0.018-0.072-0.042-0.11-0.058L259.016,15.291c-1.922-0.843-4.11-0.843-6.031,0
			L128.742,69.734c-0.038,0.017-0.072,0.04-0.109,0.058c-0.226,0.104-0.445,0.223-0.662,0.35c-0.084,0.049-0.173,0.092-0.255,0.145
			c-0.023,0.014-0.047,0.025-0.069,0.039c-0.267,0.174-0.52,0.365-0.759,0.568c-0.005,0.004-0.009,0.009-0.014,0.013
			c-0.253,0.217-0.488,0.451-0.708,0.696c-0.072,0.08-0.135,0.167-0.203,0.251c-0.145,0.177-0.286,0.356-0.415,0.545
			c-0.071,0.105-0.135,0.214-0.201,0.323c-0.109,0.18-0.212,0.362-0.306,0.55c-0.059,0.119-0.114,0.239-0.167,0.36
			c-0.083,0.192-0.156,0.387-0.223,0.586c-0.042,0.123-0.084,0.246-0.12,0.372c-0.061,0.218-0.107,0.44-0.148,0.664
			c-0.021,0.112-0.048,0.221-0.063,0.333c-0.047,0.339-0.076,0.682-0.076,1.029v47.123c0,4.151,3.364,7.515,7.515,7.515
			s7.515-3.364,7.515-7.515V88.114l109.213,47.859v135.365l-109.213-47.045V176.51c0-4.151-3.364-7.515-7.515-7.515
			s-7.515,3.364-7.515,7.515v47.818L4.499,276.8c-0.038,0.017-0.072,0.041-0.11,0.058c-0.226,0.103-0.444,0.223-0.661,0.349
			c-0.085,0.05-0.174,0.093-0.256,0.145c-0.022,0.014-0.047,0.025-0.069,0.039c-0.267,0.174-0.52,0.364-0.759,0.568
			c-0.007,0.006-0.013,0.013-0.02,0.019c-0.251,0.215-0.484,0.447-0.702,0.691c-0.072,0.08-0.135,0.167-0.203,0.251
			c-0.145,0.177-0.286,0.356-0.415,0.545c-0.071,0.105-0.135,0.214-0.201,0.323c-0.109,0.179-0.212,0.361-0.306,0.549
			c-0.059,0.119-0.115,0.239-0.168,0.361c-0.083,0.192-0.156,0.387-0.223,0.585c-0.042,0.124-0.084,0.246-0.12,0.372
			c-0.061,0.218-0.107,0.44-0.148,0.664c-0.021,0.112-0.048,0.221-0.063,0.333C0.029,282.992,0,283.335,0,283.682v152.622
			c0,3.001,1.786,5.714,4.542,6.901l124.243,53.518c0.259,0.112,0.522,0.205,0.788,0.286c0.059,0.018,0.119,0.03,0.179,0.046
			c0.26,0.072,0.521,0.129,0.784,0.173c0.086,0.014,0.172,0.028,0.259,0.04c0.32,0.041,0.64,0.07,0.961,0.07h0.001h0.001
			c0.321,0,0.642-0.028,0.961-0.07c0.087-0.011,0.173-0.025,0.259-0.04c0.264-0.043,0.525-0.101,0.784-0.173
			c0.059-0.016,0.12-0.028,0.179-0.046c0.266-0.081,0.529-0.174,0.788-0.286L256,444.486l30.271,13.039
			c3.812,1.645,8.233-0.116,9.874-3.929c1.642-3.811-0.116-8.232-3.929-9.874l-28.701-12.364v-136.18l109.213,47.858v135.367
			l-31.935-13.756c-3.809-1.642-8.232,0.116-9.874,3.929c-1.642,3.811,0.116,8.232,3.928,9.874l42.422,18.274
			c0.259,0.112,0.522,0.205,0.788,0.286c0.059,0.018,0.119,0.03,0.179,0.046c0.26,0.072,0.521,0.129,0.784,0.173
			c0.086,0.014,0.172,0.028,0.259,0.04c0.32,0.041,0.64,0.07,0.961,0.07h0.001h0.001c0.321,0,0.641-0.028,0.961-0.07
			c0.087-0.011,0.173-0.025,0.259-0.04c0.264-0.043,0.525-0.101,0.784-0.173c0.059-0.016,0.12-0.028,0.179-0.046
			c0.266-0.081,0.529-0.174,0.788-0.286l124.243-53.518c2.756-1.187,4.542-3.9,4.542-6.901V283.682
			C512,283.335,511.971,282.992,511.924,282.654z M124.242,478.404L15.029,431.359v-136.18l109.213,47.858V478.404z M131.757,329.92
			l-105.52-46.238l105.52-46.239l105.52,46.239L131.757,329.92z M248.485,431.359l-109.213,47.045V343.037l109.213-47.858V431.359z
			 M256,122.856L150.48,76.617L256,30.378l105.52,46.238L256,122.856z M263.515,135.972l109.213-47.859v136.18l-109.213,47.045
			V135.972z M380.243,329.921l-105.52-46.238l105.52-46.239l105.52,46.239L380.243,329.921z M496.971,431.359l-109.213,47.045
			V343.037l109.213-47.858V431.359z"/>
	</g>
</g>
<g>
</g>
<g>
</g>
<g>
</g>
<g>
</g>
<g>
</g>
<g>
</g>
<g>
</g>
<g>
</g>
<g>
</g>
<g>
</g>
<g>
</g>
<g>
</g>
<g>
</g>
<g>
</g>
<g>
</g>
</svg>
