<svg id="Capa_1" enable-background="new 0 0 512 512" height="512" viewBox="0 0 512 512" width="512" xmlns="http://www.w3.org/2000/svg"><g><path d="m264.551 36.958c-1.41-3.431-4.717-5.647-8.427-5.647-.003 0-.007 0-.01 0-3.714.004-7.021 2.228-8.425 5.665-.022.055-.044.111-.065.167l-26.702 70.108c-1.475 3.871.469 8.204 4.339 9.678.879.335 1.781.493 2.669.493 3.021 0 5.87-1.84 7.01-4.833l4.811-12.63h32.548l4.759 12.609c1.462 3.876 5.791 5.832 9.665 4.369 3.875-1.462 5.831-5.79 4.368-9.665l-26.459-70.111c-.027-.068-.053-.136-.081-.203zm-19.088 48.002 10.636-27.925 10.539 27.925z"/><path d="m234.301 212.947c-4.143 0-7.5 3.358-7.5 7.5v71.11c0 1.995.795 3.907 2.208 5.315 1.406 1.4 3.309 2.185 5.292 2.185h.033c.002 0 18.995-.084 24.229-.084 14.689 0 26.641-11.951 26.641-26.641 0-8.827-4.318-16.66-10.95-21.511 2.867-3.938 4.564-8.779 4.564-14.011 0-13.158-10.704-23.863-23.862-23.863zm24.262 71.025c-3.063 0-10.829.029-16.763.053v-23.312c1.834-.007 3.808-.015 5.69-.022h11.073c6.419 0 11.641 5.222 11.641 11.641s-5.222 11.64-11.641 11.64zm5.255-47.163c0 4.887-3.976 8.862-8.862 8.862-1.519 0-4.377.008-7.496.019h-5.66v-17.744h13.155c4.888.001 8.863 3.976 8.863 8.863z"/><path d="m262.58 409.582c5.623 0 11.045 1.655 15.681 4.787 3.432 2.319 8.094 1.417 10.413-2.016 2.318-3.432 1.416-8.094-2.017-10.413-7.125-4.813-15.45-7.357-24.077-7.357-23.74 0-43.055 19.314-43.055 43.055s19.314 43.055 43.055 43.055c9.448 0 17.921-3.098 24.502-8.959 1.287-1.147 2.513-2.411 3.643-3.758 2.663-3.173 2.249-7.904-.925-10.566-3.174-2.663-7.902-2.248-10.565.925-.665.792-1.381 1.532-2.129 2.198-3.845 3.424-8.731 5.16-14.525 5.16-15.47 0-28.055-12.585-28.055-28.055s12.584-28.056 28.054-28.056z"/><path d="m483.203 95.659c-18.57-18.57-43.261-28.796-69.522-28.796h-57.24v-27.253c0-21.841-17.77-39.61-39.61-39.61h-17.76c-4.143 0-7.5 3.358-7.5 7.5s3.357 7.5 7.5 7.5h17.76c13.57 0 24.61 11.04 24.61 24.61v69.51c0 13.57-11.04 24.61-24.61 24.61h-60.79c-.013 0-.025-.002-.039-.002s-.026.002-.039.002h-60.783c-13.569 0-24.609-11.04-24.609-24.61v-69.51c0-13.57 11.04-24.61 24.609-24.61h73.891c4.143 0 7.5-3.358 7.5-7.5s-3.357-7.5-7.5-7.5h-73.891c-21.841 0-39.609 17.769-39.609 39.61v69.51c0 21.841 17.769 39.61 39.609 39.61h53.322v32.909h-53.324c-21.841 0-39.609 17.769-39.609 39.609v27.253h-57.25c-26.263 0-50.953 10.227-69.523 28.797-18.569 18.57-28.796 43.26-28.796 69.523 0 54.213 44.105 98.319 98.319 98.319h24.856l-12.875 12.875c-2.929 2.929-2.929 7.677 0 10.606 1.465 1.465 3.384 2.197 5.304 2.197 1.919 0 3.839-.732 5.304-2.197l25.679-25.678c1.406-1.406 2.196-3.314 2.196-5.303s-.79-3.897-2.196-5.303l-25.679-25.678c-2.93-2.929-7.678-2.929-10.607 0s-2.929 7.678 0 10.606l12.876 12.875h-24.858c-45.942 0-83.319-37.377-83.319-83.319 0-22.256 8.666-43.179 24.403-58.916 15.736-15.737 36.66-24.403 58.916-24.403h57.249v27.253c0 21.84 17.769 39.609 39.609 39.609h53.324v32.917h-53.321c-14.953 0-28.474 8.275-35.287 21.595-1.886 3.688-.425 8.207 3.263 10.093s8.206.426 10.093-3.262c4.235-8.281 12.639-13.425 21.932-13.425h121.65c13.57 0 24.61 11.035 24.61 24.6v69.51c0 13.57-11.04 24.61-24.61 24.61h-121.651c-13.569 0-24.609-11.04-24.609-24.61v-54.51c0-4.142-3.357-7.5-7.5-7.5s-7.5 3.358-7.5 7.5v54.51c0 21.841 17.769 39.61 39.609 39.61h121.65c21.841 0 39.61-17.769 39.61-39.61v-69.51c0-21.835-17.77-39.6-39.61-39.6h-53.328v-32.917h53.325c21.84 0 39.608-17.769 39.608-39.609v-69.506c0-21.84-17.769-39.609-39.608-39.609h-53.325v-32.911h53.328c21.841 0 39.61-17.769 39.61-39.61v-27.257h57.24c22.256 0 43.18 8.667 58.916 24.403 15.738 15.737 24.404 36.661 24.404 58.916 0 45.942-37.377 83.319-83.319 83.319h-24.856l12.876-12.875c2.929-2.929 2.929-7.677 0-10.606-2.929-2.928-7.677-2.929-10.607 0l-25.679 25.678c-1.406 1.406-2.196 3.314-2.196 5.303s.79 3.897 2.196 5.303l25.679 25.678c1.465 1.465 3.385 2.197 5.304 2.197s3.839-.732 5.304-2.197c2.929-2.929 2.929-7.678 0-10.606l-12.876-12.875h24.856c54.214 0 98.319-44.106 98.319-98.319-.001-26.262-10.228-50.952-28.798-69.523zm-141.767 125.589v69.506c0 13.569-11.039 24.609-24.608 24.609h-121.65c-13.569 0-24.609-11.04-24.609-24.609v-69.506c0-13.569 11.04-24.609 24.609-24.609h121.649c13.569 0 24.609 11.04 24.609 24.609z"/></g></svg>