<?xml version="1.0" encoding="iso-8859-1"?>
<!-- Generator: Adobe Illustrator 19.0.0, SVG Export Plug-In . SVG Version: 6.00 Build 0)  -->
<svg version="1.1" id="Capa_1" xmlns="http://www.w3.org/2000/svg" xmlns:xlink="http://www.w3.org/1999/xlink" x="0px" y="0px"
	 viewBox="0 0 480 480" style="enable-background:new 0 0 480 480;" xml:space="preserve">
<g>
	<g>
		<path d="M440,0H40C17.944,0,0,17.944,0,40v248v32c0,22.056,17.944,40,40,40h134.416l-13.088,72h-31.432
			c-9.152,0-17.376,5.08-21.472,13.264c-3.744,7.496-3.352,16.224,1.048,23.352c4.4,7.128,12.04,11.384,20.416,11.384h220.216
			c8.376,0,16.008-4.256,20.416-11.384s4.8-15.856,1.048-23.352C367.488,437.08,359.264,432,350.112,432H318.68l-13.088-72H440
			c22.056,0,40-17.944,40-40v-32V40C480,17.944,462.056,0,440,0z M312,448h38.112c3.048,0,5.792,1.696,7.16,4.424
			c1.8,3.6,0.352,6.64-0.344,7.784c-0.72,1.136-2.792,3.792-6.816,3.792H129.888c-4.024,0-6.104-2.656-6.808-3.8
			c-0.704-1.144-2.152-4.176-0.344-7.784c1.36-2.72,4.104-4.416,7.152-4.416H168h64c4.416,0,8-3.584,8-8c0-4.416-3.584-8-8-8
			h-54.416l13.088-72h98.648l13.096,72H280c-4.416,0-8,3.584-8,8c0,4.416,3.584,8,8,8H312z M464,320c0,13.232-10.768,24-24,24H296
			H184H40c-13.232,0-24-10.768-24-24v-24h448V320z M464,280H16V40c0-13.232,10.768-24,24-24h400c13.232,0,24,10.768,24,24V280z"/>
	</g>
</g>
<g>
	<g>
		<path d="M216,160h-80V80c0-4.416-3.584-8-8-8c-52.936,0-96,43.064-96,96c0,52.936,43.064,96,96,96c52.936,0,96-43.064,96-96
			C224,163.584,220.416,160,216,160z M128,248c-44.112,0-80-35.888-80-80c0-41.408,31.632-75.576,72-79.6V168c0,4.416,3.584,8,8,8
			h79.6C203.576,216.368,169.408,248,128,248z"/>
	</g>
</g>
<g>
	<g>
		<path d="M160,40c-4.416,0-8,3.584-8,8v88c0,4.416,3.584,8,8,8h88c4.416,0,8-3.584,8-8C256,83.064,212.936,40,160,40z M168,128
			V56.4c37.736,3.76,67.84,33.864,71.6,71.6H168z"/>
	</g>
</g>
<g>
	<g>
		<path d="M440,32H280c-4.416,0-8,3.584-8,8v216c0,4.416,3.584,8,8,8h160c4.416,0,8-3.584,8-8V40C448,35.584,444.416,32,440,32z
			 M432,248H288V48h144V248z"/>
	</g>
</g>
<g>
	<g>
		<path d="M360,72h-48c-4.416,0-8,3.584-8,8s3.584,8,8,8h48c4.416,0,8-3.584,8-8S364.416,72,360,72z"/>
	</g>
</g>
<g>
	<g>
		<path d="M408,104h-96c-4.416,0-8,3.584-8,8s3.584,8,8,8h96c4.416,0,8-3.584,8-8S412.416,104,408,104z"/>
	</g>
</g>
<g>
	<g>
		<path d="M360,136h-48c-4.416,0-8,3.584-8,8s3.584,8,8,8h48c4.416,0,8-3.584,8-8S364.416,136,360,136z"/>
	</g>
</g>
<g>
	<g>
		<path d="M408,168h-96c-4.416,0-8,3.584-8,8s3.584,8,8,8h96c4.416,0,8-3.584,8-8S412.416,168,408,168z"/>
	</g>
</g>
<g>
	<g>
		<path d="M360,200h-48c-4.416,0-8,3.584-8,8s3.584,8,8,8h48c4.416,0,8-3.584,8-8S364.416,200,360,200z"/>
	</g>
</g>
<g>
	<g>
		<path d="M256,312h-32c-4.416,0-8,3.584-8,8c0,4.416,3.584,8,8,8h32c4.416,0,8-3.584,8-8C264,315.584,260.416,312,256,312z"/>
	</g>
</g>
<g>
</g>
<g>
</g>
<g>
</g>
<g>
</g>
<g>
</g>
<g>
</g>
<g>
</g>
<g>
</g>
<g>
</g>
<g>
</g>
<g>
</g>
<g>
</g>
<g>
</g>
<g>
</g>
<g>
</g>
</svg>
