<?xml version="1.0" encoding="iso-8859-1"?>
<!-- Generator: Adobe Illustrator 19.0.0, SVG Export Plug-In . SVG Version: 6.00 Build 0)  -->
<svg version="1.1" id="Capa_1" xmlns="http://www.w3.org/2000/svg" xmlns:xlink="http://www.w3.org/1999/xlink" x="0px" y="0px"
	 viewBox="0 0 512 512" style="enable-background:new 0 0 512 512;" xml:space="preserve">
<g>
	<g>
		<path d="M469.333,0H42.667C19.103,0,0,19.103,0,42.667v320c0,23.564,19.103,42.667,42.667,42.667h266.667V384H42.667
			c-11.782,0-21.333-9.551-21.333-21.333v-320c0-11.782,9.551-21.333,21.333-21.333h426.667c11.782,0,21.333,9.551,21.333,21.333
			V224H512V42.667C512,19.103,492.898,0,469.333,0z"/>
	</g>
</g>
<g>
	<g>
		<path d="M106.667,490.667C100.776,490.667,96,485.891,96,480c0-5.891,4.776-10.667,10.667-10.667h202.667V448H106.667
			c-17.673,0-32,14.327-32,32s14.327,32,32,32H320v-21.333H106.667z"/>
	</g>
</g>
<g>
	<g>
		<path d="M309.333,384H192c-5.891,0-10.667,4.776-10.667,10.667v64c0,5.891,4.776,10.667,10.667,10.667h117.333
			c5.891,0,10.667-4.776,10.667-10.667v-64C320,388.776,315.224,384,309.333,384z M298.667,448h-96v-42.667h96V448z"/>
	</g>
</g>
<g>
	<g>
		<rect y="320" width="277.333" height="21.333"/>
	</g>
</g>
<g>
	<g>
		<rect x="181.333" y="352" width="64" height="21.333"/>
	</g>
</g>
<g>
	<g>
		<rect x="266.667" y="352" width="53.333" height="21.333"/>
	</g>
</g>
<g>
	<g>
		<path d="M384,85.333c-70.692,0-128,57.308-128,128s57.308,128,128,128c70.661-0.076,127.924-57.339,128-128
			C512,142.641,454.693,85.333,384,85.333z M384,320c-58.91,0-106.667-47.756-106.667-106.667
			c0-58.91,47.756-106.667,106.667-106.667c58.884,0.065,106.602,47.783,106.667,106.667C490.667,272.244,442.91,320,384,320z"/>
	</g>
</g>
<g>
	<g>
		<path d="M384,117.333v21.333c41.218,0.047,74.62,33.449,74.667,74.667H480C479.941,160.338,436.995,117.392,384,117.333z"/>
	</g>
</g>
<g>
	<g>
		<path d="M309.333,213.333H288c0.059,52.995,43.005,95.941,96,96V288C342.782,287.953,309.38,254.551,309.333,213.333z"/>
	</g>
</g>
<g>
	<g>
		<path d="M320,213.333h21.333c0-23.564,19.102-42.667,42.667-42.667v-21.333C348.668,149.369,320.035,178.002,320,213.333z"/>
	</g>
</g>
<g>
	<g>
		<path d="M426.667,213.333C426.667,236.897,407.564,256,384,256v21.333c35.332-0.035,63.965-28.668,64-64H426.667z"/>
	</g>
</g>
<g>
	<g>
		<path d="M425.6,400.565l-9.6-19.083v-50.816c0-5.891-4.776-10.667-10.667-10.667h-42.667c-5.891,0-10.667,4.776-10.667,10.667
			v50.816l-9.6,19.083c-0.72,1.485-1.085,3.118-1.067,4.768v96c0,5.891,4.776,10.667,10.667,10.667h64
			c5.891,0,10.667-4.776,10.667-10.667v-96C426.685,403.683,426.32,402.051,425.6,400.565z M405.333,490.667h-42.667v-82.816
			l9.6-19.083c0.72-1.485,1.085-3.118,1.067-4.768v-42.667h21.333V384c-0.018,1.65,0.347,3.283,1.067,4.768l9.6,19.083V490.667z"/>
	</g>
</g>
<g>
	<g>
		<path d="M309.333,74.667V53.333H64c-5.891,0-10.667,4.776-10.667,10.667v53.333C53.333,123.224,58.109,128,64,128h192v-21.333
			H74.667v-32H309.333z"/>
	</g>
</g>
<g>
	<g>
		<rect x="53.333" y="160" width="117.333" height="21.333"/>
	</g>
</g>
<g>
	<g>
		<rect x="192" y="160" width="42.667" height="21.333"/>
	</g>
</g>
<g>
	<g>
		<rect x="53.333" y="202.667" width="64" height="21.333"/>
	</g>
</g>
<g>
	<g>
		<rect x="138.667" y="202.667" width="64" height="21.333"/>
	</g>
</g>
<g>
	<g>
		<rect x="53.333" y="245.333" width="32" height="21.333"/>
	</g>
</g>
<g>
	<g>
		<rect x="106.667" y="245.333" width="64" height="21.333"/>
	</g>
</g>
<g>
</g>
<g>
</g>
<g>
</g>
<g>
</g>
<g>
</g>
<g>
</g>
<g>
</g>
<g>
</g>
<g>
</g>
<g>
</g>
<g>
</g>
<g>
</g>
<g>
</g>
<g>
</g>
<g>
</g>
</svg>
