<?xml version="1.0" encoding="iso-8859-1"?>
<!-- Generator: Adobe Illustrator 19.0.0, SVG Export Plug-In . SVG Version: 6.00 Build 0)  -->
<svg version="1.1" id="Capa_1" xmlns="http://www.w3.org/2000/svg" xmlns:xlink="http://www.w3.org/1999/xlink" x="0px" y="0px"
	 viewBox="0 0 60 60" style="enable-background:new 0 0 60 60;" xml:space="preserve">
<g>
	<path d="M10.5,7.069c-2.481,0-4.5,2.019-4.5,4.5s2.019,4.5,4.5,4.5s4.5-2.019,4.5-4.5S12.981,7.069,10.5,7.069z M10.5,14.069
		c-1.378,0-2.5-1.121-2.5-2.5s1.122-2.5,2.5-2.5s2.5,1.121,2.5,2.5S11.878,14.069,10.5,14.069z"/>
	<circle cx="50" cy="10.069" r="1"/>
	<circle cx="46" cy="10.069" r="1"/>
	<circle cx="52" cy="13.069" r="1"/>
	<circle cx="48" cy="13.069" r="1"/>
	<circle cx="42" cy="10.069" r="1"/>
	<circle cx="44" cy="13.069" r="1"/>
	<circle cx="38" cy="10.069" r="1"/>
	<circle cx="40" cy="13.069" r="1"/>
	<circle cx="34" cy="10.069" r="1"/>
	<circle cx="36" cy="13.069" r="1"/>
	<path d="M60,17.46V5.677c0-2.541-2.067-4.608-4.608-4.608H4.608C2.067,1.069,0,3.136,0,5.677V17.46
		c0,1.469,0.703,2.764,1.777,3.608C0.703,21.913,0,23.208,0,24.677V36.46c0,2.541,2.067,4.608,4.608,4.608H30h25.392
		c2.541,0,4.608-2.067,4.608-4.608V24.677c0-1.469-0.703-2.764-1.777-3.608C59.297,20.224,60,18.929,60,17.46z M58,24.677V36.46
		c0,1.438-1.17,2.608-2.608,2.608H4.608C3.17,39.069,2,37.899,2,36.46V24.677c0-1.438,1.17-2.608,2.608-2.608h50.783
		C56.83,22.069,58,23.239,58,24.677z M4.608,20.069C3.17,20.069,2,18.899,2,17.46V5.677c0-1.438,1.17-2.608,2.608-2.608h50.783
		C56.83,3.069,58,4.239,58,5.677V17.46c0,1.438-1.17,2.608-2.608,2.608H4.608z"/>
	<path d="M10.5,35.069c2.481,0,4.5-2.019,4.5-4.5s-2.019-4.5-4.5-4.5S6,28.087,6,30.569S8.019,35.069,10.5,35.069z M10.5,28.069
		c1.378,0,2.5,1.121,2.5,2.5s-1.122,2.5-2.5,2.5S8,31.948,8,30.569S9.122,28.069,10.5,28.069z"/>
	<path d="M31.473,51.455c0.229,0.129,0.439,0.288,0.626,0.471c0.195,0.191,0.448,0.286,0.7,0.286c0.259,0,0.518-0.101,0.714-0.3
		c0.387-0.395,0.38-1.027-0.014-1.414c-0.311-0.305-0.66-0.567-1.039-0.783c-0.483-0.271-1.091-0.105-1.363,0.377
		C30.825,50.572,30.993,51.182,31.473,51.455z"/>
	<path d="M31.504,56.666c-0.225,0.132-0.467,0.232-0.719,0.3c-0.533,0.144-0.849,0.692-0.706,1.226
		c0.121,0.446,0.524,0.74,0.965,0.74c0.086,0,0.173-0.011,0.261-0.034c0.422-0.114,0.828-0.283,1.205-0.503
		c0.477-0.278,0.639-0.891,0.361-1.368C32.593,56.549,31.981,56.389,31.504,56.666z"/>
	<path d="M34,53.045c-0.552,0-1,0.471-1,1.023c0,0.264-0.034,0.524-0.101,0.775c-0.143,0.533,0.175,1.081,0.708,1.224
		c0.086,0.023,0.173,0.034,0.258,0.034c0.442,0,0.846-0.295,0.966-0.742C34.943,54.941,35,54.506,35,54.069v-0.047
		C35,53.469,34.552,53.045,34,53.045z"/>
	<path d="M28.51,56.672c-0.227-0.13-0.436-0.289-0.621-0.473c-0.392-0.39-1.024-0.386-1.414,0.004
		c-0.39,0.392-0.388,1.025,0.004,1.414c0.31,0.308,0.659,0.574,1.038,0.791c0.157,0.09,0.327,0.132,0.496,0.132
		c0.347,0,0.684-0.181,0.869-0.503C29.155,57.558,28.989,56.947,28.51,56.672z"/>
	<path d="M28.667,49.25c-0.42,0.115-0.824,0.287-1.2,0.508c-0.476,0.28-0.635,0.893-0.355,1.369
		c0.187,0.316,0.521,0.493,0.863,0.493c0.172,0,0.347-0.044,0.506-0.138c0.226-0.133,0.467-0.235,0.719-0.305
		c0.532-0.146,0.845-0.697,0.698-1.229C29.75,49.416,29.2,49.105,28.667,49.25z"/>
	<path d="M27,54.069c0-0.258,0.033-0.513,0.097-0.759c0.139-0.534-0.181-1.08-0.716-1.22c-0.535-0.138-1.081,0.181-1.22,0.716
		C25.054,53.216,25,53.641,25,54.09l1,0.002h-1c0,0.553,0.447,0.988,1,0.988C26.553,55.081,27,54.622,27,54.069z"/>
	<circle cx="50" cy="29.069" r="1"/>
	<circle cx="46" cy="29.069" r="1"/>
	<circle cx="52" cy="32.069" r="1"/>
	<circle cx="48" cy="32.069" r="1"/>
	<circle cx="42" cy="29.069" r="1"/>
	<circle cx="44" cy="32.069" r="1"/>
	<circle cx="38" cy="29.069" r="1"/>
	<circle cx="40" cy="32.069" r="1"/>
	<circle cx="34" cy="29.069" r="1"/>
	<circle cx="36" cy="32.069" r="1"/>
	<path d="M22,53.069h-1c-0.552,0-1,0.447-1,1s0.448,1,1,1h1c0.552,0,1-0.447,1-1S22.552,53.069,22,53.069z"/>
	<path d="M14,53.069h-1c-0.552,0-1,0.447-1,1s0.448,1,1,1h1c0.552,0,1-0.447,1-1S14.552,53.069,14,53.069z"/>
	<path d="M18,53.069h-1c-0.552,0-1,0.447-1,1s0.448,1,1,1h1c0.552,0,1-0.447,1-1S18.552,53.069,18,53.069z"/>
	<path d="M2,53.069H1c-0.552,0-1,0.447-1,1s0.448,1,1,1h1c0.552,0,1-0.447,1-1S2.552,53.069,2,53.069z"/>
	<path d="M6,53.069H5c-0.552,0-1,0.447-1,1s0.448,1,1,1h1c0.552,0,1-0.447,1-1S6.552,53.069,6,53.069z"/>
	<path d="M10,53.069H9c-0.552,0-1,0.447-1,1s0.448,1,1,1h1c0.552,0,1-0.447,1-1S10.552,53.069,10,53.069z"/>
	<path d="M39,53.069h-1c-0.552,0-1,0.447-1,1s0.448,1,1,1h1c0.552,0,1-0.447,1-1S39.552,53.069,39,53.069z"/>
	<path d="M47,53.069h-1c-0.552,0-1,0.447-1,1s0.448,1,1,1h1c0.552,0,1-0.447,1-1S47.552,53.069,47,53.069z"/>
	<path d="M43,53.069h-1c-0.552,0-1,0.447-1,1s0.448,1,1,1h1c0.552,0,1-0.447,1-1S43.552,53.069,43,53.069z"/>
	<path d="M59,53.069h-1c-0.552,0-1,0.447-1,1s0.448,1,1,1h1c0.552,0,1-0.447,1-1S59.552,53.069,59,53.069z"/>
	<path d="M51,53.069h-1c-0.552,0-1,0.447-1,1s0.448,1,1,1h1c0.552,0,1-0.447,1-1S51.552,53.069,51,53.069z"/>
	<path d="M55,53.069h-1c-0.552,0-1,0.447-1,1s0.448,1,1,1h1c0.552,0,1-0.447,1-1S55.552,53.069,55,53.069z"/>
	<path d="M31,47.069v-1c0-0.553-0.448-1-1-1s-1,0.447-1,1v1c0,0.553,0.448,1,1,1S31,47.622,31,47.069z"/>
	<path d="M29,42.069v1c0,0.553,0.448,1,1,1s1-0.447,1-1v-1c0-0.553-0.448-1-1-1S29,41.516,29,42.069z"/>
</g>
<g>
</g>
<g>
</g>
<g>
</g>
<g>
</g>
<g>
</g>
<g>
</g>
<g>
</g>
<g>
</g>
<g>
</g>
<g>
</g>
<g>
</g>
<g>
</g>
<g>
</g>
<g>
</g>
<g>
</g>
</svg>
