<?xml version="1.0" encoding="iso-8859-1"?>
<!-- Generator: Adobe Illustrator 19.0.0, SVG Export Plug-In . SVG Version: 6.00 Build 0)  -->
<svg version="1.1" id="Capa_1" xmlns="http://www.w3.org/2000/svg" xmlns:xlink="http://www.w3.org/1999/xlink" x="0px" y="0px"
	 viewBox="0 0 511.999 511.999" style="enable-background:new 0 0 511.999 511.999;" xml:space="preserve">
<g>
	<g>
		<path d="M509.991,425.824c-2.983-8.1-8.941-14.553-16.779-18.171c-13.83-6.384-29.897-2.125-38.935,9.357l-67.869-31.332v-145.85
			c0-0.347-0.029-0.689-0.076-1.027c-0.016-0.112-0.042-0.221-0.063-0.332c-0.041-0.224-0.087-0.445-0.148-0.663
			c-0.036-0.126-0.078-0.249-0.12-0.373c-0.067-0.197-0.139-0.391-0.221-0.581c-0.053-0.123-0.109-0.244-0.169-0.364
			c-0.092-0.186-0.194-0.365-0.302-0.542c-0.067-0.111-0.132-0.222-0.205-0.33c-0.125-0.183-0.262-0.357-0.402-0.529
			c-0.072-0.089-0.139-0.181-0.215-0.266c-0.204-0.227-0.422-0.441-0.654-0.644c-0.027-0.023-0.05-0.049-0.077-0.072
			c-0.235-0.199-0.482-0.385-0.743-0.555c-0.02-0.013-0.041-0.022-0.061-0.035c-0.095-0.061-0.197-0.111-0.295-0.168
			c-0.203-0.117-0.407-0.23-0.617-0.326c-0.041-0.019-0.078-0.045-0.119-0.063l-40.037-17.544c-3.793-1.664-8.217,0.066-9.88,3.859
			c-1.663,3.794,0.065,8.217,3.858,9.88l24.359,10.675L256,285.497l-104.22-45.669l104.221-45.67l30.199,13.234
			c3.796,1.664,8.217-0.066,9.88-3.859c1.663-3.794-0.065-8.217-3.858-9.881l-28.72-12.585v-74.648
			c14.212-3.392,24.814-16.191,24.814-31.428c0-17.819-14.497-32.316-32.315-32.316c-17.819,0-32.316,14.497-32.316,32.316
			c0,15.237,10.603,28.035,24.815,31.428v74.648l-118.419,51.892c-0.042,0.018-0.079,0.044-0.12,0.064
			c-0.212,0.097-0.417,0.21-0.621,0.328c-0.096,0.056-0.196,0.105-0.289,0.164c-0.02,0.013-0.043,0.022-0.063,0.036
			c-0.265,0.173-0.517,0.362-0.755,0.564c-0.016,0.014-0.03,0.03-0.046,0.044c-0.24,0.208-0.465,0.43-0.675,0.664
			c-0.074,0.083-0.139,0.172-0.209,0.258c-0.143,0.174-0.282,0.351-0.409,0.537c-0.072,0.105-0.136,0.215-0.202,0.324
			c-0.109,0.179-0.211,0.36-0.305,0.548c-0.059,0.119-0.114,0.238-0.167,0.36c-0.083,0.192-0.156,0.386-0.223,0.585
			c-0.042,0.123-0.084,0.245-0.119,0.371c-0.061,0.218-0.107,0.44-0.148,0.663c-0.021,0.111-0.047,0.219-0.063,0.332
			c-0.047,0.338-0.076,0.68-0.076,1.027v68.503c0,4.142,3.358,7.5,7.5,7.5s7.5-3.358,7.5-7.5v-57.026L248.5,298.59v133.768
			l-107.908-46.481v-24.209c0-4.142-3.358-7.5-7.5-7.5s-7.5,3.358-7.5,7.5v24.01l-67.86,31.328
			c-3.654-4.662-8.532-8.238-14.231-10.338c-8.1-2.983-16.877-2.633-24.713,0.984c-7.836,3.618-13.796,10.072-16.779,18.171
			c-2.983,8.1-2.634,16.877,0.984,24.713c5.45,11.806,17.167,18.77,29.389,18.769c4.526,0,9.123-0.956,13.496-2.974
			c7.836-3.618,13.796-10.072,16.779-18.171c2.099-5.698,2.541-11.731,1.363-17.536l68.801-31.762l120.212,51.782
			c0.259,0.111,0.523,0.204,0.789,0.285c0.057,0.017,0.115,0.029,0.172,0.044c0.261,0.073,0.524,0.13,0.789,0.173
			c0.086,0.014,0.17,0.028,0.256,0.039c0.32,0.041,0.64,0.069,0.961,0.069c0.32,0,0.641-0.028,0.96-0.069
			c0.087-0.011,0.172-0.025,0.258-0.04c0.264-0.043,0.525-0.1,0.785-0.173c0.059-0.016,0.118-0.028,0.176-0.045
			c0.266-0.081,0.529-0.174,0.787-0.285l120.212-51.782l68.811,31.767c-2.877,14.326,4.299,29.317,18.132,35.703
			c4.314,1.992,8.912,2.993,13.527,2.993c3.768,0,7.546-0.668,11.187-2.009c8.1-2.983,14.554-8.942,18.172-16.779
			C512.624,442.701,512.974,433.924,509.991,425.824z M238.684,74.992c0-9.547,7.767-17.315,17.315-17.315
			c9.548,0,17.314,7.767,17.314,17.315s-7.767,17.315-17.314,17.315C246.452,92.307,238.684,84.54,238.684,74.992z M39.589,452.713
			c-4.199,1.939-8.9,2.126-13.242,0.527c-4.339-1.598-7.797-4.791-9.736-8.99c-1.938-4.199-2.126-8.901-0.527-13.242
			c1.598-4.339,4.791-7.797,8.989-9.736c2.343-1.082,4.805-1.594,7.231-1.594c6.548,0,12.827,3.731,15.747,10.057
			C52.053,438.404,48.257,448.712,39.589,452.713z M371.407,385.878L263.5,432.359V298.59l70.975-31.102l36.933-16.184V385.878z
			 M495.387,444.251c-4.001,8.667-14.308,12.466-22.978,8.462c-4.199-1.938-7.392-5.396-8.99-9.735
			c-1.599-4.34-1.411-9.042,0.527-13.242c2.92-6.325,9.197-10.057,15.746-10.057c2.426,0,4.889,0.512,7.231,1.594
			c4.199,1.938,7.392,5.396,8.99,9.735C497.513,435.348,497.325,440.052,495.387,444.251z"/>
	</g>
</g>
<g>
</g>
<g>
</g>
<g>
</g>
<g>
</g>
<g>
</g>
<g>
</g>
<g>
</g>
<g>
</g>
<g>
</g>
<g>
</g>
<g>
</g>
<g>
</g>
<g>
</g>
<g>
</g>
<g>
</g>
</svg>
