<?xml version="1.0" encoding="iso-8859-1"?>
<!-- Generator: Adobe Illustrator 19.0.0, SVG Export Plug-In . SVG Version: 6.00 Build 0)  -->
<svg version="1.1" id="Capa_1" xmlns="http://www.w3.org/2000/svg" xmlns:xlink="http://www.w3.org/1999/xlink" x="0px" y="0px"
	 viewBox="0 0 512 512" style="enable-background:new 0 0 512 512;" xml:space="preserve">
<g>
	<g>
		<g>
			<path d="M485.086,19.414H350.863V7.5c0-4.142-3.358-7.5-7.5-7.5c-4.142,0-7.5,3.358-7.5,7.5v11.914H176.137V7.5
				c0-4.142-3.358-7.5-7.5-7.5c-4.142,0-7.5,3.358-7.5,7.5v11.914H26.914C12.074,19.414,0,31.488,0,46.328v19.899
				c0,4.142,3.358,7.5,7.5,7.5s7.5-3.358,7.5-7.5V46.328c0-6.569,5.345-11.914,11.914-11.914H168.55c0.06,0.001,0.116,0.001,0.174,0
				h174.553c0.059,0.001,0.115,0.001,0.174,0h141.636c6.569,0,11.914,5.345,11.914,11.914v300.918
				c0,6.569-5.345,11.914-11.914,11.914h-50.571c1.994-4.524,3.627-9.246,4.86-14.121h36.004c4.142,0,7.5-3.358,7.5-7.5
				c0-4.142-3.358-7.5-7.5-7.5h-33.543c0.181-2.329,0.274-4.686,0.274-7.061c0-49.631-40.378-90.01-90.01-90.01
				c-21.551,0-42.402,7.736-58.712,21.782c-3.138,2.703-3.491,7.439-0.789,10.578c2.703,3.138,7.438,3.492,10.578,0.789
				c13.588-11.703,30.963-18.148,48.923-18.148c41.36,0,75.01,33.649,75.01,75.01c0,41.361-33.649,75.01-75.01,75.01
				s-75.01-33.649-75.01-75.01c0-13.275,3.511-26.316,10.154-37.713c2.086-3.579,0.876-8.17-2.703-10.256
				c-3.578-2.085-8.171-0.876-10.256,2.703c-7.979,13.688-12.195,29.34-12.195,45.267c0,2.375,0.093,4.731,0.274,7.061H44.121
				v-33.535h11.914c4.142,0,7.5-3.358,7.5-7.5c0-4.142-3.358-7.5-7.5-7.5H44.121v-30.299h31.328c4.142,0,7.5-3.358,7.5-7.5
				c0-4.142-3.358-7.5-7.5-7.5H44.121v-31.593h11.914c4.142,0,7.5-3.358,7.5-7.5c0-4.142-3.358-7.5-7.5-7.5H44.121V157.37h31.328
				c4.142,0,7.5-3.358,7.5-7.5c0-4.142-3.358-7.5-7.5-7.5H44.121v-32.236h11.914c4.142,0,7.5-3.358,7.5-7.5
				c0-4.142-3.358-7.5-7.5-7.5H44.121V63.535h31.328c4.142,0,7.5-3.358,7.5-7.5c0-4.142-3.358-7.5-7.5-7.5H36.621
				c-4.142,0-7.5,3.358-7.5,7.5v281.504c0,4.142,3.358,7.5,7.5,7.5h228.203c8.563,33.858,36.361,60.141,71.039,66.482v25.295
				H176.137V374.16h73.396c4.142,0,7.5-3.358,7.5-7.5c0-4.142-3.358-7.5-7.5-7.5H26.914c-6.569,0-11.914-5.345-11.914-11.914V95.833
				c0-4.142-3.358-7.5-7.5-7.5S0,91.691,0,95.833v251.413c0,14.84,12.074,26.914,26.914,26.914h134.223v93.719h-38.123
				c-9.488,0-17.207,7.719-17.207,17.207v9.707c0,9.488,7.719,17.207,17.207,17.207h265.973c9.488,0,17.207-7.719,17.207-17.207
				v-9.707c0-9.488-7.719-17.207-17.207-17.207h-38.123V412.98c0.411,0.005,0.824,0.008,1.236,0.008
				c30.632,0,57.741-15.384,74.006-38.828h58.98c14.84,0,26.914-12.074,26.914-26.914V46.328
				C512,31.488,499.926,19.414,485.086,19.414z M388.986,482.879c1.217,0,2.207,0.99,2.207,2.207v9.707
				c0,1.217-0.99,2.207-2.207,2.207H123.014c-1.217,0-2.207-0.99-2.207-2.207v-9.707c0-1.217,0.99-2.207,2.207-2.207H190.8
				c4.142,0,7.5-3.358,7.5-7.5c0-4.142-3.358-7.5-7.5-7.5h-14.664v-16.063h159.727v16.063h-114.81c-4.142,0-7.5,3.358-7.5,7.5
				c0,4.142,3.358,7.5,7.5,7.5H388.986z"/>
			<path d="M358.7,256.071h-2.977c-4.847,0-9.294,2.441-11.896,6.531l-37.804,59.407c-2.764,4.343-2.942,9.843-0.465,14.356
				c2.477,4.512,7.213,7.315,12.361,7.315h13.479v32.104c0,7.775,6.326,14.101,14.101,14.101h2.978
				c4.846,0,9.293-2.441,11.896-6.531l37.804-59.407c2.764-4.343,2.942-9.844,0.465-14.356c-2.477-4.512-7.213-7.315-12.361-7.315
				h-13.479v-32.104C372.801,262.397,366.476,256.071,358.7,256.071z M384.642,317.277l-36.66,57.609h-1.584V336.18
				c0-4.142-3.358-7.5-7.5-7.5h-19.341l36.66-57.609h1.584v38.706c0,4.142,3.358,7.5,7.5,7.5H384.642z"/>
			<path d="M237.172,208.437c-3.164,0.67-6.391,0.053-9.083-1.741l-28.421-18.948c-10.669-7.114-24.974-5.675-34.014,3.416
				l-41.294,41.527c-2.22,2.233-5.299,3.514-8.448,3.514h-11.34c-4.142,0-7.5,3.358-7.5,7.5c0,4.142,3.358,7.5,7.5,7.5h11.34
				c7.113,0,14.069-2.893,19.085-7.937l41.294-41.527c4.002-4.024,10.333-4.662,15.057-1.512l28.422,18.948
				c6.081,4.055,13.368,5.451,20.519,3.934c7.15-1.518,13.241-5.755,17.151-11.931l48.764-77.029
				c4.604,3.682,10.439,5.885,16.78,5.885c7.279,0,13.893-2.905,18.742-7.616l20.241,18.072c4.938,4.41,11.304,6.838,17.926,6.838
				h93.547c4.142,0,7.5-3.358,7.5-7.5c0-4.142-3.358-7.5-7.5-7.5h-93.55c-2.931,0-5.749-1.075-7.935-3.027l-22.712-20.278
				c0.427-1.9,0.652-3.876,0.652-5.903c0-14.84-12.074-26.914-26.914-26.914c-14.84,0-26.914,12.074-26.914,26.914
				c0,2.555,0.358,5.029,1.026,7.373l-52.33,82.662C243.033,205.889,240.337,207.765,237.172,208.437z M322.981,101.207
				c6.569,0,11.914,5.345,11.914,11.914c0,6.569-5.345,11.914-11.914,11.914c-6.569,0-11.914-5.345-11.914-11.914
				C311.067,106.552,316.412,101.207,322.981,101.207z"/>
			<path d="M473.437,63.535c4.142,0,7.5-3.358,7.5-7.5c0-4.142-3.358-7.5-7.5-7.5h-38.828c-4.142,0-7.5,3.358-7.5,7.5
				c0,4.142,3.358,7.5,7.5,7.5H473.437z"/>
		</g>
	</g>
</g>
<g>
</g>
<g>
</g>
<g>
</g>
<g>
</g>
<g>
</g>
<g>
</g>
<g>
</g>
<g>
</g>
<g>
</g>
<g>
</g>
<g>
</g>
<g>
</g>
<g>
</g>
<g>
</g>
<g>
</g>
</svg>
