<?xml version="1.0" encoding="iso-8859-1"?>
<!-- Generator: Adobe Illustrator 19.0.0, SVG Export Plug-In . SVG Version: 6.00 Build 0)  -->
<svg xmlns="http://www.w3.org/2000/svg" xmlns:xlink="http://www.w3.org/1999/xlink" version="1.1" id="Layer_1" x="0px" y="0px" viewBox="0 0 512 512" style="enable-background:new 0 0 512 512;" xml:space="preserve" width="512" height="512">
<g id="XMLID_399_">
	<g id="XMLID_382_">
		<g id="XMLID_383_">
			<path id="XMLID_398_" d="M127.529,264h114.804c5.522,0,10-4.477,10-10s-4.478-10-10-10H127.529c-5.522,0-10,4.477-10,10     S122.007,264,127.529,264z"/>
			<path id="XMLID_397_" d="M316.471,316H127.529c-5.522,0-10,4.477-10,10s4.478,10,10,10h188.941c5.522,0,10-4.477,10-10     S321.993,316,316.471,316z"/>
			<path id="XMLID_396_" d="M316.471,388H168c-5.522,0-10,4.477-10,10s4.478,10,10,10h148.471c5.522,0,10-4.477,10-10     S321.993,388,316.471,388z"/>
			<path id="XMLID_395_" d="M386.93,306.93c-1.86,1.86-2.93,4.44-2.93,7.07c0,2.63,1.069,5.21,2.93,7.07S391.37,324,394,324     s5.21-1.07,7.069-2.93c1.86-1.86,2.931-4.44,2.931-7.07c0-2.63-1.07-5.21-2.931-7.07C399.21,305.07,396.63,304,394,304     S388.79,305.07,386.93,306.93z"/>
			<path id="XMLID_390_" d="M370,0c-31.659,0-60.928,10.418-84.568,28H30C13.458,28,0,41.458,0,58v384c0,16.542,13.458,30,30,30h10     c0,22.056,17.944,40,40,40h284c22.056,0,40-17.944,40-40V354c0-5.523-4.478-10-10-10s-10,4.477-10,10v118     c0,11.028-8.972,20-20,20H80c-11.028,0-20-8.972-20-20V192h74c16.542,0,30-13.458,30-30V88h74.677     C231.803,104.656,228,122.891,228,142c0,10.291,1.11,20.325,3.2,30h-38.867c-5.522,0-10,4.477-10,10s4.478,10,10,10h44.765     c20.27,53.701,72.194,92,132.902,92c78.299,0,142-63.701,142-142S448.299,0,370,0z M144,162c0,5.514-4.486,10-10,10H74.143     L144,102.142V162z M154,68c-2.759,0-5.257,1.118-7.066,2.924c-0.002,0.002-0.004,0.003-0.005,0.004l-104,104     c-0.003,0.003-0.005,0.006-0.007,0.009C41.116,176.747,40,179.243,40,182v270H30c-5.514,0-10-4.486-10-10V58     c0-5.514,4.486-10,10-10h233.666c-5.495,6.209-10.46,12.898-14.814,20H154z M370,264c-67.271,0-122-54.729-122-122     S302.729,20,370,20s122,54.729,122,122S437.271,264,370,264z"/>
			<path id="XMLID_389_" d="M463.037,132.106h-8.062c-5.522,0-10,4.477-10,10s4.478,10,10,10h8.062c5.522,0,10-4.477,10-10     S468.56,132.106,463.037,132.106z"/>
			<path id="XMLID_388_" d="M285.024,131.894h-8.062c-5.522,0-10,4.477-10,10s4.478,10,10,10h8.062c5.522,0,10-4.477,10-10     S290.547,131.894,285.024,131.894z"/>
			<path id="XMLID_387_" d="M370.106,67.024c5.522,0,10-4.477,10-10v-8.061c0-5.523-4.478-10-10-10s-10,4.477-10,10v8.061     C360.106,62.547,364.584,67.024,370.106,67.024z"/>
			<path id="XMLID_386_" d="M369.894,216.976c-5.522,0-10,4.477-10,10v8.061c0,5.523,4.478,10,10,10s10-4.477,10-10v-8.061     C379.894,221.453,375.416,216.976,369.894,216.976z"/>
			<path id="XMLID_385_" d="M362.944,149.086c1.951,1.943,4.503,2.914,7.056,2.914c2.56,0,5.119-0.977,7.071-2.929L446.2,79.942     c3.905-3.905,3.905-10.237,0-14.143c-3.906-3.905-10.236-3.904-14.143,0L370,127.858l-36.052-36.052     c-3.904-3.905-10.234-3.905-14.143,0c-3.905,3.905-3.905,10.237,0,14.142l43.027,43.028L362.944,149.086z"/>
			<path id="XMLID_384_" d="M120.93,390.93c-1.86,1.86-2.93,4.44-2.93,7.07c0,2.63,1.069,5.21,2.93,7.07S125.37,408,128,408     s5.21-1.07,7.069-2.93c1.86-1.86,2.931-4.44,2.931-7.07c0-2.63-1.07-5.21-2.931-7.07C133.21,389.07,130.63,388,128,388     S122.79,389.07,120.93,390.93z"/>
		</g>
	</g>
</g>















</svg>
