<?xml version="1.0" encoding="iso-8859-1"?>
<!-- Generator: Adobe Illustrator 19.0.0, SVG Export Plug-In . SVG Version: 6.00 Build 0)  -->
<svg version="1.1" id="Layer_1" xmlns="http://www.w3.org/2000/svg" xmlns:xlink="http://www.w3.org/1999/xlink" x="0px" y="0px"
	 viewBox="0 0 512 512" style="enable-background:new 0 0 512 512;" xml:space="preserve">
<g>
	<g>
		<path d="M503.344,186.674h-10.68c-4.021-19.73-21.507-34.622-42.406-34.622h-45.009c-4.748,0-9.315,0.78-13.593,2.2
			c-0.214-11.243-4.681-21.784-12.656-29.758l-31.826-31.826c-16.874-16.873-44.331-16.873-61.204,0
			c-8.175,8.175-12.676,19.043-12.676,30.602s4.502,22.428,12.676,30.601l31.826,31.826c0.651,0.651,1.324,1.27,2.008,1.873
			c-2.765,1.716-5.38,3.768-7.779,6.166l-31.826,31.826c-6.99,6.99-11.285,15.953-12.385,25.633
			c-5.23-2.248-10.979-3.513-17.024-3.513h-57.781c-5.956,0-11.632,1.214-16.802,3.4c-1.094-9.332-5.197-18.375-12.341-25.519
			l-78.2-78.201c-14.778-14.778-37.673-16.613-54.467-5.505l-16.423-16.423c-3.38-3.38-8.861-3.38-12.241,0
			c-3.38,3.38-3.38,8.861,0,12.241l16.418,16.418c-4.661,7.019-7.166,15.252-7.166,23.871c0,11.56,4.502,22.428,12.676,30.603
			l78.201,78.201c1.468,1.468,3.016,2.807,4.63,4.019c-1.62,1.221-3.169,2.561-4.63,4.021l-63.3,63.3
			c-16.873,16.874-16.873,44.33,0,61.204c8.175,8.175,19.043,12.676,30.602,12.676c11.56,0,22.428-4.502,30.601-12.676l63.3-63.3
			c7.059-7.059,11.149-15.971,12.302-25.184c5.179,2.196,10.871,3.412,16.841,3.412h57.781c6.058,0,11.829-1.251,17.067-3.508
			c1.163,9.543,5.436,18.376,12.341,25.281l63.3,63.3c8.173,8.175,19.042,12.676,30.601,12.676c11.56,0,22.428-4.502,30.603-12.676
			c16.873-16.874,16.873-44.33,0-61.204l-63.3-63.3c-1.473-1.473-3.03-2.81-4.649-4.026c1.618-1.214,3.178-2.544,4.649-4.015
			l31.826-31.826c5.964-5.964,9.963-13.366,11.695-21.422c6.065,3.241,12.981,5.09,20.325,5.09h45.009
			c20.899,0,38.385-14.892,42.406-34.622h10.68c4.78,0,8.656-3.876,8.656-8.656S508.124,186.674,503.344,186.674z M36.704,196.325
			c-4.905-4.905-7.606-11.425-7.606-18.361c0-6.935,2.701-13.456,7.606-18.361c4.905-4.905,11.425-7.606,18.361-7.606
			c6.935,0,13.456,2.701,18.361,7.606l78.2,78.201c10.124,10.124,10.124,26.597,0,36.722c-10.124,10.123-26.597,10.123-36.722,0
			L36.704,196.325z M151.089,299.313c-1.639-0.873-3.298-1.735-4.96-2.575c1.154-0.712,2.428-1.62,3.776-2.672
			C150.115,296.01,150.514,297.74,151.089,299.313z M151.627,343.769l-63.3,63.3c-4.905,4.905-11.425,7.606-18.361,7.606
			c-6.936,0-13.457-2.701-18.361-7.606c-10.123-10.124-10.123-26.597,0-36.722l63.3-63.3c4.905-4.905,11.425-7.606,18.361-7.606
			c6.936,0,13.457,2.701,18.361,7.606C161.75,317.171,161.75,333.645,151.627,343.769z M250.791,316.925H193.01
			c-14.318,0-25.966-11.648-25.966-25.966c0-14.318,11.648-25.966,25.966-25.966h57.781c14.318,0,25.966,11.648,25.966,25.966
			S265.109,316.925,250.791,316.925z M392.462,370.347c10.123,10.124,10.123,26.597,0,36.722
			c-4.905,4.905-11.425,7.606-18.361,7.606s-13.456-2.701-18.361-7.606l-63.3-63.3c-4.905-4.905-7.606-11.425-7.606-18.361
			s2.701-13.456,7.606-18.361c5.062-5.062,11.711-7.593,18.361-7.593s13.299,2.531,18.361,7.593L392.462,370.347z M360.988,242.699
			l-31.826,31.826c-10.124,10.123-26.597,10.123-36.722,0c-4.905-4.905-7.606-11.425-7.606-18.361
			c0-6.935,2.701-13.456,7.606-18.361l31.826-31.826c5.063-5.062,11.711-7.593,18.361-7.593c6.649,0,13.299,2.532,18.361,7.593
			c4.905,4.905,7.606,11.425,7.606,18.361S365.892,237.794,360.988,242.699z M366.759,173.456
			c-10.125,10.124-26.598,10.123-36.722,0l-31.826-31.826c-4.905-4.905-7.606-11.425-7.606-18.361
			c0-6.936,2.701-13.457,7.606-18.361c5.063-5.062,11.711-7.593,18.361-7.593c6.649,0,13.299,2.531,18.361,7.593l31.826,31.826
			c4.905,4.905,7.606,11.425,7.606,18.361S371.664,168.552,366.759,173.456z M450.257,221.296h-45.009
			c-14.317,0-25.965-11.648-25.965-25.966s11.648-25.966,25.965-25.966h45.009c14.317,0,25.965,11.648,25.965,25.966
			S464.575,221.296,450.257,221.296z"/>
	</g>
</g>
<g>
</g>
<g>
</g>
<g>
</g>
<g>
</g>
<g>
</g>
<g>
</g>
<g>
</g>
<g>
</g>
<g>
</g>
<g>
</g>
<g>
</g>
<g>
</g>
<g>
</g>
<g>
</g>
<g>
</g>
</svg>
