<?xml version="1.0" encoding="iso-8859-1"?>
<!-- Generator: Adobe Illustrator 19.0.0, SVG Export Plug-In . SVG Version: 6.00 Build 0)  -->
<svg version="1.1" id="Capa_1" xmlns="http://www.w3.org/2000/svg" xmlns:xlink="http://www.w3.org/1999/xlink" x="0px" y="0px"
	 viewBox="0 0 480 480" style="enable-background:new 0 0 480 480;" xml:space="preserve">
<g>
	<g>
		<path d="M472,451.992H256c-0.685,0.045-1.36,0.183-2.008,0.408c-1.395-2.57-3.467-4.709-5.992-6.184v-82.224c0-4.418-3.582-8-8-8
			s-8,3.582-8,8v82.224c-2.525,1.475-4.597,3.614-5.992,6.184c-0.648-0.225-1.323-0.363-2.008-0.408H8c-4.418,0-8,3.582-8,8
			s3.582,8,8,8h216c0.685-0.045,1.36-0.183,2.008-0.408c4.102,7.732,13.695,10.675,21.427,6.573
			c2.799-1.485,5.088-3.774,6.573-6.573c0.643,0.224,1.313,0.361,1.992,0.408h216c4.418,0,8-3.582,8-8S476.418,451.992,472,451.992z
			"/>
	</g>
</g>
<g>
	<g>
		<path d="M240,3.992c-92.784,0-168,75.216-168,168s75.216,168,168,168s168-75.216,168-168C407.894,79.252,332.74,4.098,240,3.992z
			 M213.488,22.448C194.187,39.615,178.399,60.364,167,83.544c-11.705-5.537-22.766-12.343-32.984-20.296
			C155.807,41.974,183.5,27.756,213.488,22.448z M123.096,74.984c11.534,9.121,24.071,16.896,37.368,23.176
			c-8.294,21.006-12.973,43.264-13.84,65.832H88.408C90.048,131.354,102.218,100.125,123.096,74.984z M88.408,179.992h58.216
			c0.853,22.133,5.373,43.971,13.376,64.624c-13.654,5.912-26.588,13.363-38.552,22.208
			C101.588,242.069,90.028,211.688,88.408,179.992z M132.064,278.872c10.688-7.787,22.203-14.371,34.336-19.632
			c11.444,23.657,27.446,44.821,47.088,62.28C182.589,316.068,154.141,301.168,132.064,278.872z M232,316.176
			c-21.287-16.891-38.563-38.293-50.584-62.664c16.363-5.338,33.385-8.388,50.584-9.064V316.176z M232,228.496
			c-19.43,0.708-38.657,4.21-57.088,10.4c-7.297-18.828-11.448-38.729-12.288-58.904H232V228.496z M232,163.992h-69.376
			c0.848-20.436,5.098-40.587,12.576-59.624c18.234,6.678,37.397,10.478,56.8,11.264V163.992z M232,99.584
			c-17.129-0.777-34.045-4.118-50.184-9.912C193.818,65.628,210.949,44.511,232,27.808V99.584z M391.592,163.992h-58.216
			c-0.866-22.568-5.548-44.827-13.848-65.832c13.301-6.285,25.841-14.069,37.376-23.2
			C377.787,100.107,389.957,131.345,391.592,163.992z M345.984,63.264C335.766,71.217,324.705,78.023,313,83.56
			c-11.397-23.182-27.185-43.931-46.488-61.096C296.499,27.774,324.192,41.992,345.984,63.264z M248,27.808
			c21.049,16.7,38.177,37.815,50.176,61.856c-16.134,5.801-33.048,9.144-50.176,9.92V27.808z M248,115.632
			c19.404-0.785,38.567-4.588,56.8-11.272c7.478,19.04,11.728,39.194,12.576,59.632H248V115.632z M248,179.992h69.376
			c-0.839,20.178-4.99,40.081-12.288,58.912c-18.432-6.186-37.658-9.691-57.088-10.408V179.992z M248,316.176v-71.72
			c17.186,0.702,34.192,3.777,50.536,9.136C286.523,277.932,269.264,299.306,248,316.176z M266.512,321.52
			c19.642-17.446,35.645-38.6,47.088-62.248c12.135,5.253,23.655,11.826,34.352,19.6
			C325.872,301.172,297.418,316.073,266.512,321.52z M358.568,266.856c-11.969-8.844-24.909-16.293-38.568-22.2
			c8.006-20.666,12.527-42.518,13.376-64.664h58.216C389.984,211.697,378.429,242.09,358.568,266.856z"/>
	</g>
</g>
<g>
</g>
<g>
</g>
<g>
</g>
<g>
</g>
<g>
</g>
<g>
</g>
<g>
</g>
<g>
</g>
<g>
</g>
<g>
</g>
<g>
</g>
<g>
</g>
<g>
</g>
<g>
</g>
<g>
</g>
</svg>
