<svg xmlns="http://www.w3.org/2000/svg" width="60" height="60" viewBox="0 0 60 60">
  <path id="Icon_awesome-twitter-square" data-name="Icon awesome-twitter-square" d="M53.571,2.25H6.429A6.43,6.43,0,0,0,0,8.679V55.821A6.43,6.43,0,0,0,6.429,62.25H53.571A6.43,6.43,0,0,0,60,55.821V8.679A6.43,6.43,0,0,0,53.571,2.25ZM47.022,23.518c.027.375.027.763.027,1.138,0,11.612-8.839,24.991-24.991,24.991A24.876,24.876,0,0,1,8.571,45.71a18.5,18.5,0,0,0,2.116.107,17.611,17.611,0,0,0,10.9-3.75,8.8,8.8,0,0,1-8.21-6.094,9.467,9.467,0,0,0,3.964-.161,8.784,8.784,0,0,1-7.031-8.625V27.08a8.778,8.778,0,0,0,3.964,1.112,8.765,8.765,0,0,1-3.911-7.313,8.674,8.674,0,0,1,1.192-4.433,24.941,24.941,0,0,0,18.107,9.188,8.8,8.8,0,0,1,14.987-8.022A17.212,17.212,0,0,0,50.223,15.5a8.761,8.761,0,0,1-3.857,4.835,17.48,17.48,0,0,0,5.062-1.366A18.489,18.489,0,0,1,47.022,23.518Z" transform="translate(0 -2.25)" fill="#fff"/>
</svg>
