<?xml version="1.0" encoding="iso-8859-1"?>
<!-- Generator: Adobe Illustrator 19.0.0, SVG Export Plug-In . SVG Version: 6.00 Build 0)  -->
<svg version="1.1" id="Capa_1" xmlns="http://www.w3.org/2000/svg" xmlns:xlink="http://www.w3.org/1999/xlink" x="0px" y="0px"
	 viewBox="0 0 512 512" style="enable-background:new 0 0 512 512;" xml:space="preserve">
<g>
	<g>
		<path d="M146.935,57.097c-3.808-3.999-10.138-4.157-14.138-0.349l-0.744,0.714c-3.976,3.833-4.091,10.164-0.258,14.14
			c1.962,2.035,4.579,3.059,7.2,3.059c2.498,0,5-0.931,6.94-2.802l0.65-0.624C150.585,67.427,150.742,61.098,146.935,57.097z"/>
	</g>
</g>
<g>
	<g>
		<path d="M348.63,452.93c-1.86-1.86-4.44-2.93-7.07-2.93c-2.64,0-5.21,1.069-7.07,2.93c-1.86,1.86-2.93,4.44-2.93,7.07
			s1.07,5.21,2.93,7.069c1.86,1.86,4.44,2.931,7.07,2.931s5.21-1.07,7.07-2.931c1.86-1.859,2.93-4.439,2.93-7.069
			S350.49,454.79,348.63,452.93z"/>
	</g>
</g>
<g>
	<g>
		<path d="M341.558,273.984c-18.748,0-34,15.252-34,34c0,15.269,10.118,28.217,24,32.497v79.852c0,5.522,4.477,10,10,10
			s10-4.478,10-10v-79.852c13.882-4.28,24-17.228,24-32.497C375.558,289.236,360.306,273.984,341.558,273.984z M341.558,321.984
			c-7.72,0-14-6.28-14-14c0-7.72,6.28-14,14-14c7.72,0,14,6.28,14,14C355.558,315.704,349.277,321.984,341.558,321.984z"/>
	</g>
</g>
<g>
	<g>
		<path d="M469.507,492H421.25v-98.447c0-16.347,4.917-32.06,14.22-45.439c28.005-40.279,44.873-96.445,44.021-146.579
			c-0.934-54.922-23.08-106.074-62.359-144.034C377.865,19.551,325.986-0.85,271.048,0.027
			c-39.739,0.642-78.121,12.674-110.997,34.799c-4.582,3.083-5.797,9.297-2.713,13.879c3.084,4.581,9.297,5.799,13.879,2.713
			c15.771-10.613,32.948-18.651,50.968-23.94v152.518l-15.074,15.062c-4.747-2.521-10.155-3.956-15.894-3.956
			c-18.748,0-34,15.252-34,34s15.252,34,34,34c18.748,0,34-15.252,34-34c0-5.743-1.437-11.155-3.961-15.904l17.998-17.983
			c1.877-1.876,2.932-4.421,2.932-7.074V22.807c9.584-1.684,19.338-2.623,29.186-2.781c5.313-0.086,10.575,0.066,15.783,0.423
			v91.263c-13.882,4.281-24,17.228-24,32.497c0,18.748,15.252,34,34,34s34-15.252,34-34c0-15.269-10.118-28.217-24-32.497V22.918
			c14.643,2.629,28.704,6.986,41.96,12.859V184.14c0,2.653,1.055,5.198,2.932,7.074l17.998,17.983
			c-2.524,4.749-3.961,10.161-3.961,15.904c0,18.748,15.252,34,34,34s34-15.252,34-34s-15.252-34-34-34
			c-5.739,0-11.147,1.435-15.894,3.956l-15.074-15.062V46.137c53.157,31.778,89.253,89.452,90.38,155.736
			c0.772,45.453-15.104,98.373-40.445,134.822c-11.644,16.747-17.799,36.408-17.799,56.856V492h-94.096v-86
			c0-2.653-1.055-5.198-2.932-7.074l-17.998-17.983c2.524-4.749,3.961-10.161,3.961-15.904c0-18.748-15.252-34-34-34
			s-34,15.252-34,34s15.252,34,34,34c5.739,0,11.147-1.435,15.894-3.956l15.074,15.062V492h-35.107v-14.952
			c0-21.504-17.495-38.998-38.999-38.998h-62.923c-21.647,0-39.258-17.611-39.258-39.259v-72.172c0-5.522-4.477-10-10-10H55.96
			L88.893,208c0.285-0.94,0.43-1.918,0.43-2.901c0-34.793,9.704-68.692,28.062-98.034c1.445-2.309,2.963-4.62,4.514-6.871
			c3.134-4.548,1.987-10.774-2.561-13.908c-4.547-3.134-10.774-1.988-13.908,2.561c-1.717,2.492-3.399,5.052-5,7.61
			c-20.086,32.104-30.826,69.121-31.102,107.142l-36.42,120.12c-0.918,3.03-0.348,6.315,1.538,8.859
			c1.886,2.543,4.866,4.042,8.032,4.042h48.388v62.172c0,32.676,26.583,59.259,59.258,59.259h62.923
			c10.476,0,18.999,8.522,18.999,18.998V492H42.478c-5.523,0-10,4.478-10,10c0,5.522,4.477,10,10,10h427.029c5.523,0,10-4.478,10-10
			C479.507,496.478,475.03,492,469.507,492z M191.217,239.101c-7.72,0-14-6.28-14-14c0-7.72,6.28-14,14-14c7.72,0,14,6.28,14,14
			C205.217,232.821,198.937,239.101,191.217,239.101z M311.153,144.208c0,7.72-6.28,14-14,14s-14-6.28-14-14c0-7.72,6.28-14,14-14
			C304.873,130.208,311.153,136.488,311.153,144.208z M400.082,211.101c7.72,0,14,6.281,14,14c0,7.72-6.28,14-14,14
			c-7.72,0-14-6.28-14-14C386.082,217.381,392.362,211.101,400.082,211.101z M256.185,379.039c-7.72,0-14-6.28-14-14
			c0-7.72,6.28-14,14-14c7.72,0,14,6.28,14,14C270.185,372.759,263.905,379.039,256.185,379.039z"/>
	</g>
</g>
<g>
</g>
<g>
</g>
<g>
</g>
<g>
</g>
<g>
</g>
<g>
</g>
<g>
</g>
<g>
</g>
<g>
</g>
<g>
</g>
<g>
</g>
<g>
</g>
<g>
</g>
<g>
</g>
<g>
</g>
</svg>
