<?xml version="1.0" encoding="iso-8859-1"?>
<!-- Generator: Adobe Illustrator 19.0.0, SVG Export Plug-In . SVG Version: 6.00 Build 0)  -->
<svg version="1.1" id="Layer_1" xmlns="http://www.w3.org/2000/svg" xmlns:xlink="http://www.w3.org/1999/xlink" x="0px" y="0px"
	 viewBox="0 0 512 512" style="enable-background:new 0 0 512 512;" xml:space="preserve">
<g>
	<g>
		<g>
			<path d="M463.663,20.23H48.337C21.683,20.23,0,41.914,0,68.567v275.764c0,26.659,21.683,48.348,48.336,48.348h136.992
				c-1.233,26.663-6.004,52.508-14.226,77.07h-33.468c-6.08,0-11.011,4.93-11.011,11.011c0,6.081,4.931,11.011,11.011,11.011
				h236.731c6.08,0,11.011-4.93,11.011-11.011c0-6.081-4.931-11.011-11.011-11.011h-33.468
				c-8.222-24.564-12.993-50.409-14.226-77.07h136.991c26.654,0,48.337-21.689,48.337-48.348V68.567
				C512,41.914,490.317,20.23,463.663,20.23z M22.021,68.567c0-14.51,11.806-26.316,26.315-26.316h415.326
				c14.511,0,26.316,11.805,26.316,26.316V320.03H22.021V68.567z M194.243,469.75c7.593-24.703,11.997-50.527,13.14-77.07h97.234
				c1.144,26.54,5.548,52.364,13.14,77.07H194.243z M489.98,344.332h-0.001c0,14.517-11.806,26.327-26.316,26.327H48.337
				c-14.51,0-26.315-11.81-26.315-26.327v-2.279H489.98V344.332z"/>
			<path d="M402.818,275.99H165.734c-6.08,0-11.011,4.93-11.011,11.011c0,6.081,4.931,11.011,11.011,11.011h237.085
				c6.08,0,11.011-4.93,11.011-11.011C413.829,280.919,408.899,275.99,402.818,275.99z"/>
			<path d="M110.955,275.99h-1.773c-6.08,0-11.011,4.93-11.011,11.011c0,6.081,4.931,11.011,11.011,11.011h1.772
				c6.08,0,11.011-4.93,11.011-11.011C121.965,280.919,117.036,275.99,110.955,275.99z"/>
			<path d="M320.966,111.318l64.908,55.493l-64.908,55.493c-4.622,3.952-5.165,10.902-1.214,15.524
				c2.178,2.547,5.265,3.856,8.374,3.856c2.531,0,5.075-0.869,7.149-2.641l74.698-63.862c2.448-2.092,3.856-5.15,3.856-8.369
				s-1.407-6.277-3.855-8.369L335.275,94.58c-4.62-3.952-11.572-3.408-15.524,1.215
				C315.799,100.416,316.342,107.366,320.966,111.318z"/>
			<path d="M102.028,175.181l74.697,63.862c2.074,1.774,4.618,2.641,7.149,2.641c3.107,0,6.197-1.308,8.374-3.856
				c3.952-4.622,3.409-11.572-1.214-15.524l-64.907-55.493l64.907-55.493c4.622-3.952,5.165-10.902,1.214-15.524
				c-3.951-4.622-10.902-5.166-15.524-1.215l-74.697,63.862c-2.448,2.092-3.856,5.15-3.856,8.369S99.58,173.089,102.028,175.181z"/>
			<path d="M224.514,263.536c1.132,0.369,2.281,0.544,3.411,0.544c4.639,0,8.954-2.955,10.468-7.605l56.155-172.509
				c1.883-5.782-1.279-11.996-7.061-13.878c-5.784-1.883-11.996,1.279-13.878,7.062L217.454,249.66
				C215.57,255.44,218.732,261.654,224.514,263.536z"/>
		</g>
	</g>
</g>
<g>
</g>
<g>
</g>
<g>
</g>
<g>
</g>
<g>
</g>
<g>
</g>
<g>
</g>
<g>
</g>
<g>
</g>
<g>
</g>
<g>
</g>
<g>
</g>
<g>
</g>
<g>
</g>
<g>
</g>
</svg>
