<?xml version="1.0" encoding="iso-8859-1"?>
<!-- Generator: Adobe Illustrator 19.0.0, SVG Export Plug-In . SVG Version: 6.00 Build 0)  -->
<svg version="1.1" id="Layer_1" xmlns="http://www.w3.org/2000/svg" xmlns:xlink="http://www.w3.org/1999/xlink" x="0px" y="0px"
	 viewBox="0 0 512 512" style="enable-background:new 0 0 512 512;" xml:space="preserve">
<g>
	<g>
		<path d="M474.553,296.69v-42.506c0-4.512-3.657-8.17-8.17-8.17H264.17v-33.588h108.936c4.513,0,8.17-3.658,8.17-8.17v-43.574
			c0-4.512-3.657-8.17-8.17-8.17h-2.723v-16.34h2.723c4.513,0,8.17-3.658,8.17-8.17V84.426c0-4.512-3.657-8.17-8.17-8.17h-2.723
			v-16.34h2.723c4.513,0,8.17-3.658,8.17-8.17V8.17c0-4.512-3.657-8.17-8.17-8.17H138.894c-4.512,0-8.17,3.658-8.17,8.17v43.574
			c0,4.512,3.658,8.17,8.17,8.17h2.723v16.34h-2.723c-4.512,0-8.17,3.658-8.17,8.17V128c0,4.512,3.658,8.17,8.17,8.17h2.723v16.34
			h-2.723c-4.512,0-8.17,3.658-8.17,8.17v43.574c0,4.512,3.658,8.17,8.17,8.17H247.83v33.588H45.617c-4.512,0-8.17,3.658-8.17,8.17
			v42.506C16.181,300.554,0,319.197,0,341.561c0,25.153,20.464,45.617,45.617,45.617c25.153,0,45.617-20.464,45.617-45.617
			c0-22.364-16.181-41.007-37.447-44.87v-34.336h123.915v34.336c-21.265,3.863-37.447,22.506-37.447,44.87
			c0,25.153,20.464,45.617,45.617,45.617c25.153,0,45.617-20.464,45.617-45.617c0-22.364-16.181-41.007-37.447-44.87v-34.336
			h123.915v34.336c-21.265,3.863-37.447,22.506-37.447,44.87c0,25.153,20.464,45.617,45.617,45.617
			c25.153,0,45.617-20.464,45.617-45.617c0-22.364-16.181-41.007-37.447-44.87v-34.336h123.915v34.336
			c-21.265,3.863-37.447,22.506-37.447,44.87c0,25.153,20.464,45.617,45.617,45.617c25.153,0,45.617-20.465,45.617-45.617
			C512,319.197,495.819,300.554,474.553,296.69z M74.894,341.561c0,16.143-13.133,29.277-29.277,29.277
			c-16.143,0-29.277-13.134-29.277-29.277s13.133-29.277,29.277-29.277C61.76,312.284,74.894,325.417,74.894,341.561z
			 M215.149,341.561c0,16.143-13.133,29.277-29.277,29.277s-29.277-13.133-29.277-29.277s13.133-29.277,29.277-29.277
			S215.149,325.417,215.149,341.561z M147.064,16.34h217.872v27.234H147.064V16.34z M354.043,59.915v16.34H157.957v-16.34H354.043z
			 M147.064,92.596h217.872v27.234h-35.404c-4.513,0-8.17,3.658-8.17,8.17s3.657,8.17,8.17,8.17h24.511v16.34H157.957v-16.34
			h138.894c4.513,0,8.17-3.658,8.17-8.17s-3.657-8.17-8.17-8.17H147.064V92.596z M147.064,196.085v-27.234h217.872v27.234H147.064z
			 M355.404,341.561c0,16.143-13.133,29.277-29.277,29.277s-29.277-13.134-29.277-29.277s13.133-29.277,29.277-29.277
			S355.404,325.417,355.404,341.561z M466.383,370.837c-16.143,0-29.277-13.133-29.277-29.277s13.133-29.277,29.277-29.277
			s29.277,13.133,29.277,29.277S482.526,370.837,466.383,370.837z"/>
	</g>
</g>
<g>
	<g>
		<path d="M153.192,420.766h-29.277V286.865c0-4.512-3.658-8.17-8.17-8.17s-8.17,3.658-8.17,8.17v133.901H78.298
			c-4.512,0-8.17,3.658-8.17,8.17v74.894c0,4.512,3.658,8.17,8.17,8.17h74.894c4.512,0,8.17-3.658,8.17-8.17v-74.894
			C161.362,424.424,157.704,420.766,153.192,420.766z M145.021,495.66H86.468v-58.553h58.553V495.66z"/>
	</g>
</g>
<g>
	<g>
		<path d="M293.447,420.766H264.17V286.865c0-4.512-3.657-8.17-8.17-8.17c-4.512,0-8.17,3.658-8.17,8.17v133.901h-29.277
			c-4.512,0-8.17,3.658-8.17,8.17v74.894c0,4.512,3.658,8.17,8.17,8.17h74.894c4.513,0,8.17-3.658,8.17-8.17v-74.894
			C301.617,424.424,297.96,420.766,293.447,420.766z M285.277,495.66h-58.553v-58.553h58.553V495.66z"/>
	</g>
</g>
<g>
	<g>
		<path d="M433.702,420.766h-29.277V286.865c0-4.512-3.657-8.17-8.17-8.17s-8.17,3.658-8.17,8.17v133.901h-29.277
			c-4.513,0-8.17,3.658-8.17,8.17v74.894c0,4.512,3.657,8.17,8.17,8.17h74.894c4.513,0,8.17-3.658,8.17-8.17v-74.894
			C441.872,424.424,438.215,420.766,433.702,420.766z M425.532,495.66h-58.553v-58.553h58.553V495.66z"/>
	</g>
</g>
<g>
</g>
<g>
</g>
<g>
</g>
<g>
</g>
<g>
</g>
<g>
</g>
<g>
</g>
<g>
</g>
<g>
</g>
<g>
</g>
<g>
</g>
<g>
</g>
<g>
</g>
<g>
</g>
<g>
</g>
</svg>
