<svg xmlns="http://www.w3.org/2000/svg" xmlns:xlink="http://www.w3.org/1999/xlink" viewBox="0 0 14.68 14.82"><defs><style>.cls-1{fill:url(#linear-gradient);}.cls-2,.cls-3{fill:none;stroke:#fff;stroke-miterlimit:10;}.cls-2{stroke-width:0.22px;}.cls-3{stroke-width:0.07px;}</style><linearGradient id="linear-gradient" x1="8593.89" y1="-4906.97" x2="8797.09" y2="-4906.97" gradientTransform="matrix(0.07, 0, 0, -0.07, -620.5, -346.89)" gradientUnits="userSpaceOnUse"><stop offset="0" stop-color="#f7db2e"/><stop offset="0.5" stop-color="#82c558"/><stop offset="1" stop-color="#127e7a"/></linearGradient></defs><g id="Layer_2" data-name="Layer 2"><g id="svg57"><g id="g55"><polyline id="polyline13" class="cls-1" points="7.3 0 3.64 1 0.97 3.7 0 7.37 1 11.03 3.67 13.69 7.34 14.82 11.03 13.67 13.69 11 14.67 7.3 13.67 3.63 10.97 0.97 7.3 0"/><g id="g53"><path id="path31" class="cls-2" d="M13.52,11.17c-.43-.12-.86-.26-1.27-.42C11,10.29,10,9.46,8.79,9a20.32,20.32,0,0,0-3.48-.85,5.43,5.43,0,0,0-.81-.1A2.11,2.11,0,0,0,2.79,9.15,6.33,6.33,0,0,1,1,11.07"/><path id="path33" class="cls-3" d="M13.71,10.92c-.48-.14-1-.29-1.43-.47-1.2-.44-2.2-1.2-3.38-1.7a28.8,28.8,0,0,0-3-1.08,2.88,2.88,0,0,0-2.73.87A17.48,17.48,0,0,1,1.69,9.78a8.32,8.32,0,0,1-.87.59"/><path id="path35" class="cls-3" d="M13.78,10.63q-.76-.21-1.53-.48a22.39,22.39,0,0,1-3.2-1.8A8.7,8.7,0,0,0,6.18,7c-1.16-.12-2,.59-2.9,1.16-.62.38-1.24.75-1.87,1.1-.23.11-.5.29-.78.42"/><path id="path37" class="cls-2" d="M13.86,10.37a14.83,14.83,0,0,1-1.64-.5A12.74,12.74,0,0,1,9,7.59c-1-.8-2-1.71-3.35-1.09-.84.37-1.64.79-2.46,1.18s-1.39.66-2.1,1c-.2.09-.44.22-.69.32"/><path id="path39" class="cls-3" d="M13.93,10.09a11.79,11.79,0,0,1-1.84-.55C10.64,8.94,10,7.43,9,6.26c-.75-1-2-.64-2.94-.27L2.66,7.31C2,7.55,1.39,7.8.74,8l-.5.21"/><path id="path41" class="cls-2" d="M14,9.68A7.44,7.44,0,0,1,11.86,9C10.74,8.36,10.3,7,9.63,6a2,2,0,0,0-2.12-.9c-.34.1-.67.22-1,.33L2.35,6.77,0,7.5"/><path id="path43" class="cls-3" d="M14.16,9.22a7.39,7.39,0,0,1-2.43-1.13,20.33,20.33,0,0,1-2.5-2.66A2.57,2.57,0,0,0,6.3,4.92c-1.25.43-2.49.86-3.74,1.32-.72.26-1.43.53-2.14.81l-.37.13"/><path id="path45" class="cls-2" d="M14.38,8.39a14.52,14.52,0,0,1-2.31-1.05A23.24,23.24,0,0,1,9,4.83a2.84,2.84,0,0,0-3.15-.4c-1.14.43-2.22.84-3.32,1.3-.65.27-1.3.55-1.93.86l-.41.2"/><path id="path47" class="cls-2" d="M14.63,7.46C12.78,6.54,11,5.55,9.21,4.51c-1.09-.63-2.14-1.19-3.44-.73-.85.29-1.69.65-2.51,1s-1.45.65-2.13,1a7.35,7.35,0,0,0-.85.51"/><path id="path49" class="cls-3" d="M14.52,6.76c-.84-.52-1.7-1-2.59-1.47s-1.81-.81-2.72-1.2a7.21,7.21,0,0,0-3-.91,6.82,6.82,0,0,0-2.8,1A13.68,13.68,0,0,0,.38,5.94"/><path id="path51" class="cls-2" d="M14.29,5.91a12.66,12.66,0,0,0-2.4-1.52,18.34,18.34,0,0,0-2.58-.83c-.86-.25-1.6-.51-2.41-.72a4.55,4.55,0,0,0-3.26.58A13.62,13.62,0,0,0,.48,5.53"/></g></g></g></g></svg>