<?xml version="1.0" encoding="iso-8859-1"?>
<!-- Generator: Adobe Illustrator 19.0.0, SVG Export Plug-In . SVG Version: 6.00 Build 0)  -->
<svg version="1.1" id="Layer_1" xmlns="http://www.w3.org/2000/svg" xmlns:xlink="http://www.w3.org/1999/xlink" x="0px" y="0px"
	 viewBox="0 0 295.239 295.239" style="enable-background:new 0 0 295.239 295.239;" xml:space="preserve">
<g>
	<g>
		<g>
			<path d="M277.005,104.761c-4.867,0-9.443,1.895-12.89,5.338l-26.019,26.024V75.729c3.038,6.195,4.762,12.971,4.762,19.51h9.524
				c0-16.924,17.067-42.857,38.095-42.857v-9.524c-23.143,0-38.095-14.957-38.095-38.095h-9.524c0,6.838-1.729,13.19-4.762,18.681
				v-9.157C238.096,6.41,231.687,0,223.811,0H14.287C6.41,0,0.001,6.41,0.001,14.286v266.667c0,7.876,6.41,14.286,14.286,14.286
				h209.524c7.876,0,14.286-6.41,14.286-14.286v-93.267l51.8-51.805c3.447-3.438,5.342-8.014,5.342-12.891
				C295.239,112.942,287.063,104.761,277.005,104.761z M247.271,26.567c4.6,10.205,12.6,17.881,23.076,22.114
				c-9.762,5.876-17.51,15.505-22.257,25.586c-4.762-11.271-13.129-20.667-23.262-26.162
				C234.581,43.681,242.472,36.09,247.271,26.567z M228.573,280.952h-0.001c0,2.629-2.138,4.762-4.762,4.762H14.287
				c-2.624,0-4.762-2.133-4.762-4.762V14.286c0-2.629,2.138-4.762,4.762-4.762h209.524c2.624,0,4.762,2.133,4.762,4.762v20.39
				c-6.481,5.129-14.719,8.181-23.81,8.181v9.524c9.19,0,17.386,4.052,23.81,10.219v83.048l-66.667,66.667v-26.6h-33.333v33.333
				h26.6l-1.395,1.395l-0.648,0.648l-19.338,45.124l45.119-19.338l49.662-49.667V280.952z M167.849,241.248l-15.924,6.824
				l6.824-15.924L167.849,241.248z M152.381,195.238v14.286h-14.286v-14.286H152.381z M176.191,236.124l-12.314-12.314
				l83.743-83.743l12.314,12.314L176.191,236.124z M283.162,129.148l-16.495,16.5l-12.314-12.314l16.495-16.495
				c1.648-1.648,3.833-2.552,6.157-2.552c4.805,0,8.71,3.905,8.71,8.705C285.714,125.286,284.786,127.524,283.162,129.148z"/>
			<path d="M61.906,90.476c15.757,0,28.571-12.814,28.571-28.571c0-15.757-12.814-28.572-28.571-28.572
				c-15.757,0-28.572,12.815-28.572,28.572C33.334,77.662,46.149,90.476,61.906,90.476z M61.906,42.857
				c10.505,0,19.048,8.543,19.048,19.048c0,10.505-8.543,19.047-19.048,19.047S42.857,72.41,42.857,61.905
				S51.401,42.857,61.906,42.857z"/>
			<rect x="38.096" y="100" width="38.095" height="9.524"/>
			<path d="M76.191,138.095H42.857v33.333h33.333V138.095z M66.667,161.905H52.381v-14.286h14.286V161.905z"/>
			<path d="M42.857,219.048h33.333v-33.333H42.857V219.048z M52.381,195.238h14.286v14.286H52.381V195.238z"/>
			<path d="M161.904,138.096h-33.333v33.333h33.333V138.096z M152.381,161.905h-14.286v-14.286h14.286V161.905z"/>
			<rect x="123.811" y="47.619" width="66.667" height="9.524"/>
			<rect x="123.811" y="76.19" width="85.714" height="9.524"/>
			<rect x="123.811" y="104.762" width="85.714" height="9.524"/>
			<rect x="85.714" y="142.857" width="23.81" height="9.524"/>
			<rect x="85.714" y="161.905" width="23.81" height="9.524"/>
			<rect x="171.43" y="142.857" width="23.81" height="9.524"/>
			<rect x="171.43" y="161.905" width="23.81" height="9.524"/>
			<rect x="85.714" y="200" width="23.81" height="9.524"/>
			<rect x="42.857" y="238.095" width="85.714" height="9.524"/>
			<rect x="42.857" y="257.143" width="85.714" height="9.524"/>
			<rect x="85.714" y="100" width="9.524" height="9.524"/>
			<rect x="209.524" y="266.667" width="9.524" height="9.524"/>
			<rect x="190.477" y="266.667" width="9.524" height="9.524"/>
			<rect x="19.048" y="266.667" width="9.524" height="9.524"/>
		</g>
	</g>
</g>
<g>
</g>
<g>
</g>
<g>
</g>
<g>
</g>
<g>
</g>
<g>
</g>
<g>
</g>
<g>
</g>
<g>
</g>
<g>
</g>
<g>
</g>
<g>
</g>
<g>
</g>
<g>
</g>
<g>
</g>
</svg>
