<svg xmlns="http://www.w3.org/2000/svg" width="60" height="60" viewBox="0 0 60 60">
  <path id="Icon_awesome-github-square" data-name="Icon awesome-github-square" d="M53.571,2.25H6.429A6.43,6.43,0,0,0,0,8.679V55.821A6.43,6.43,0,0,0,6.429,62.25H53.571A6.43,6.43,0,0,0,60,55.821V8.679A6.43,6.43,0,0,0,53.571,2.25ZM37.138,53.638c-1.125.2-1.54-.5-1.54-1.071,0-.723.027-4.42.027-7.406a5.218,5.218,0,0,0-1.513-4.112c4.955-.549,10.179-1.232,10.179-9.79,0-2.438-.871-3.656-2.29-5.223a8.376,8.376,0,0,0-.228-6.027c-1.862-.576-6.121,2.4-6.121,2.4a21.069,21.069,0,0,0-11.143,0s-4.259-2.973-6.121-2.4a8.311,8.311,0,0,0-.228,6.027,6.726,6.726,0,0,0-2.089,5.223c0,8.518,5,9.241,9.951,9.79a4.854,4.854,0,0,0-1.42,2.987c-1.272.576-4.527,1.567-6.469-1.862a4.666,4.666,0,0,0-3.415-2.29c-2.17-.027-.147,1.366-.147,1.366,1.446.67,2.464,3.241,2.464,3.241,1.3,3.978,7.513,2.638,7.513,2.638,0,1.862.027,4.888.027,5.438,0,.576-.4,1.272-1.54,1.071a22.219,22.219,0,0,1-15.027-21.2,21.254,21.254,0,0,1,21.7-21.629c12.295,0,22.259,9.335,22.259,21.629A22.015,22.015,0,0,1,37.138,53.638ZM24,45.455c-.254.054-.5-.054-.522-.228-.027-.2.147-.375.4-.429.254-.027.5.08.522.254S24.268,45.4,24,45.455Zm-1.272-.121c0,.174-.2.321-.469.321-.295.027-.5-.121-.5-.321,0-.174.2-.321.469-.321C22.487,44.987,22.728,45.134,22.728,45.335Zm-1.835-.147c-.054.174-.321.254-.549.174-.254-.054-.429-.254-.375-.429s.321-.254.549-.2C20.786,44.812,20.96,45.013,20.893,45.188Zm-1.647-.723c-.121.147-.375.121-.576-.08-.2-.174-.254-.429-.121-.549.121-.147.375-.121.576.08C19.3,44.089,19.366,44.357,19.246,44.464Zm-1.219-1.219c-.121.08-.348,0-.5-.2s-.147-.429,0-.522c.147-.121.375-.027.5.174a.392.392,0,0,1,0,.549Zm-.871-1.3c-.121.121-.321.054-.469-.08-.147-.174-.174-.375-.054-.469.121-.121.321-.054.469.08C17.25,41.652,17.277,41.853,17.156,41.946Zm-.9-.991a.252.252,0,0,1-.375.054c-.174-.08-.254-.228-.2-.348a.315.315,0,0,1,.375-.054C16.232,40.7,16.312,40.848,16.259,40.955Z" transform="translate(0 -2.25)" fill="#fff"/>
</svg>
