<svg xmlns="http://www.w3.org/2000/svg" width="114.398" height="111.54" viewBox="0 0 114.398 111.54">
  <path id="Icon_awesome-github" data-name="Icon awesome-github" d="M38.263,90.28c0,.461-.53.83-1.2.83-.761.069-1.292-.3-1.292-.83,0-.461.53-.83,1.2-.83C37.664,89.381,38.263,89.75,38.263,90.28ZM31.09,89.242c-.161.461.3.992.992,1.13a1.082,1.082,0,0,0,1.43-.461c.138-.461-.3-.992-.992-1.2A1.184,1.184,0,0,0,31.09,89.242Zm10.194-.392c-.669.161-1.13.6-1.061,1.13.069.461.669.761,1.361.6.669-.161,1.13-.6,1.061-1.061C42.576,89.081,41.954,88.781,41.285,88.85ZM56.461.469C24.471.469,0,24.755,0,56.745a57.824,57.824,0,0,0,39.094,55.169c2.952.53,3.99-1.292,3.99-2.791,0-1.43-.069-9.318-.069-14.161,0,0-16.145,3.46-19.535-6.873,0,0-2.629-6.712-6.412-8.441,0,0-5.282-3.621.369-3.552a12.175,12.175,0,0,1,8.9,5.951c5.051,8.9,13.516,6.343,16.814,4.82a12.819,12.819,0,0,1,3.69-7.773c-12.893-1.43-25.9-3.3-25.9-25.486,0-6.343,1.753-9.525,5.443-13.585-.6-1.5-2.56-7.68.6-15.661,4.82-1.5,15.914,6.227,15.914,6.227a54.487,54.487,0,0,1,28.969,0s11.094-7.75,15.914-6.227c3.16,8,1.2,14.161.6,15.661,3.69,4.082,5.951,7.265,5.951,13.585,0,22.257-13.585,24.033-26.478,25.486,2.122,1.822,3.921,5.282,3.921,10.7,0,7.773-.069,17.39-.069,19.282,0,1.5,1.061,3.321,3.99,2.791,23.064-7.657,38.7-29.545,38.7-55.123C114.4,24.755,88.451.469,56.461.469ZM22.418,80.017c-.3.231-.231.761.161,1.2.369.369.9.53,1.2.231.3-.231.231-.761-.161-1.2C23.249,79.878,22.718,79.717,22.418,80.017Zm-2.491-1.868c-.161.3.069.669.53.9a.686.686,0,0,0,.992-.161c.161-.3-.069-.669-.53-.9C20.458,77.849,20.089,77.918,19.927,78.149ZM27.4,86.359c-.369.3-.231.992.3,1.43.53.53,1.2.6,1.5.231.3-.3.161-.992-.3-1.43C28.392,86.06,27.7,85.99,27.4,86.359Zm-2.629-3.39c-.369.231-.369.83,0,1.361s.992.761,1.292.53a1.052,1.052,0,0,0,0-1.43C25.74,82.9,25.14,82.669,24.771,82.969Z" transform="translate(0 -0.469)" fill="#fff"/>
</svg>
