<?xml version="1.0" encoding="iso-8859-1"?>
<!-- Generator: Adobe Illustrator 19.0.0, SVG Export Plug-In . SVG Version: 6.00 Build 0)  -->
<svg version="1.1" id="Capa_1" xmlns="http://www.w3.org/2000/svg" xmlns:xlink="http://www.w3.org/1999/xlink" x="0px" y="0px"
	 viewBox="0 0 294.843 294.843" style="enable-background:new 0 0 294.843 294.843;" xml:space="preserve">
<g>
	<path d="M288.842,0c-3.313,0-6,2.687-6,6v45.992H29.421c-3.313,0-6,2.687-6,6s2.687,6,6,6h253.421v218.851h-66.254V96.421
		c0-3.313-2.687-6-6-6s-6,2.687-6,6v186.421H12V12h239.421c3.313,0,6-2.687,6-6s-2.687-6-6-6H6C2.687,0,0,2.687,0,6v282.843
		c0,3.313,2.687,6,6,6h282.842c3.313,0,6-2.687,6-6V6C294.842,2.687,292.156,0,288.842,0z"/>
	<path d="M227.504,102.957h44c3.313,0,6-2.687,6-6s-2.687-6-6-6h-44c-3.313,0-6,2.687-6,6S224.191,102.957,227.504,102.957z"/>
	<path d="M227.504,163.957h44c3.313,0,6-2.687,6-6s-2.687-6-6-6h-44c-3.313,0-6,2.687-6,6S224.191,163.957,227.504,163.957z"/>
	<path d="M227.504,133.457h44c3.313,0,6-2.687,6-6s-2.687-6-6-6h-44c-3.313,0-6,2.687-6,6S224.191,133.457,227.504,133.457z"/>
	<path d="M227.504,194.457h44c3.313,0,6-2.687,6-6s-2.687-6-6-6h-44c-3.313,0-6,2.687-6,6S224.191,194.457,227.504,194.457z"/>
	<path d="M227.504,255.457h44c3.313,0,6-2.687,6-6s-2.687-6-6-6h-44c-3.313,0-6,2.687-6,6S224.191,255.457,227.504,255.457z"/>
	<path d="M227.504,224.957h44c3.313,0,6-2.687,6-6s-2.687-6-6-6h-44c-3.313,0-6,2.687-6,6S224.191,224.957,227.504,224.957z"/>
	<path d="M27.681,27.751c-1.11,1.12-1.75,2.66-1.75,4.25c0,1.58,0.64,3.12,1.75,4.24c1.12,1.11,2.66,1.76,4.25,1.76
		c1.57,0,3.12-0.65,4.24-1.76c1.109-1.12,1.76-2.66,1.76-4.24c0-1.59-0.65-3.13-1.76-4.25c-1.12-1.11-2.66-1.75-4.24-1.75
		C30.341,26.001,28.801,26.641,27.681,27.751z"/>
	<path d="M47.681,27.751c-1.12,1.12-1.76,2.67-1.76,4.24c0,1.58,0.64,3.13,1.76,4.25c1.11,1.11,2.66,1.75,4.24,1.75
		s3.13-0.64,4.24-1.75c1.119-1.12,1.76-2.67,1.76-4.25c0-1.57-0.641-3.12-1.76-4.24c-1.12-1.12-2.66-1.76-4.24-1.76
		S48.801,26.631,47.681,27.751z"/>
	<path d="M67.671,27.751c-1.11,1.12-1.76,2.67-1.76,4.25c0,1.58,0.649,3.12,1.76,4.24c1.12,1.12,2.67,1.76,4.25,1.76
		c1.569,0,3.12-0.64,4.24-1.76c1.119-1.12,1.76-2.67,1.76-4.24c0-1.58-0.641-3.13-1.76-4.25c-1.12-1.11-2.671-1.76-4.24-1.76
		C70.341,25.991,68.792,26.641,67.671,27.751z"/>
</g>
<g>
</g>
<g>
</g>
<g>
</g>
<g>
</g>
<g>
</g>
<g>
</g>
<g>
</g>
<g>
</g>
<g>
</g>
<g>
</g>
<g>
</g>
<g>
</g>
<g>
</g>
<g>
</g>
<g>
</g>
</svg>
