<svg id="Calque_1" data-name="Calque 1" xmlns="http://www.w3.org/2000/svg" viewBox="0 0 609.99 264"><defs><style>.cls-1{fill:red;}</style></defs><title>Plan de travail 1</title><polygon class="cls-1" points="61.23 118.9 91.8 118.9 91.8 87.34 163.76 87.34 163.76 61.13 61.23 61.13 61.23 118.9"/><polygon class="cls-1" points="61.23 202.87 163.76 202.87 163.76 176.66 91.8 176.66 91.8 145.1 61.23 145.1 61.23 202.87"/><rect class="cls-1" x="91.8" y="118.9" width="65.81" height="26.2"/><path class="cls-1" d="M291.1,74.15a42.7,42.7,0,0,0-15.19-9.44q-9.33-3.57-22.63-3.57H190V202.87h30.57V145.1h32.75q13.29,0,22.63-3.58a42.56,42.56,0,0,0,15.19-9.44,35.71,35.71,0,0,0,8.53-13.47,46.39,46.39,0,0,0,0-31.08A35.85,35.85,0,0,0,291.1,74.15Zm-21.24,37.08A15,15,0,0,1,263.8,116a29.74,29.74,0,0,1-8.73,2.29,88.21,88.21,0,0,1-10.33.59H220.53V87.34h24.21a88.21,88.21,0,0,1,10.33.59,30.05,30.05,0,0,1,8.73,2.29A15.12,15.12,0,0,1,269.86,95a13.37,13.37,0,0,1,2.28,8.11A13.35,13.35,0,0,1,269.86,111.23Z"/><polygon class="cls-1" points="476.99 176.66 476.99 61.13 446.43 61.13 446.43 202.87 548.95 202.87 548.95 176.66 476.99 176.66"/><polygon class="cls-1" points="321.76 118.9 352.33 118.9 352.33 87.34 424.29 87.34 424.29 61.13 321.76 61.13 321.76 118.9"/><rect class="cls-1" x="321.76" y="145.1" width="30.57" height="57.76"/><rect class="cls-1" x="352.33" y="118.9" width="65.81" height="26.2"/></svg>