<?xml version="1.0" encoding="iso-8859-1"?>
<!-- Generator: Adobe Illustrator 19.0.0, SVG Export Plug-In . SVG Version: 6.00 Build 0)  -->
<svg version="1.1" id="Capa_1" xmlns="http://www.w3.org/2000/svg" xmlns:xlink="http://www.w3.org/1999/xlink" x="0px" y="0px"
	 viewBox="0 0 496 496" style="enable-background:new 0 0 496 496;" xml:space="preserve">
<g>
	<g>
		<rect x="192" y="40" width="112" height="16"/>
	</g>
</g>
<g>
	<g>
		<rect x="192" y="72" width="112" height="16"/>
	</g>
</g>
<g>
	<g>
		<rect x="192" y="104" width="112" height="16"/>
	</g>
</g>
<g>
	<g>
		<rect x="192" y="136" width="112" height="16"/>
	</g>
</g>
<g>
	<g>
		<path d="M448,376.64V344c0-4.424-3.576-8-8-8H256v-32h48c3.032,0,5.8-1.712,7.16-4.424l32-64c1.24-2.48,1.112-5.424-0.352-7.784
			S338.776,224,336,224h-80v-40h72c4.424,0,8-3.576,8-8V88h24v24c0,4.424,3.576,8,8,8h96c4.424,0,8-3.576,8-8V48
			c0-4.424-3.576-8-8-8h-96c-4.424,0-8,3.576-8,8v24h-24V16c0-4.424-3.576-8-8-8H168c-4.424,0-8,3.576-8,8v44.688l-18.344-18.344
			l-11.312,11.312L148.688,72H72v16h76.688l-18.344,18.344l11.312,11.312L160,99.312V176c0,4.424,3.576,8,8,8h72v40h-48
			c-3.032,0-5.8,1.712-7.16,4.424l-32,64c-1.24,2.48-1.112,5.424,0.352,7.784S157.224,304,160,304h80v32H56c-4.424,0-8,3.576-8,8
			v32.64C20.912,380.544,0,403.848,0,432c0,30.872,25.128,56,56,56s56-25.128,56-56c0-28.152-20.912-51.456-48-55.36V352h112v24.64
			c-27.088,3.904-48,27.208-48,55.36c0,30.872,25.128,56,56,56s56-25.128,56-56c0-28.152-20.912-51.456-48-55.36V352h112v24.64
			c-27.088,3.904-48,27.208-48,55.36c0,30.872,25.128,56,56,56s56-25.128,56-56c0-28.152-20.912-51.456-48-55.36V352h112v24.64
			c-27.088,3.904-48,27.208-48,55.36c0,30.872,25.128,56,56,56s56-25.128,56-56C496,403.848,475.088,380.544,448,376.64z M376,56h80
			v48h-80V56z M96,432c0,22.056-17.944,40-40,40c-22.056,0-40-17.944-40-40c0-22.056,17.944-40,40-40C78.056,392,96,409.944,96,432z
			 M224,432c0,22.056-17.944,40-40,40c-22.056,0-40-17.944-40-40c0-22.056,17.944-40,40-40C206.056,392,224,409.944,224,432z
			 M176,168V24h144v144H176z M172.944,288l24-48h126.112l-24,48H172.944z M352,432c0,22.056-17.944,40-40,40
			c-22.056,0-40-17.944-40-40c0-22.056,17.944-40,40-40C334.056,392,352,409.944,352,432z M440,472c-22.056,0-40-17.944-40-40
			c0-22.056,17.944-40,40-40c22.056,0,40,17.944,40,40C480,454.056,462.056,472,440,472z"/>
	</g>
</g>
<g>
	<g>
		<rect x="408" y="136" width="16" height="16"/>
	</g>
</g>
<g>
	<g>
		<rect x="408" y="168" width="16" height="16"/>
	</g>
</g>
<g>
	<g>
		<rect x="408" y="200" width="16" height="16"/>
	</g>
</g>
<g>
	<g>
		<rect x="408" y="232" width="16" height="16"/>
	</g>
</g>
<g>
	<g>
		<rect x="408" y="264" width="16" height="16"/>
	</g>
</g>
<g>
	<g>
		<rect x="376" y="264" width="16" height="16"/>
	</g>
</g>
<g>
	<g>
		<rect x="344" y="264" width="16" height="16"/>
	</g>
</g>
<g>
	<g>
		<rect x="40" y="72" width="16" height="16"/>
	</g>
</g>
<g>
	<g>
		<rect x="8" y="72" width="16" height="16"/>
	</g>
</g>
<g>
	<g>
		<rect x="208" y="256" width="80" height="16"/>
	</g>
</g>
<g>
</g>
<g>
</g>
<g>
</g>
<g>
</g>
<g>
</g>
<g>
</g>
<g>
</g>
<g>
</g>
<g>
</g>
<g>
</g>
<g>
</g>
<g>
</g>
<g>
</g>
<g>
</g>
<g>
</g>
</svg>
