<svg xmlns="http://www.w3.org/2000/svg" width="25" height="21.875" viewBox="0 0 25 21.875">
  <path id="Icon_awesome-connectdevelop" data-name="Icon awesome-connectdevelop" d="M25.266,11.191,22.984,7.236a.733.733,0,0,0,.085-.33.7.7,0,0,0-.671-.684l-2.527-4.37a.712.712,0,0,0,.049-.22.694.694,0,0,0-1.233-.439H13.828a.666.666,0,0,0-1.05,0H7.945a.694.694,0,0,0-1.233.439.642.642,0,0,0,.049.22L4.209,6.284a.682.682,0,0,0-.415.623c0,.024.012.049.012.073l-2.429,4.2a.694.694,0,0,0-.574.684.7.7,0,0,0,.549.684l2.515,4.346a.638.638,0,0,0-.037.22.681.681,0,0,0,.549.671l2.356,4.089a.789.789,0,0,0-.049.244.7.7,0,0,0,.7.7.674.674,0,0,0,.525-.244h4.871a.686.686,0,0,0,1.05,0h4.883a.682.682,0,0,0,.5.22.7.7,0,0,0,.7-.7.506.506,0,0,0-.037-.2l2.356-4.114a.681.681,0,0,0,.549-.671.691.691,0,0,0-.037-.22l2.5-4.346a.7.7,0,0,0,.562-.684A.683.683,0,0,0,25.266,11.191ZM7.176,20.749l-1.99-3.455h1.99Zm0-3.821H5.186a.75.75,0,0,0-.061-.146l2.051-2.161Zm0-2.844L4.881,16.514A1.141,1.141,0,0,0,4.7,16.44L2.159,12.046a.475.475,0,0,0,.024-.183.645.645,0,0,0-.012-.159L4.539,7.6a.769.769,0,0,0,.354-.122L7.176,9.849v4.236Zm0-4.663L5.088,7.261a.667.667,0,0,0,.1-.354c0-.012-.012-.037-.012-.049l2-.72Zm0-3.674-1.99.72,1.99-3.442Zm14.88,1.782.037.061-1.611,7.617-2.905-3.064,4.468-4.626Zm-8.582,8.862.525.537H12.962Zm-.012-.513-3.8-3.894L13.291,8.14l3.784,3.992Zm.244.269L17.32,12.4,20.4,15.647l-.269,1.282H14.475ZM18.882,2.231a.612.612,0,0,0,.159.061l2.637,4.59v.024a.667.667,0,0,0,.1.354l-4.443,4.614L13.548,7.883Zm-.415-.1L13.291,7.615l-2.6-2.747,7.581-2.734Zm-5.627,0a.649.649,0,0,0,.928,0h3.418L10.423,4.575,8.1,2.134Zm-5.3.256.049-.1q.062-.016.122-.037l2.332,2.454-2.5.9ZM7.542,6l2.771-1,2.722,2.881L9.409,11.716,7.542,9.8Zm0,4.224L9.2,11.948l-1.66,1.746Zm0,4L9.458,12.2l3.772,3.918-.781.806H7.542Zm.317,7.385a.656.656,0,0,0-.269-.159l-.049-.073V17.295h4.553L7.92,21.616Zm5.92,0a.678.678,0,0,0-.952,0H8.433l4.175-4.321h1.746l4.175,4.321Zm5.469-.537-.2.342a.613.613,0,0,0-.159.061l-4.065-4.187h5.212Zm.586-1.013.586-2.771h1Zm1.587-3.137h-.928l.207-.964.781.83A.451.451,0,0,0,21.421,16.929Zm3.015-4.9L21.909,16.44a1.231,1.231,0,0,0-.183.085l-.94-1,1.575-7.471,2.087,3.613a.928.928,0,0,0-.037.2A.824.824,0,0,0,24.436,12.034Z" transform="translate(-0.803 -0.937)" fill="#f058ea"/>
</svg>
