<svg xmlns="http://www.w3.org/2000/svg" width="23" height="23" viewBox="0 0 23 23">
  <path id="Icon_awesome-python" data-name="Icon awesome-python" d="M22.578,10.525c-.4-1.586-1.145-2.783-2.741-2.783H17.778v2.433a3.521,3.521,0,0,1-3.429,3.481H8.866a2.8,2.8,0,0,0-2.741,2.788v5.226c0,1.489,1.294,2.362,2.741,2.788a9.225,9.225,0,0,0,5.483,0c1.381-.4,2.741-1.206,2.741-2.788V19.581H11.613v-.7h8.224c1.6,0,2.187-1.114,2.741-2.782A9.389,9.389,0,0,0,22.578,10.525ZM14.693,20.973a1.045,1.045,0,1,1-1.032,1.042A1.037,1.037,0,0,1,14.693,20.973Zm-6.078-8H14.1a2.764,2.764,0,0,0,2.741-2.788V4.95A3.065,3.065,0,0,0,14.1,2.1,16.922,16.922,0,0,0,8.614,2.1c-2.32.411-2.741,1.268-2.741,2.854V7.045h5.488v.7H3.814A3.427,3.427,0,0,0,.385,10.525a10.282,10.282,0,0,0,0,5.575C.775,17.723,1.7,18.883,3.3,18.883H5.185V16.378A3.486,3.486,0,0,1,8.614,12.969ZM8.27,5.648A1.045,1.045,0,1,1,9.3,4.606,1.037,1.037,0,0,1,8.27,5.648Z" transform="translate(0 -1.875)" fill="000"/>
</svg>
