<svg id="Calque_1" data-name="Calque 1" xmlns="http://www.w3.org/2000/svg" viewBox="0 0 133.1 88.63"><defs><style>.cls-1{fill:#e10e17;}.cls-2{fill:#1d1e1c;}</style></defs><title>EPFL-logo-55mm-CMJN</title><path class="cls-1" d="M51.49,48.19s-7.11-9.8,0-24H24.14v24Z"/><path class="cls-1" d="M84.5,48.2a20.68,20.68,0,0,1-3.37-10.91l0-13.13h27.8l0,24Z"/><path class="cls-2" d="M57.22,24.16S54.08,29.64,54,34.8h2.9v2.49h-3a20.59,20.59,0,0,0,3.38,10.9H54.29s-7.12-9.8,0-24Z"/><path class="cls-2" d="M68.22,48.2H71V37.29h3V34.8H71c.12-5.15,3.26-10.64,3.26-10.64H71.36a28.14,28.14,0,0,0-3.16,12Z"/><path class="cls-2" d="M78.31,37.29A20.68,20.68,0,0,0,81.68,48.2H78.75a21,21,0,0,1-3.15-12v-12h2.69Z"/><rect class="cls-2" x="59.03" y="24.16" width="2.73" height="24.04"/><path class="cls-2" d="M65.43,24.16h-2.9s4.57,6,0,12h2.9A10.54,10.54,0,0,0,65.43,24.16Z"/><path class="cls-2" d="M26.38,51.45c0,.06,0,.07,0,.07a1.05,1.05,0,0,0-.19,0,4.35,4.35,0,0,0-1,.27l-.1,0a0,0,0,0,1,0,0s0,0,0,0c.23-.16.83-.52.87-.55a.5.5,0,0,1,.18-.08s0,0,.07.06S26.31,51.32,26.38,51.45Zm-1.86,2.73c0-1,0-1.18,0-1.39s-.07-.32-.28-.36a.75.75,0,0,0-.21,0s-.06,0-.06,0,0,0,.11,0l.72,0h1.47l.27,0,.09,0s0,0,0,0,0,.13-.06.31,0,.34,0,.42,0,.07,0,.07-.05,0-.05-.08a.8.8,0,0,0,0-.24c-.05-.1-.11-.17-.46-.21-.11,0-.8,0-.87,0s0,0,0,.06V54.4s0,.06,0,.06h1c.16,0,.25,0,.3-.09s.07-.08.1-.08,0,0,0,0,0,.14-.05.36,0,.36,0,.4,0,.13,0,.13,0,0,0-.06a.53.53,0,0,0,0-.21c0-.09-.08-.2-.33-.22s-.81,0-.92,0,0,0,0,.05v.56c0,.22,0,1,0,1.1,0,.44.11.52.74.52a1.79,1.79,0,0,0,.61-.07c.17-.07.25-.2.29-.46,0-.07,0-.1.06-.1s0,.05,0,.1-.05.49-.08.62-.1.17-.35.17c-1,0-1.4,0-1.58,0l-.63,0c-.07,0-.1,0-.1-.06s0,0,.05,0l.19,0c.13,0,.16-.16.19-.35s0-.77,0-1.39Z"/><path class="cls-2" d="M28.47,56.55a2.44,2.44,0,0,1-.78-1.89,2.56,2.56,0,0,1,.72-1.75,2.6,2.6,0,0,1,1.95-.68,5.23,5.23,0,0,1,.93.08,5.91,5.91,0,0,0,.65.09c.07,0,.09,0,.09.07s0,.13,0,.36,0,.56,0,.66,0,.14-.06.14-.05-.05-.05-.14a.9.9,0,0,0-.27-.65,2.16,2.16,0,0,0-1.28-.37,1.93,1.93,0,0,0-1.47.47,2.14,2.14,0,0,0-.58,1.67A2.31,2.31,0,0,0,30.58,57a1.43,1.43,0,0,0,1.11-.32,1.16,1.16,0,0,0,.24-.54c0-.07,0-.09.06-.09s.05,0,.05.09a7.37,7.37,0,0,1-.14.82c0,.12,0,.14-.17.19a3.73,3.73,0,0,1-1.15.15A2.92,2.92,0,0,1,28.47,56.55Z"/><path class="cls-2" d="M33.45,54.55a1.84,1.84,0,0,1,1.87-2.1,2.08,2.08,0,0,1,2,2.36c0,1.86-1.19,2.19-1.77,2.19A2.18,2.18,0,0,1,33.45,54.55Zm-.6.18a2.4,2.4,0,0,0,2.48,2.52,2.51,2.51,0,0,0,2.55-2.62,2.33,2.33,0,0,0-2.51-2.4A2.48,2.48,0,0,0,32.85,54.73Z"/><path class="cls-2" d="M40,55.31c0,.94,0,1.35.14,1.47s.27.15.77.15c.34,0,.62,0,.77-.2a.93.93,0,0,0,.17-.38c0-.05,0-.08,0-.08s0,0,0,.09a4,4,0,0,1-.09.64c0,.15-.07.18-.41.18-.92,0-1.34,0-1.71,0l-.63,0c-.07,0-.1,0-.1-.06s0,0,.05,0l.19,0c.13,0,.16-.16.19-.35s0-.77,0-1.39V54.18c0-1,0-1.18,0-1.39s-.07-.32-.28-.36a.78.78,0,0,0-.22,0s-.05,0-.05,0,0,0,.11,0l.72,0,.69,0c.07,0,.1,0,.1,0s0,0-.05,0a.9.9,0,0,0-.21,0c-.19,0-.24.14-.25.36s0,.39,0,1.39Z"/><path class="cls-2" d="M43.22,54.18c0-1,0-1.18,0-1.39s-.06-.32-.27-.36a.78.78,0,0,0-.22,0s-.05,0-.05,0,0,0,.1,0l.73,0H45l.28,0a.24.24,0,0,1,.09,0s0,0,0,0,0,.13-.05.31,0,.34,0,.42,0,.07,0,.07-.05,0-.05-.08a.57.57,0,0,0,0-.24c0-.1-.1-.17-.45-.21-.11,0-.81,0-.88,0s0,0,0,.06V54.4s0,.06,0,.06h1a.44.44,0,0,0,.3-.09s.07-.08.1-.08,0,0,0,0,0,.14-.05.36,0,.36,0,.4,0,.13,0,.13a.06.06,0,0,1,0-.06.78.78,0,0,0,0-.21c0-.09-.09-.2-.34-.22s-.8,0-.91,0a0,0,0,0,0,0,.05V56.4c0,.44.12.52.75.52a1.82,1.82,0,0,0,.61-.07c.17-.07.24-.2.29-.46,0-.07,0-.1.06-.1s0,.05,0,.1-.06.49-.09.62-.09.17-.34.17c-1,0-1.4,0-1.58,0l-.63,0c-.07,0-.1,0-.1-.06s0,0,.05,0L43,57c.13,0,.16-.16.19-.35s0-.77,0-1.39Z"/><path class="cls-2" d="M49.2,54.18c0-1,0-1.18,0-1.39s-.07-.32-.28-.36a.75.75,0,0,0-.21,0s-.06,0-.06,0,0,0,.11,0l.72,0,.81,0a1.61,1.61,0,0,1,1.19.36,1.14,1.14,0,0,1,.32.76A1.49,1.49,0,0,1,50.21,55h-.13s-.07,0-.07,0,0-.06.17-.06a1.07,1.07,0,0,0,1.11-1,1.36,1.36,0,0,0-.36-1,1.14,1.14,0,0,0-.88-.32.64.64,0,0,0-.27,0s-.05.06-.05.12V55.3c0,.62,0,1.12,0,1.39s.05.32.25.35l.29,0s.05,0,.05,0,0,.06-.11.06l-.78,0-.62,0c-.07,0-.1,0-.1-.06s0,0,0,0L49,57c.13,0,.16-.16.19-.35s0-.77,0-1.39Z"/><path class="cls-2" d="M53.19,54.55a1.84,1.84,0,0,1,1.87-2.1c1,0,1.94.82,1.94,2.36C57,56.67,55.81,57,55.23,57A2.18,2.18,0,0,1,53.19,54.55Zm-.61.18a2.4,2.4,0,0,0,2.48,2.52,2.52,2.52,0,0,0,2.56-2.62,2.34,2.34,0,0,0-2.52-2.4A2.48,2.48,0,0,0,52.58,54.73Z"/><path class="cls-2" d="M59.57,55.31c0,.94,0,1.35.14,1.47s.27.15.77.15c.34,0,.62,0,.78-.2a.91.91,0,0,0,.16-.38c0-.05,0-.08.06-.08s0,0,0,.09a4.24,4.24,0,0,1-.1.64c0,.15-.06.18-.4.18-.92,0-1.34,0-1.72,0l-.62,0c-.07,0-.11,0-.11-.06s0,0,.06,0l.19,0c.13,0,.16-.16.18-.35a12.43,12.43,0,0,0,0-1.39V54.18c0-1,0-1.18,0-1.39s-.06-.32-.27-.36a.78.78,0,0,0-.22,0s-.05,0-.05,0,0,0,.1,0l.72,0,.7,0c.07,0,.1,0,.1,0s0,0-.05,0a.94.94,0,0,0-.22,0c-.18,0-.23.14-.24.36s0,.39,0,1.39Z"/><path class="cls-2" d="M63.41,55.5a1.35,1.35,0,0,0-.15-.67c0-.1-.9-1.51-1.13-1.85a2.05,2.05,0,0,0-.43-.47.68.68,0,0,0-.28-.1s-.06,0-.06,0,0,0,.08,0l.63,0,.54,0c.07,0,.09,0,.09,0s0,0-.1.06a.14.14,0,0,0-.08.12.59.59,0,0,0,.08.25c.1.18,1.06,1.83,1.18,2,.12-.27.93-1.67,1.06-1.88A.7.7,0,0,0,65,52.6c0-.09,0-.16-.1-.18s-.1,0-.1-.06,0,0,.1,0l.42,0,.62,0s.09,0,.09,0,0,0-.09,0a.53.53,0,0,0-.29.09,1.1,1.1,0,0,0-.34.32,19.62,19.62,0,0,0-1.22,2,1.48,1.48,0,0,0-.1.64v.55c0,.1,0,.37,0,.64s.07.32.27.35l.28,0s0,0,0,0,0,.06-.1.06l-.79,0-.62,0c-.07,0-.1,0-.1-.06s0,0,0,0l.19,0c.13,0,.18-.16.2-.35s0-.54,0-.64Z"/><path class="cls-2" d="M68.37,55.3c0,.62,0,1.12,0,1.39s.06.32.25.35l.29,0s0,0,0,0,0,.06-.1.06l-.79,0-.62,0c-.08,0-.11,0-.11-.06s0,0,0,0l.2,0c.12,0,.16-.16.18-.35s0-.77,0-1.39V52.59l-.94,0c-.4,0-.55,0-.66.2a.58.58,0,0,0-.1.2c0,.05,0,.06-.07.06s0,0,0,0,.13-.62.14-.67,0-.12.06-.12a1.77,1.77,0,0,0,.29.08l.5,0h2.4a2.78,2.78,0,0,0,.63-.07s0,0,0,.08,0,.63,0,.7,0,.09,0,.09,0,0,0-.11V53c0-.19-.17-.34-.78-.35l-.81,0Z"/><path class="cls-2" d="M71.43,54.18c0-1,0-1.18,0-1.39s-.07-.32-.28-.36a.78.78,0,0,0-.22,0s0,0,0,0,0,0,.11,0l.72,0h1.46l.28,0,.09,0s0,0,0,0,0,.13,0,.31,0,.34,0,.42,0,.07,0,.07-.06,0-.06-.08a.75.75,0,0,0,0-.24c0-.1-.11-.17-.46-.21-.11,0-.8,0-.87,0s0,0,0,.06V54.4s0,.06,0,.06h1c.16,0,.25,0,.3-.09s.07-.08.1-.08,0,0,0,0,0,.14,0,.36,0,.36,0,.4,0,.13,0,.13a.06.06,0,0,1,0-.06.78.78,0,0,0,0-.21c0-.09-.08-.2-.33-.22s-.81,0-.92,0,0,0,0,.05v.56c0,.22,0,1,0,1.1,0,.44.11.52.74.52a1.79,1.79,0,0,0,.61-.07c.17-.07.25-.2.29-.46,0-.07,0-.1.06-.1s0,.05,0,.1,0,.49-.08.62-.1.17-.35.17c-1,0-1.4,0-1.58,0l-.63,0c-.07,0-.1,0-.1-.06s0,0,0,0l.19,0c.13,0,.16-.16.19-.35s0-.77,0-1.39Z"/><path class="cls-2" d="M75.38,56.55a2.44,2.44,0,0,1-.78-1.89,2.56,2.56,0,0,1,.72-1.75,2.6,2.6,0,0,1,2-.68,5.31,5.31,0,0,1,.93.08,5.91,5.91,0,0,0,.65.09c.07,0,.08,0,.08.07s0,.13,0,.36,0,.56,0,.66,0,.14,0,.14,0-.05,0-.14a.9.9,0,0,0-.27-.65,2.16,2.16,0,0,0-1.28-.37,2,2,0,0,0-1.48.47,2.17,2.17,0,0,0-.57,1.67A2.31,2.31,0,0,0,77.49,57a1.43,1.43,0,0,0,1.11-.32,1.16,1.16,0,0,0,.24-.54c0-.07,0-.09.06-.09s0,0,0,.09a7.37,7.37,0,0,1-.14.82c0,.12,0,.14-.17.19a3.77,3.77,0,0,1-1.15.15A2.92,2.92,0,0,1,75.38,56.55Z"/><path class="cls-2" d="M84.35,55.3c0,.62,0,1.12,0,1.39s.06.32.25.35l.29,0s0,0,0,0,0,.06-.1.06l-.79,0-.63,0c-.07,0-.1,0-.1-.06s0,0,.05,0l.2,0c.12,0,.15-.16.18-.35s0-.77,0-1.39v-.67a0,0,0,0,0,0,0H81.06a0,0,0,0,0,0,0v.67c0,.62,0,1.12,0,1.39s.06.32.25.35l.29,0s0,0,0,0,0,.06-.1.06l-.79,0-.62,0c-.07,0-.11,0-.11-.06s0,0,0,0l.2,0c.13,0,.16-.16.18-.35s0-.77,0-1.39V54.18c0-1,0-1.18,0-1.39s-.06-.32-.27-.36a.78.78,0,0,0-.22,0s0,0,0,0,0,0,.1,0l.72,0,.63,0c.07,0,.1,0,.1,0s0,0,0,0a.56.56,0,0,0-.16,0c-.17,0-.22.14-.24.36s0,.39,0,1.39v.13a0,0,0,0,0,0,0h2.71a0,0,0,0,0,0,0v-.13c0-1,0-1.18,0-1.39s-.07-.32-.28-.36a.75.75,0,0,0-.21,0s-.06,0-.06,0,0,0,.11,0l.72,0,.63,0c.07,0,.1,0,.1,0s0,0,0,0l-.16,0c-.17,0-.23.14-.24.36s0,.39,0,1.39Z"/><path class="cls-2" d="M86.8,56.29c0,.52.07.69.25.74a1.52,1.52,0,0,0,.32,0s0,0,0,0,0,.06-.11.06c-.37,0-.62,0-.68,0l-.62,0c-.06,0-.1,0-.1-.06s0,0,0,0a1.09,1.09,0,0,0,.27,0c.15-.05.19-.23.19-.81V52.55c0-.25,0-.32.07-.32s.16.14.23.2,1,1.14,2,2.2c.64.68,1.33,1.46,1.54,1.67l-.07-3.25c0-.42-.06-.56-.25-.61a1.39,1.39,0,0,0-.32,0s-.05,0-.05,0,.05,0,.13,0l.67,0,.54,0c.07,0,.12,0,.12,0s0,0-.07,0a.56.56,0,0,0-.16,0c-.21,0-.24.18-.24.57v3.75c0,.42,0,.45-.06.45s-.12-.07-.46-.41c-.07-.06-1-1-1.67-1.73s-1.47-1.61-1.67-1.84Z"/><path class="cls-2" d="M93.22,55.3a12.43,12.43,0,0,0,0,1.39c0,.19,0,.32.25.35l.28,0s0,0,0,0,0,.06-.1.06l-.78,0-.63,0c-.07,0-.1,0-.1-.06s0,0,0,0l.19,0c.13,0,.16-.16.18-.35s0-.77,0-1.39V54.18c0-1,0-1.18,0-1.39s-.07-.32-.21-.36a.79.79,0,0,0-.2,0s-.05,0-.05,0,0,0,.1,0l.65,0,.62,0c.07,0,.11,0,.11,0s0,0-.06,0a.56.56,0,0,0-.16,0c-.17,0-.22.14-.23.36s0,.39,0,1.39Z"/><path class="cls-2" d="M95.38,54.55a1.84,1.84,0,0,1,1.87-2.1c1,0,1.94.82,1.94,2.36C99.19,56.67,98,57,97.43,57A2.18,2.18,0,0,1,95.38,54.55Zm4,3.07a5.62,5.62,0,0,0,2.64.86,4.85,4.85,0,0,0,2-.44s0,0,0-.06a0,0,0,0,0,0,0l-.09,0a3.59,3.59,0,0,1-1.26.25,5.83,5.83,0,0,1-2.69-.75l-1.31-.68a2.66,2.66,0,0,0,1.13-2.15,2.34,2.34,0,0,0-2.52-2.4,2.48,2.48,0,0,0-2.52,2.5,2.41,2.41,0,0,0,2.51,2.52,2.54,2.54,0,0,0,1-.22Z"/><path class="cls-2" d="M101,54.18c0-1,0-1.18,0-1.39s-.07-.32-.28-.36a.78.78,0,0,0-.22,0s-.05,0-.05,0,0,0,.1,0l.74,0,.63,0c.08,0,.11,0,.11,0s0,0-.05,0a.59.59,0,0,0-.17,0c-.17,0-.22.14-.23.36s0,.39,0,1.39v.89a2,2,0,0,0,.49,1.58,1.22,1.22,0,0,0,1,.35,1.35,1.35,0,0,0,1-.46A2.51,2.51,0,0,0,104.4,55v-.79c0-1,0-1.18,0-1.39s-.06-.32-.27-.36a.78.78,0,0,0-.22,0s0,0,0,0,0,0,.1,0l.68,0,.54,0c.07,0,.1,0,.1,0s0,0-.05,0a.56.56,0,0,0-.16,0c-.18,0-.22.14-.24.36s0,.39,0,1.39v.68a2.49,2.49,0,0,1-.59,1.91,1.88,1.88,0,0,1-1.32.48,2,2,0,0,1-1.32-.46,2.13,2.13,0,0,1-.55-1.68Z"/><path class="cls-2" d="M106.7,54.18c0-1,0-1.18,0-1.39s-.07-.32-.28-.36a.78.78,0,0,0-.22,0s0,0,0,0,0,0,.11,0l.72,0h1.46l.28,0,.09,0s0,0,0,0,0,.13,0,.31,0,.34,0,.42,0,.07,0,.07-.06,0-.06-.08a.75.75,0,0,0,0-.24c0-.1-.11-.17-.46-.21-.11,0-.8,0-.87,0s0,0,0,.06V54.4s0,.06,0,.06h1c.16,0,.25,0,.3-.09s.07-.08.1-.08,0,0,0,0,0,.14,0,.36,0,.36,0,.4,0,.13,0,.13a.06.06,0,0,1,0-.06.78.78,0,0,0,0-.21c0-.09-.08-.2-.33-.22s-.81,0-.92,0,0,0,0,.05v.56c0,.22,0,1,0,1.1,0,.44.11.52.74.52a1.79,1.79,0,0,0,.61-.07c.17-.07.25-.2.29-.46,0-.07,0-.1.06-.1s0,.05,0,.1,0,.49-.08.62-.1.17-.35.17c-1,0-1.4,0-1.58,0l-.63,0c-.07,0-.1,0-.1-.06s0,0,.05,0l.19,0c.13,0,.16-.16.19-.35s0-.77,0-1.39Z"/><path class="cls-2" d="M24.57,61.85c0-1,0-1.17,0-1.38s-.07-.32-.28-.36a.78.78,0,0,0-.22,0s0,0,0,0,0,0,.1,0l.73,0h1.57a1.47,1.47,0,0,0,.28,0l.09,0s0,0,0,0,0,.13-.05.3,0,.35,0,.43,0,.07,0,.07-.05,0-.05-.08a.64.64,0,0,0-.06-.24c0-.09-.18-.2-.43-.21l-1,0s-.05,0-.05.07v1.77s0,.06,0,.06h1.11c.15,0,.23,0,.29-.12s.05-.07.07-.07,0,0,0,.06,0,.15,0,.35,0,.39,0,.43,0,.12,0,.12,0,0,0,0a1,1,0,0,0,0-.23.37.37,0,0,0-.33-.23c-.16,0-.86,0-1,0s0,0,0,0V63c0,.61,0,1.12,0,1.39s.06.32.25.35l.29,0s.05,0,.05,0,0,.06-.11.06l-.78,0-.63,0c-.07,0-.1,0-.1-.06s0,0,.05,0l.19,0c.13,0,.16-.17.19-.35s0-.78,0-1.39Z"/><path class="cls-2" d="M30.21,59.13s0,.07,0,.07a1.18,1.18,0,0,0-.2,0,4.5,4.5,0,0,0-1,.27l-.09,0a0,0,0,0,1,0,0s0,0,.05-.06c.23-.16.82-.51.87-.54a.5.5,0,0,1,.18-.08s0,0,.06.06A2,2,0,0,1,30.21,59.13Zm-1.85,2.72c0-1,0-1.17,0-1.38s-.06-.32-.27-.36a.78.78,0,0,0-.22,0s-.05,0-.05,0,0,0,.1,0l.73,0h1.46l.28,0a.24.24,0,0,1,.09,0s0,0,0,0,0,.13-.05.3,0,.35,0,.43,0,.07,0,.07-.05,0-.05-.09a.55.55,0,0,0,0-.23c0-.1-.11-.18-.45-.21-.11,0-.81,0-.88,0s0,0,0,.06v1.77s0,.06,0,.06h1a.44.44,0,0,0,.3-.09c.05,0,.07-.09.1-.09s0,0,0,.06,0,.15-.05.35a4.1,4.1,0,0,0,0,.41c0,.06,0,.12,0,.12a0,0,0,0,1-.05,0,.78.78,0,0,0,0-.21c0-.09-.09-.2-.34-.23s-.8,0-.91,0a0,0,0,0,0-.05.05v1.65c0,.44.12.53.75.53a1.85,1.85,0,0,0,.61-.07c.17-.07.24-.2.29-.46,0-.07,0-.1.06-.1s0,0,0,.1-.05.48-.08.62-.09.16-.34.16c-1,0-1.4,0-1.58,0l-.63,0c-.07,0-.1,0-.1-.06s0,0,.05,0l.19,0c.13,0,.16-.17.18-.35a12.53,12.53,0,0,0,0-1.39Z"/><path class="cls-2" d="M32.8,61.75V60.39c0-.07,0-.11.08-.13a1.5,1.5,0,0,1,.42,0,2.61,2.61,0,0,1,2.09.73A2.29,2.29,0,0,1,36,62.55a2.26,2.26,0,0,1-.51,1.53,2.14,2.14,0,0,1-1.52.59c-.76,0-1-.13-1.09-.25a1.55,1.55,0,0,1-.07-.49c0-.12,0-.71,0-1.39ZM32.26,63c0,.61,0,1.12,0,1.39s-.06.32-.19.35l-.19,0s-.05,0-.05,0,0,.06.1.06l.63,0c.06,0,.87.07,1.42.07a2.58,2.58,0,0,0,1.94-.73,2.62,2.62,0,0,0,.69-1.81A2.27,2.27,0,0,0,36,60.73,3.38,3.38,0,0,0,33.39,60l-.86,0-.72,0c-.07,0-.11,0-.11,0s0,0,.05,0a.78.78,0,0,1,.22,0c.21,0,.26.14.28.36s0,.38,0,1.38Z"/><path class="cls-2" d="M39.73,59.13s0,.07,0,.07a1.05,1.05,0,0,0-.19,0,4.5,4.5,0,0,0-1,.27l-.1,0a0,0,0,0,1,0,0,.07.07,0,0,1,0-.06c.23-.16.83-.51.87-.54a.5.5,0,0,1,.18-.08s0,0,.07.06S39.66,59,39.73,59.13Zm-1.86,2.72c0-1,0-1.17,0-1.38s-.07-.32-.28-.36a.75.75,0,0,0-.21,0s-.06,0-.06,0,0,0,.11,0l.72,0h1.47l.27,0L40,60s0,0,0,0,0,.13-.06.3a3.22,3.22,0,0,1,0,.43s0,.07,0,.07,0,0,0-.09a.79.79,0,0,0,0-.23c-.05-.1-.11-.18-.46-.21-.1,0-.8,0-.87,0s0,0,0,.06v1.77s0,.06,0,.06h1a.44.44,0,0,0,.3-.09s.07-.09.09-.09,0,0,0,.06,0,.15,0,.35,0,.37,0,.41,0,.12,0,.12,0,0,0,0a.53.53,0,0,0,0-.21c0-.09-.08-.2-.33-.23s-.81,0-.92,0,0,0,0,.05V63c0,.22,0,1,0,1.09,0,.44.11.53.74.53a1.88,1.88,0,0,0,.62-.07c.16-.07.24-.2.28-.46,0-.07,0-.1.06-.1s0,0,0,.1,0,.48-.08.62-.1.16-.35.16c-1,0-1.39,0-1.58,0l-.63,0c-.07,0-.1,0-.1-.06s0,0,.05,0l.19,0c.13,0,.16-.17.19-.35s0-.78,0-1.39Z"/><path class="cls-2" d="M42.29,60.32a.08.08,0,0,1,.05-.08,1.79,1.79,0,0,1,.43,0c.68,0,1.1.48,1.1,1.28a1.16,1.16,0,0,1-.39,1,.82.82,0,0,1-.48.12,2,2,0,0,1-.67-.1.09.09,0,0,1,0-.08ZM41.77,63c0,.61,0,1.12,0,1.39s-.05.32-.18.35l-.19,0s-.06,0-.06,0,0,.06.11.06l.6,0,.79,0c.07,0,.1,0,.1-.06s0,0,0,0l-.29,0c-.19,0-.23-.17-.25-.35s0-.78,0-1.39v-.15s0-.06,0-.06l.79,0a.08.08,0,0,1,.08,0c.13.16.43.59.7.94a3.24,3.24,0,0,0,.86.94,1.31,1.31,0,0,0,.69.13h.45c.12,0,.16,0,.16-.06s0,0-.06,0a1.46,1.46,0,0,1-.25,0,1.36,1.36,0,0,1-.78-.46c-.37-.4-.81-1-1.33-1.64a2,2,0,0,0,.77-1.48,1.11,1.11,0,0,0-.44-.87A2,2,0,0,0,42.8,60L42,60l-.72,0c-.07,0-.1,0-.1,0s0,0,.05,0a.78.78,0,0,1,.22,0c.21,0,.26.14.27.36s0,.38,0,1.38Z"/><path class="cls-2" d="M47,62.72s0,0,0,0l.56-1.73q0-.13.09,0l.61,1.73s0,0,0,0Zm-.89,1.41c-.12.32-.24.56-.54.6l-.19,0s-.05,0-.05,0,0,.06.12.06l.72,0,.5,0c.06,0,.1,0,.1-.06s0,0-.07,0H46.6c-.11,0-.24-.06-.24-.19a1.27,1.27,0,0,1,.09-.43L46.83,63a.06.06,0,0,1,.06,0h1.38a.07.07,0,0,1,.06,0l.59,1.58c0,.1,0,.16,0,.17s0,0,0,0,.07,0,.19,0c.44,0,.91,0,1,0s.12,0,.12-.06,0,0-.06,0a1,1,0,0,1-.26,0c-.13,0-.32-.14-.55-.71-.39-1-1.39-3.62-1.49-3.86s-.1-.23-.14-.23-.06,0-.14.25Z"/><path class="cls-2" d="M51.62,63c0,.94,0,1.35.14,1.47s.27.14.76.14c.34,0,.63,0,.78-.19a.93.93,0,0,0,.17-.38c0-.05,0-.09.05-.09s0,0,0,.1a4.16,4.16,0,0,1-.09.64c0,.15-.07.17-.41.17-.92,0-1.34,0-1.71,0l-.63,0c-.07,0-.1,0-.1-.06s0,0,.05,0l.19,0c.13,0,.16-.17.19-.35s0-.78,0-1.39V61.85c0-1,0-1.17,0-1.38s-.07-.32-.28-.36a.78.78,0,0,0-.22,0s0,0,0,0,0,0,.1,0l.73,0L52,60c.07,0,.1,0,.1,0s0,0,0,0a.82.82,0,0,0-.21,0c-.19,0-.24.14-.25.36s0,.38,0,1.38Z"/><path class="cls-2" d="M54.87,61.85c0-1,0-1.17,0-1.38s-.06-.32-.27-.36a.78.78,0,0,0-.22,0s0,0,0,0,0,0,.1,0l.73,0H56.6l.28,0A.24.24,0,0,1,57,60s0,0,0,0,0,.13-.05.3,0,.35,0,.43,0,.07,0,.07,0,0,0-.09a.55.55,0,0,0,0-.23c0-.1-.11-.18-.45-.21-.11,0-.81,0-.88,0s0,0,0,.06v1.77s0,.06,0,.06h1a.44.44,0,0,0,.3-.09c.05,0,.07-.09.1-.09s0,0,0,.06,0,.15,0,.35a4.1,4.1,0,0,0,0,.41c0,.06,0,.12,0,.12a0,0,0,0,1-.05,0,.78.78,0,0,0,0-.21c0-.09-.09-.2-.34-.23s-.8,0-.91,0a0,0,0,0,0-.05.05v1.65c0,.44.12.53.75.53a1.85,1.85,0,0,0,.61-.07c.17-.07.24-.2.29-.46,0-.07,0-.1.06-.1s0,0,0,.1,0,.48-.08.62-.09.16-.34.16c-1,0-1.4,0-1.58,0l-.63,0c-.07,0-.1,0-.1-.06s0,0,.05,0l.19,0c.13,0,.16-.17.19-.35s0-.78,0-1.39Z"/><path class="cls-2" d="M61.39,61.75V60.39c0-.07,0-.11.08-.13a1.5,1.5,0,0,1,.42,0,2.61,2.61,0,0,1,2.09.73,2.29,2.29,0,0,1,.61,1.61,2.26,2.26,0,0,1-.51,1.53,2.14,2.14,0,0,1-1.52.59c-.76,0-1-.13-1.09-.25a1.55,1.55,0,0,1-.07-.49c0-.12,0-.71,0-1.39ZM60.85,63c0,.61,0,1.12,0,1.39s-.06.32-.19.35l-.19,0s0,0,0,0,0,.06.1.06l.63,0c.06,0,.87.07,1.42.07a2.58,2.58,0,0,0,1.94-.73,2.62,2.62,0,0,0,.69-1.81,2.27,2.27,0,0,0-.62-1.62A3.38,3.38,0,0,0,62,60l-.86,0-.72,0c-.08,0-.11,0-.11,0s0,0,.05,0a.78.78,0,0,1,.22,0c.21,0,.26.14.28.36s0,.38,0,1.38Z"/><path class="cls-2" d="M66.72,61.85c0-1,0-1.17,0-1.38s-.06-.32-.27-.36a.78.78,0,0,0-.22,0s0,0,0,0,0,0,.1,0L67,60h1.46l.28,0a.24.24,0,0,1,.09,0s0,0,0,0,0,.13,0,.3,0,.35,0,.43,0,.07,0,.07-.06,0-.06-.09a.72.72,0,0,0,0-.23c0-.1-.11-.18-.46-.21-.11,0-.81,0-.88,0s0,0,0,.06v1.77s0,.06,0,.06h1a.44.44,0,0,0,.3-.09s.07-.09.1-.09,0,0,0,.06,0,.15,0,.35,0,.37,0,.41,0,.12,0,.12a0,0,0,0,1-.05,0,.78.78,0,0,0,0-.21c0-.09-.09-.2-.33-.23s-.81,0-.92,0,0,0,0,.05V63c0,.22,0,1,0,1.09,0,.44.11.53.74.53a1.85,1.85,0,0,0,.61-.07c.17-.07.24-.2.29-.46,0-.07,0-.1.06-.1s0,0,0,.1,0,.48-.08.62-.09.16-.34.16c-1,0-1.4,0-1.58,0l-.63,0c-.07,0-.1,0-.1-.06s0,0,0,0l.19,0c.13,0,.16-.17.18-.35a12.53,12.53,0,0,0,0-1.39Z"/><path class="cls-2" d="M73.24,63c0,.94,0,1.35.14,1.47s.27.14.77.14c.34,0,.62,0,.77-.19a.93.93,0,0,0,.17-.38c0-.05,0-.09,0-.09s0,0,0,.1a4.16,4.16,0,0,1-.09.64c0,.15-.07.17-.41.17-.92,0-1.34,0-1.71,0l-.63,0c-.07,0-.1,0-.1-.06s0,0,.05,0l.19,0c.13,0,.16-.17.19-.35s0-.78,0-1.39V61.85c0-1,0-1.17,0-1.38s-.07-.32-.28-.36a.78.78,0,0,0-.22,0s0,0,0,0,0,0,.11,0L73,60l.69,0c.07,0,.1,0,.1,0s0,0-.05,0a.9.9,0,0,0-.21,0c-.19,0-.24.14-.25.36s0,.38,0,1.38Z"/><path class="cls-2" d="M77,62.72s0,0,0,0l.56-1.73c0-.09.07-.09.1,0l.61,1.73s0,0,0,0Zm-.89,1.41c-.12.32-.25.56-.54.6l-.19,0s-.06,0-.06,0,0,.06.13.06l.72,0,.5,0q.09,0,.09-.06s0,0-.06,0h-.06c-.11,0-.25-.06-.25-.19a1.27,1.27,0,0,1,.09-.43L76.85,63a.06.06,0,0,1,.06,0h1.38a0,0,0,0,1,0,0l.6,1.58c0,.1,0,.16,0,.17s0,0,0,0,.06,0,.19,0c.44,0,.91,0,1,0s.13,0,.13-.06,0,0-.06,0a.92.92,0,0,1-.26,0c-.13,0-.32-.14-.55-.71-.39-1-1.4-3.62-1.49-3.86s-.1-.23-.14-.23-.07,0-.14.25Z"/><path class="cls-2" d="M80.72,61.85c0-1,0-1.17,0-1.38s-.06-.32-.27-.36a.78.78,0,0,0-.22,0s0,0,0,0,0,0,.1,0L81,60l.63,0c.07,0,.1,0,.1,0s0,0,0,0l-.16,0c-.17,0-.22.14-.24.36s0,.38,0,1.38v.9a2,2,0,0,0,.48,1.58,1.26,1.26,0,0,0,1,.35,1.35,1.35,0,0,0,1-.46,2.45,2.45,0,0,0,.37-1.57v-.8c0-1,0-1.17,0-1.38s-.06-.32-.28-.36a.75.75,0,0,0-.21,0s0,0,0,0,0,0,.1,0l.68,0,.53,0c.07,0,.11,0,.11,0s0,0-.06,0l-.16,0c-.17,0-.22.14-.23.36s0,.38,0,1.38v.69a2.49,2.49,0,0,1-.59,1.91,1.87,1.87,0,0,1-1.32.47,1.94,1.94,0,0,1-1.32-.45,2.12,2.12,0,0,1-.56-1.68Z"/><path class="cls-2" d="M86,64.75c-.09,0-.1-.07-.1-.24,0-.32,0-.58,0-.68s0-.1,0-.1,0,0,0,.07a1,1,0,0,0,0,.23.86.86,0,0,0,.94.66.85.85,0,0,0,.92-.85c0-.45-.18-.7-.74-1.15l-.28-.24c-.68-.56-.84-1-.84-1.39a1.17,1.17,0,0,1,1.33-1.15A2.38,2.38,0,0,1,88,60a.82.82,0,0,0,.23,0s.06,0,.06,0,0,.24,0,.68c0,.1,0,.14,0,.14s0,0,0-.08a1.67,1.67,0,0,0-.08-.32c0-.07-.21-.34-.8-.34a.73.73,0,0,0-.79.74c0,.37.18.59.78,1.08l.18.14c.76.6.93,1,.93,1.5a1.34,1.34,0,0,1-.54,1.07,1.7,1.7,0,0,1-1,.26A1.88,1.88,0,0,1,86,64.75Z"/><path class="cls-2" d="M90.42,62.72s0,0,0,0L91,60.94c0-.09.07-.09.1,0l.61,1.73s0,0,0,0Zm-.9,1.41c-.11.32-.24.56-.54.6l-.18,0s-.06,0-.06,0,0,.06.12.06l.73,0,.49,0c.06,0,.1,0,.1-.06s0,0-.06,0h-.07c-.11,0-.24-.06-.24-.19a1.27,1.27,0,0,1,.09-.43L90.28,63s0,0,.07,0h1.37a.06.06,0,0,1,.06,0l.6,1.58c0,.1,0,.16,0,.17s0,0,0,0,.07,0,.2,0c.44,0,.9,0,1,0s.13,0,.13-.06,0,0-.07,0a.85.85,0,0,1-.25,0c-.14,0-.32-.14-.55-.71-.39-1-1.4-3.62-1.49-3.86s-.11-.23-.15-.23-.06,0-.13.25Z"/><path class="cls-2" d="M94.71,64c0,.53.07.7.24.75a1.69,1.69,0,0,0,.32,0s.06,0,.06,0,0,.06-.12.06c-.36,0-.62,0-.68,0l-.61,0c-.07,0-.1,0-.1-.06s0,0,.05,0a1,1,0,0,0,.26,0c.16,0,.19-.23.19-.82V60.23c0-.25,0-.32.07-.32s.16.14.22.2l2,2.2C97.29,63,98,63.77,98.19,64l-.07-3.25c0-.42-.05-.56-.25-.61a1.32,1.32,0,0,0-.31,0s0,0,0-.05,0,0,.13,0l.66,0,.55,0c.07,0,.11,0,.11,0s0,.05-.07.05a.5.5,0,0,0-.15,0c-.22,0-.24.18-.24.57v3.75c0,.42,0,.45-.06.45s-.13-.07-.47-.41c-.07-.06-1-1-1.67-1.73s-1.46-1.61-1.67-1.84Z"/><path class="cls-2" d="M100.76,64c0,.53.08.7.26.75a1.52,1.52,0,0,0,.31,0s.06,0,.06,0,0,.06-.12.06c-.36,0-.62,0-.68,0l-.61,0c-.07,0-.1,0-.1-.06s0,0,.05,0a1,1,0,0,0,.26,0c.16,0,.19-.23.19-.82V60.23c0-.25,0-.32.07-.32s.16.14.22.2l2,2.2c.63.67,1.33,1.46,1.53,1.67l-.07-3.25c0-.42-.05-.56-.25-.61a1.32,1.32,0,0,0-.31,0s-.05,0-.05-.05.05,0,.13,0l.66,0,.54,0c.07,0,.12,0,.12,0s0,.05-.07.05a.5.5,0,0,0-.15,0c-.21,0-.24.18-.24.57v3.75c0,.42,0,.45-.06.45s-.13-.07-.47-.41c-.07-.06-1-1-1.67-1.73s-1.46-1.61-1.67-1.84Z"/><path class="cls-2" d="M106.65,61.85c0-1,0-1.17,0-1.38s-.07-.32-.28-.36a.71.71,0,0,0-.21,0s-.05,0-.05,0,0,0,.1,0l.72,0h1.47l.27,0,.09,0s0,0,0,0,0,.13-.06.3a3.22,3.22,0,0,1,0,.43s0,.07,0,.07-.05,0-.05-.09a.79.79,0,0,0,0-.23c0-.1-.11-.18-.46-.21-.1,0-.8,0-.87,0s0,0,0,.06v1.77s0,.06,0,.06h1a.44.44,0,0,0,.3-.09s.07-.09.09-.09,0,0,0,.06,0,.15,0,.35,0,.37,0,.41,0,.12,0,.12,0,0,0,0a.53.53,0,0,0,0-.21c0-.09-.08-.2-.33-.23s-.81,0-.91,0,0,0,0,.05V63c0,.22,0,1,0,1.09,0,.44.12.53.74.53a1.88,1.88,0,0,0,.62-.07c.16-.07.24-.2.29-.46,0-.07,0-.1,0-.1s0,0,0,.1-.05.48-.08.62-.1.16-.35.16c-1,0-1.39,0-1.58,0l-.62,0c-.08,0-.11,0-.11-.06s0,0,0,0l.19,0c.13,0,.16-.17.19-.35s0-.78,0-1.39Z"/></svg>