<?xml version="1.0" encoding="iso-8859-1"?>
<!-- Generator: Adobe Illustrator 19.0.0, SVG Export Plug-In . SVG Version: 6.00 Build 0)  -->
<svg version="1.1" id="Layer_1" xmlns="http://www.w3.org/2000/svg" xmlns:xlink="http://www.w3.org/1999/xlink" x="0px" y="0px"
	 viewBox="0 0 512 512" style="enable-background:new 0 0 512 512;" xml:space="preserve">
<g>
	<g>
		<path d="M431.299,195.606c4.427,0,8.017-3.588,8.017-8.017V110.63c0-4.428-3.589-8.017-8.017-8.017H396.56V76.426
			c0-4.428-3.589-8.017-8.017-8.017h-97.191l2.184-6.55c0.814-2.445,0.405-5.133-1.102-7.224c-1.507-2.09-3.927-3.329-6.504-3.329
			h-26.188V36.098l15.755-23.633C278.987,7.228,275.099,0,268.827,0h-68.409c-6.272,0-10.16,7.228-6.67,12.463l15.755,23.634v15.209
			h-26.188c-2.577,0-4.997,1.239-6.503,3.329c-1.507,2.091-1.917,4.779-1.102,7.224l2.183,6.55H80.701
			c-4.427,0-8.017,3.588-8.017,8.017v384.802c0,4.428,3.589,8.017,8.017,8.017h26.188v34.739c0,4.428,3.589,8.017,8.017,8.017
			h316.392c4.427,0,8.017-3.588,8.017-8.017V221.797c0-4.428-3.589-8.017-8.017-8.017c-4.427,0-8.017,3.588-8.017,8.017v274.17
			H122.923v-26.722h43.29c4.427,0,8.017-3.588,8.017-8.017c0-4.428-3.589-8.017-8.017-8.017H88.718V84.443h94.519l9.574,28.723
			c1.091,3.274,4.155,5.481,7.605,5.481h68.409c3.45,0,6.514-2.207,7.605-5.481l9.576-28.723h94.519v368.768H200.418
			c-4.427,0-8.017,3.588-8.017,8.017c0,4.428,3.589,8.017,8.017,8.017h188.125c4.427,0,8.017-3.588,8.017-8.017v-342.58h26.722
			v68.943C423.282,192.018,426.871,195.606,431.299,195.606z M209.503,102.614h-3.307L194.438,67.34h15.065V102.614z
			 M243.708,102.614h-18.171V67.34h18.171V102.614z M245.054,29.224c-0.878,1.316-1.347,2.865-1.347,4.447v17.637h-18.171V33.67
			c0-1.582-0.468-3.131-1.347-4.447l-8.793-13.19h38.451L245.054,29.224z M263.048,102.614h-3.307V67.34h15.065L263.048,102.614z"/>
	</g>
</g>
<g>
	<g>
		<path d="M360.862,131.624c-2.574-3.604-7.582-4.439-11.183-1.863l-21.529,15.377v-8.854c0-4.428-3.589-8.017-8.017-8.017h-68.409
			c-4.427,0-8.017,3.588-8.017,8.017v68.409c0,4.428,3.589,8.017,8.017,8.017h68.409c4.427,0,8.017-3.588,8.017-8.017v-39.853
			l30.847-22.034C362.601,140.234,363.435,135.227,360.862,131.624z M312.117,156.591l-16.77,11.979l-12.3-12.301
			c-3.131-3.13-8.207-3.13-11.337,0c-3.131,3.132-3.131,8.207,0,11.338l17.102,17.102c2.735,2.735,7.179,3.103,10.329,0.854
			l12.975-9.269v20.383h-52.376v-52.376h52.376V156.591z"/>
	</g>
</g>
<g>
	<g>
		<path d="M200.418,145.37h-76.96c-4.427,0-8.017,3.588-8.017,8.017c0,4.428,3.589,8.017,8.017,8.017h76.96
			c4.427,0,8.017-3.588,8.017-8.017C208.434,148.958,204.845,145.37,200.418,145.37z"/>
	</g>
</g>
<g>
	<g>
		<path d="M166.213,179.574h-42.756c-4.427,0-8.017,3.588-8.017,8.017s3.589,8.017,8.017,8.017h42.756
			c4.427,0,8.017-3.588,8.017-8.017S170.64,179.574,166.213,179.574z"/>
	</g>
</g>
<g>
	<g>
		<path d="M320.134,239.432h-68.409c-4.427,0-8.017,3.588-8.017,8.017v68.409c0,4.428,3.589,8.017,8.017,8.017h68.409
			c4.427,0,8.017-3.588,8.017-8.017v-68.409C328.15,243.02,324.561,239.432,320.134,239.432z M312.117,307.841h-52.376v-52.376
			h52.376V307.841z"/>
	</g>
</g>
<g>
	<g>
		<path d="M200.418,256.534h-76.96c-4.427,0-8.017,3.588-8.017,8.017c0,4.428,3.589,8.017,8.017,8.017h76.96
			c4.427,0,8.017-3.588,8.017-8.017C208.434,260.123,204.845,256.534,200.418,256.534z"/>
	</g>
</g>
<g>
	<g>
		<path d="M174.764,290.739h-51.307c-4.427,0-8.017,3.588-8.017,8.017c0,4.428,3.589,8.017,8.017,8.017h51.307
			c4.427,0,8.017-3.588,8.017-8.017C182.781,294.327,179.191,290.739,174.764,290.739z"/>
	</g>
</g>
<g>
	<g>
		<path d="M320.134,350.597h-68.409c-4.427,0-8.017,3.588-8.017,8.017v68.409c0,4.428,3.589,8.017,8.017,8.017h68.409
			c4.427,0,8.017-3.588,8.017-8.017v-68.409C328.15,354.185,324.561,350.597,320.134,350.597z M312.117,419.006h-52.376V366.63
			h52.376V419.006z"/>
	</g>
</g>
<g>
	<g>
		<path d="M200.418,367.699h-76.96c-4.427,0-8.017,3.588-8.017,8.017c0,4.428,3.589,8.017,8.017,8.017h76.96
			c4.427,0,8.017-3.588,8.017-8.017C208.434,371.288,204.845,367.699,200.418,367.699z"/>
	</g>
</g>
<g>
	<g>
		<path d="M166.213,401.904h-42.756c-4.427,0-8.017,3.588-8.017,8.017c0,4.428,3.589,8.017,8.017,8.017h42.756
			c4.427,0,8.017-3.588,8.017-8.017C174.23,405.492,170.64,401.904,166.213,401.904z"/>
	</g>
</g>
<g>
</g>
<g>
</g>
<g>
</g>
<g>
</g>
<g>
</g>
<g>
</g>
<g>
</g>
<g>
</g>
<g>
</g>
<g>
</g>
<g>
</g>
<g>
</g>
<g>
</g>
<g>
</g>
<g>
</g>
</svg>
