<?xml version="1.0" encoding="iso-8859-1"?>
<!-- Generator: Adobe Illustrator 19.0.0, SVG Export Plug-In . SVG Version: 6.00 Build 0)  -->
<svg version="1.1" id="Capa_1" xmlns="http://www.w3.org/2000/svg" xmlns:xlink="http://www.w3.org/1999/xlink" x="0px" y="0px"
	 viewBox="0 0 512.001 512.001" style="enable-background:new 0 0 512.001 512.001;" xml:space="preserve">
<g>
	<g>
		<path d="M370.294,452.829H348.98V183.687c0-4.142-3.357-7.5-7.5-7.5s-7.5,3.358-7.5,7.5v269.142H106.513
			c-9.458,0-17.519,6.459-19.603,15.708c-3.475,15.417-15.91,27.667-35.541,28.479c-22.966-1.325-36.368-19.046-36.368-37.429
			V55.051c0-7.194,5.854-13.048,13.049-13.048h13.813c4.143,0,7.5-3.358,7.5-7.5c0-4.142-3.357-7.5-7.5-7.5H28.05
			C12.583,27.003,0,39.585,0,55.051v404.534C0,487.742,22.67,512,51.688,512H338.1c22.658,0,42.317-14.707,48.918-36.596
			C390.398,464.196,382.078,452.829,370.294,452.829z M372.656,471.073C367.979,486.58,354.091,497,338.099,497H87.825
			c6.645-6.697,11.498-15.312,13.719-25.164c0.531-2.358,2.574-4.005,4.969-4.005c276.849,0.648,264.12-1.206,265.755,0.991
			C372.552,469.203,372.979,470.002,372.656,471.073z"/>
	</g>
</g>
<g>
	<g>
		<path d="M509.229,87.867L485.25,68.38c-1.891-23.129-21.307-41.378-44.917-41.378c-24.859,0-45.081,20.223-45.081,45.081v161.251
			c0,8.318,5.065,15.472,12.272,18.548c0,14.64,0,193.976,0,201.624c0,29.33,17.564,44.432,22.751,53.346
			c4.932,6.841,15.174,6.853,20.117,0c0-0.001,0-0.001,0.001-0.002c5.293-9.098,22.749-24.06,22.749-53.344
			c0-17.081,0-56.676,0-67.084c0-4.143-3.357-7.5-7.5-7.5s-7.5,3.357-7.5,7.5v32.156h-35.617v-164.23h35.617v97.071
			c0,4.143,3.357,7.5,7.5,7.5s7.5-3.357,7.5-7.5v-99.537c7.206-3.076,12.273-10.231,12.273-18.549V87.844L497,97.258v191.897
			c0,4.143,3.357,7.5,7.5,7.5s7.5-3.357,7.5-7.5V93.689C512,91.43,510.982,89.291,509.229,87.867z M440.334,495.151
			c-6.328-8.925-8.692-11.687-11.083-15.945h22.164C449.014,483.482,446.736,486.12,440.334,495.151z M458.142,433.58
			c-0.241,17.47,0.651,22.184-1.097,30.626h-33.422c-1.74-8.402-0.854-12.974-1.098-30.626H458.142z M470.414,233.334
			c0,2.844-2.314,5.157-5.157,5.157h-49.846c-2.844,0-5.157-2.313-5.157-5.157V72.083c0-16.586,13.494-30.08,30.08-30.08
			c16.587,0,30.081,13.494,30.081,30.08C470.414,92.28,470.414,213.155,470.414,233.334z"/>
	</g>
</g>
<g>
	<g>
		<path d="M80.656,278.436c-12.815,0-23.24,10.427-23.24,23.241s10.426,23.24,23.24,23.24s23.241-10.426,23.241-23.24
			C103.897,288.861,93.471,278.436,80.656,278.436z M80.656,309.916c-4.543,0-8.24-3.696-8.24-8.24c0-4.544,3.696-8.24,8.24-8.24
			c4.544,0,8.24,3.696,8.24,8.24C88.896,306.219,85.2,309.916,80.656,309.916z"/>
	</g>
</g>
<g>
	<g>
		<path d="M80.656,345.681c-12.815,0-23.24,10.427-23.24,23.241c0,12.815,10.426,23.24,23.24,23.24s23.241-10.426,23.241-23.24
			C103.897,356.108,93.471,345.681,80.656,345.681z M80.656,377.161c-4.543,0-8.24-3.696-8.24-8.24s3.696-8.241,8.24-8.241
			c4.544,0,8.24,3.696,8.24,8.241C88.896,373.465,85.2,377.161,80.656,377.161z"/>
	</g>
</g>
<g>
	<g>
		<path d="M285.739,158.686H132.056c-4.143,0-7.5,3.358-7.5,7.5c0,4.142,3.357,7.5,7.5,7.5h153.683c4.143,0,7.5-3.358,7.5-7.5
			C293.24,162.044,289.882,158.686,285.739,158.686z"/>
	</g>
</g>
<g>
	<g>
		<path d="M307.797,54.004h-22.058c-4.143,0-7.5,3.358-7.5,7.5s3.357,7.5,7.5,7.5h22.058c4.143,0,7.5-3.358,7.5-7.5
			S311.94,54.004,307.797,54.004z"/>
	</g>
</g>
<g>
	<g>
		<path d="M285.739,361.421H132.056c-4.143,0-7.5,3.357-7.5,7.5s3.357,7.5,7.5,7.5h153.683c4.143,0,7.5-3.357,7.5-7.5
			C293.24,364.779,289.882,361.421,285.739,361.421z"/>
	</g>
</g>
<g>
	<g>
		<path d="M285.739,293.842H132.056c-4.143,0-7.5,3.357-7.5,7.5s3.357,7.5,7.5,7.5h153.683c4.143,0,7.5-3.357,7.5-7.5
			C293.24,297.2,289.882,293.842,285.739,293.842z"/>
	</g>
</g>
<g>
	<g>
		<path d="M285.739,226.265H132.056c-4.143,0-7.5,3.358-7.5,7.5s3.357,7.5,7.5,7.5h153.683c4.143,0,7.5-3.358,7.5-7.5
			S289.882,226.265,285.739,226.265z"/>
	</g>
</g>
<g>
	<g>
		<path d="M106.862,147.079c-3.14-2.699-7.875-2.346-10.577,0.795l-20.272,23.568l-5.423-6.271
			c-2.709-3.134-7.445-3.477-10.58-0.767c-3.133,2.71-3.477,7.446-0.767,10.58l11.112,12.85c2.417,2.795,5.783,2.617,5.683,2.594
			c2.182-0.003,4.254-0.956,5.676-2.609l25.943-30.162C110.359,154.516,110.004,149.78,106.862,147.079z"/>
	</g>
</g>
<g>
	<g>
		<path d="M106.861,214.324c-3.14-2.7-7.875-2.346-10.577,0.795l-20.272,23.567l-5.423-6.271c-2.709-3.133-7.445-3.476-10.58-0.767
			c-3.133,2.71-3.477,7.446-0.767,10.58c10.145,10.727,11.152,15.445,16.785,15.445c0.101-0.022,3.308,0.155,5.686-2.61
			l25.943-30.161C110.358,221.761,110.003,217.026,106.861,214.324z"/>
	</g>
</g>
<g>
	<g>
		<path d="M320.959,27.003c-15.186,0-85.241,0-100.374,0v-6c0-11.581-9.422-21.001-21.001-21.001h-50.185
			c-11.58,0-21.001,9.421-21.001,21.001v6c-16.124,0-36.306,0-51.531,0c-4.143,0-7.5,3.358-7.5,7.5c0,4.142,3.356,7.5,7.498,7.5
			h17.789c-4.037,13.509,6.152,27.002,20.117,27.002H234.21c13.992,0,24.147-13.514,20.117-27.002h66.632
			c7.18,0,13.022,5.841,13.022,13.022v93.66c0,4.142,3.357,7.5,7.5,7.5s7.5-3.358,7.5-7.5v-93.66
			C348.982,39.573,336.411,27.003,320.959,27.003z M234.21,54.004H114.771c-3.309,0-6-2.691-6-6s2.691-6,6-6h21.126
			c4.143,0,7.5-3.358,7.5-7.5V21.002c0-3.309,2.691-6,6-6h50.185c3.309,0,6,2.691,6,6v13.501c0,4.142,3.357,7.5,7.5,7.5h21.126
			c3.309,0,6,2.691,6,6S237.519,54.004,234.21,54.004z"/>
	</g>
</g>
<g>
</g>
<g>
</g>
<g>
</g>
<g>
</g>
<g>
</g>
<g>
</g>
<g>
</g>
<g>
</g>
<g>
</g>
<g>
</g>
<g>
</g>
<g>
</g>
<g>
</g>
<g>
</g>
<g>
</g>
</svg>
