<?xml version="1.0" encoding="iso-8859-1"?>
<!-- Generator: Adobe Illustrator 19.0.0, SVG Export Plug-In . SVG Version: 6.00 Build 0)  -->
<svg version="1.1" id="Layer_1" xmlns="http://www.w3.org/2000/svg" xmlns:xlink="http://www.w3.org/1999/xlink" x="0px" y="0px"
	 viewBox="0 0 512.001 512.001" style="enable-background:new 0 0 512.001 512.001;" xml:space="preserve">
<g>
	<g>
		<path d="M469.124,130.81c-13.45,0-26.167,6.43-34.216,17.049h-6.174v-56.48c0-4.482-3.631-8.113-8.113-8.113h-27.149
			c-4.482,0-8.113,3.631-8.113,8.113c0,4.482,3.631,8.113,8.113,8.113h19.036v56.48c0,4.482,3.631,8.113,8.113,8.113h18.59
			c2.863,0,5.514-1.509,6.975-3.97c4.792-8.067,13.581-13.079,22.937-13.079c14.695,0,26.651,11.956,26.651,26.652
			s-11.956,26.652-26.651,26.652c-9.358,0-18.147-5.01-22.936-13.077c-1.462-2.461-4.114-3.971-6.976-3.971h-18.59
			c-4.482,0-8.113,3.631-8.113,8.113v56.481h-56.481c-4.481,0-8.113,3.631-8.113,8.113v18.594c0,2.864,1.51,5.516,3.972,6.976
			c8.065,4.788,13.076,13.577,13.076,22.936c0,14.694-11.955,26.649-26.65,26.649c-14.696,0-26.652-11.955-26.652-26.649
			c0-9.359,5.011-18.147,13.076-22.936c2.462-1.462,3.972-4.113,3.972-6.976v-18.594c0-4.482-3.632-8.113-8.113-8.113h-56.481
			v-48.368h6.174c8.046,10.617,20.763,17.048,34.216,17.048c23.641,0,42.876-19.235,42.876-42.878
			c0-23.642-19.234-42.878-42.876-42.878c-13.451,0-26.167,6.43-34.215,17.049h-6.176V99.492h102.312
			c4.482,0,8.113-3.631,8.113-8.113c0-4.482-3.631-8.113-8.113-8.113H256.001H199.52v-6.174
			c10.617-8.046,17.047-20.763,17.047-34.215C216.567,19.235,197.333,0,173.689,0c-23.642,0-42.878,19.234-42.878,42.877
			c0,13.45,6.429,26.165,17.048,34.214v6.176H91.381c0,0,0,0-0.001,0c-4.482,0-8.113,3.631-8.113,8.113v164.62v56.482h-6.176
			c-8.046-10.617-20.76-17.048-34.214-17.048C19.235,295.433,0,314.669,0,338.311c0,23.642,19.235,42.878,42.878,42.878
			c13.45,0,26.165-6.43,34.214-17.05h6.176v56.481c0,0.001,0,0.001,0,0.001c0,4.482,3.631,8.113,8.113,8.113h28.769
			c4.482,0,8.113-3.631,8.113-8.113s-3.631-8.113-8.113-8.113H99.493v-56.482c0-4.482-3.631-8.113-8.113-8.113H72.787
			c-2.862,0-5.515,1.509-6.975,3.971c-4.791,8.068-13.579,13.079-22.934,13.079c-14.696,0-26.652-11.956-26.652-26.652
			c0-14.696,11.956-26.652,26.652-26.652c9.358,0,18.146,5.01,22.932,13.076c1.461,2.462,4.113,3.972,6.976,3.972h18.593
			c4.482,0,8.113-3.631,8.113-8.113v-56.481h56.482c4.482,0,8.113-3.631,8.113-8.113v-18.593c0-2.862-1.509-5.515-3.971-6.975
			c-8.067-4.792-13.079-13.58-13.079-22.935c0-14.696,11.956-26.652,26.651-26.652c14.696,0,26.652,11.956,26.652,26.652
			c0,9.356-5.01,18.144-13.077,22.935c-2.462,1.461-3.971,4.113-3.971,6.975v18.593c0,4.482,3.631,8.113,8.113,8.113h56.482v48.368
			h-6.178c-8.047-10.618-20.763-17.049-34.213-17.049c-23.642,0-42.878,19.235-42.878,42.879c0,23.643,19.235,42.879,42.878,42.879
			c13.451,0,26.166-6.431,34.214-17.051h6.177v48.37H145.396c-4.482,0-8.113,3.631-8.113,8.113c0,4.482,3.631,8.113,8.113,8.113
			h110.605h56.481v6.174c-10.617,8.047-17.046,20.763-17.046,34.215c0,23.642,19.234,42.877,42.876,42.877
			s42.878-19.234,42.878-42.877c0-13.45-6.429-26.166-17.048-34.214v-6.176h56.479c4.482,0,8.113-3.631,8.113-8.113v-55.044v-10.269
			v-99.309v-56.481h6.173c8.048,10.617,20.765,17.048,34.217,17.048c23.642,0,42.877-19.235,42.877-42.878
			C512,150.045,492.766,130.81,469.124,130.81z M199.519,247.887v-6.176c10.617-8.047,17.048-20.764,17.048-34.214
			c0-23.642-19.235-42.878-42.878-42.878c-23.642,0-42.877,19.235-42.877,42.878c0,13.45,6.43,26.166,17.05,34.215v6.174H99.493
			V99.492h56.48c4.482,0,8.113-3.631,8.113-8.113V72.788c0-2.862-1.509-5.513-3.97-6.975c-8.066-4.792-13.078-13.58-13.078-22.935
			c0-14.696,11.955-26.652,26.651-26.652c14.695,0,26.651,11.956,26.651,26.651c0,9.358-5.01,18.145-13.076,22.934
			c-2.461,1.462-3.971,4.114-3.971,6.976v18.593c0,4.482,3.631,8.113,8.113,8.113h56.481v56.48c0,4.482,3.631,8.113,8.113,8.113
			h18.593c2.862,0,5.515-1.509,6.975-3.97c4.791-8.067,13.58-13.079,22.936-13.079c14.695,0,26.65,11.956,26.65,26.652
			s-11.955,26.652-26.65,26.652c-9.358,0-18.146-5.01-22.935-13.076c-1.462-2.462-4.113-3.972-6.976-3.972h-18.593
			c-4.482,0-8.113,3.631-8.113,8.113v56.481H199.519z M412.508,355.31v10.269v46.93h-56.479v-0.001
			c-4.482,0-8.113,3.631-8.113,8.113v18.593c0,2.862,1.509,5.514,3.97,6.975c8.066,4.792,13.078,13.58,13.078,22.935
			c0,14.695-11.956,26.651-26.652,26.651c-14.695,0-26.65-11.956-26.65-26.651c0-9.358,5.009-18.146,13.075-22.933
			c2.461-1.462,3.971-4.114,3.971-6.976v-18.593c0-4.482-3.632-8.113-8.113-8.113h-56.481v-56.483c0-4.482-3.631-8.113-8.113-8.113
			h-18.594c-2.862,0-5.515,1.51-6.976,3.971c-4.79,8.069-13.577,13.08-22.932,13.08c-14.696,0-26.652-11.957-26.652-26.654
			s11.956-26.654,26.652-26.654c9.355,0,18.143,5.012,22.933,13.078c1.461,2.462,4.113,3.971,6.975,3.971h18.594
			c4.482,0,8.113-3.631,8.113-8.113v-56.48h48.368v6.177c-10.617,8.047-17.048,20.764-17.048,34.217
			c0,23.641,19.235,42.875,42.878,42.875c23.641,0,42.876-19.233,42.876-42.875c0-13.454-6.43-26.171-17.048-34.217v-6.177h48.368
			V355.31z"/>
	</g>
</g>
<g>
</g>
<g>
</g>
<g>
</g>
<g>
</g>
<g>
</g>
<g>
</g>
<g>
</g>
<g>
</g>
<g>
</g>
<g>
</g>
<g>
</g>
<g>
</g>
<g>
</g>
<g>
</g>
<g>
</g>
</svg>
