<?xml version="1.0" encoding="iso-8859-1"?>
<!-- Generator: Adobe Illustrator 19.0.0, SVG Export Plug-In . SVG Version: 6.00 Build 0)  -->
<svg version="1.1" id="Layer_1" xmlns="http://www.w3.org/2000/svg" xmlns:xlink="http://www.w3.org/1999/xlink" x="0px" y="0px"
	 viewBox="0 0 318.188 318.188" style="enable-background:new 0 0 318.188 318.188;" xml:space="preserve">
<g>
	<g>
		<g>
			<circle cx="148.679" cy="91.909" r="3.63"/>
			<circle cx="168.017" cy="177.13" r="3.63"/>
			<path d="M283.149,52.723L232.625,2.197C231.218,0.79,229.311,0,227.321,0H40.342c-4.143,0-7.5,3.358-7.5,7.5v303.188
				c0,4.142,3.357,7.5,7.5,7.5h237.504c4.143,0,7.5-3.358,7.5-7.5V58.025C285.346,56.036,284.556,54.129,283.149,52.723z
				 M234.821,25.606l24.918,24.919h-24.918V25.606z M47.842,15h171.98v10.263H47.842V15z M270.346,303.188H47.842V40.263h171.98
				v17.763c0,4.143,3.357,7.5,7.5,7.5h43.024V303.188z"/>
			<path d="M205.632,101.798h-14.563l0.001-14.563c0-11.302-14.067-19.825-32.722-19.825c-18.655,0-32.722,8.523-32.722,19.825
				v14.563h-14.563c-11.302,0-19.824,14.067-19.824,32.722c0,18.655,8.522,32.722,19.824,32.722h14.563v14.563
				c0,11.302,14.067,19.825,32.722,19.825c18.655,0,32.722-8.524,32.722-19.825v-14.563h14.563
				c11.302,0,19.824-14.067,19.824-32.722C225.457,115.865,216.934,101.798,205.632,101.798z M122.757,147.745v4.496h-11.284
				c-1.515-0.998-5.233-6.657-5.233-17.722c0-11.064,3.719-16.724,5.233-17.722h46.875c4.143,0,7.5-3.357,7.5-7.5v-2.866
				c0-4.143-3.357-7.5-7.5-7.5h-17.722V87.645c0.998-1.515,6.658-5.234,17.722-5.234c11.063,0,16.724,3.72,17.722,5.234
				l-0.002,33.635c0,2.37-1.928,4.299-4.299,4.299l-26.847,0.002C132.7,125.58,122.757,135.523,122.757,147.745z M205.223,152.241
				h-46.875c-4.143,0-7.5,3.357-7.5,7.5v2.866c0,4.143,3.357,7.5,7.5,7.5h17.722v11.287c-0.998,1.515-6.658,5.234-17.722,5.234
				c-11.064,0-16.724-3.72-17.722-5.234v-20.418c0-0.058-0.001-0.115-0.002-0.173v-13.059c0-2.37,1.928-4.299,4.298-4.299
				l26.848-0.003c12.222,0,22.164-9.942,22.164-22.164v-4.481h11.289c1.515,0.998,5.233,6.657,5.233,17.722
				C210.456,145.584,206.737,151.243,205.223,152.241z"/>
			<polygon points="179.581,251.179 171.376,233.392 157.265,233.392 173.05,263.026 173.05,281.372 186.112,281.372 
				186.112,262.634 201.897,233.393 187.851,233.393 			"/>
			<path d="M150.242,237.363c-3.042-2.647-7.593-3.972-13.652-3.972h-16.607v47.979h12.963v-15.916h3.644
				c5.819,0,10.309-1.461,13.472-4.382c3.161-2.921,4.742-7.061,4.742-12.421C154.804,243.773,153.282,240.01,150.242,237.363z
				 M139.954,253.246c-1.149,1.095-2.697,1.641-4.645,1.641h-2.363v-11.025h3.348c3.588,0,5.383,1.619,5.383,4.856
				C141.677,250.643,141.103,252.152,139.954,253.246z"/>
		</g>
	</g>
</g>
<g>
</g>
<g>
</g>
<g>
</g>
<g>
</g>
<g>
</g>
<g>
</g>
<g>
</g>
<g>
</g>
<g>
</g>
<g>
</g>
<g>
</g>
<g>
</g>
<g>
</g>
<g>
</g>
<g>
</g>
</svg>
