<?xml version='1.0' encoding='iso-8859-1'?>
<svg version="1.1" xmlns="http://www.w3.org/2000/svg" viewBox="0 0 470 470" xmlns:xlink="http://www.w3.org/1999/xlink" enable-background="new 0 0 470 470">
  <g>
    <path d="m250.893,173.727l29.224,16.873c1.181,0.682 2.471,1.006 3.743,1.006 2.592,0 5.113-1.346 6.502-3.751 2.071-3.587 0.842-8.174-2.745-10.245l-29.224-16.873c-3.587-2.072-8.174-0.842-10.245,2.745-2.072,3.587-0.843,8.174 2.745,10.245z"/>
    <path d="m166.489,210.628c-4.142,0-7.5,3.358-7.5,7.5v33.745c0,4.142 3.358,7.5 7.5,7.5s7.5-3.358 7.5-7.5v-33.745c0-4.142-3.358-7.5-7.5-7.5z"/>
    <path d="m280.118,279.4l-29.224,16.873c-3.587,2.071-4.816,6.658-2.745,10.245 1.389,2.406 3.91,3.751 6.502,3.751 1.272,0 2.562-0.324 3.743-1.006l29.224-16.873c3.587-2.071 4.816-6.658 2.745-10.245-2.071-3.587-6.658-4.816-10.245-2.745z"/>
    <path d="m432.021,321.25c-7.437,0-14.19,2.973-19.145,7.786l-52.702-30.428c0.545-2.156 0.837-4.411 0.837-6.733 0-12.563-8.472-23.178-20-26.452v-60.846c11.528-3.274 20-13.889 20-26.452 0-2.323-0.292-4.578-0.837-6.734l52.702-30.427c4.955,4.814 11.708,7.786 19.146,7.786 15.164,0 27.5-12.336 27.5-27.5s-12.336-27.5-27.5-27.5-27.5,12.336-27.5,27.5c0,2.323 0.292,4.578 0.837,6.734l-52.702,30.428c-4.955-4.814-11.708-7.786-19.145-7.786-7.437,0-14.19,2.973-19.145,7.786l-52.702-30.427c0.545-2.156 0.837-4.411 0.837-6.733 0-12.563-8.472-23.178-20-26.452v-87.3c0-4.142-3.358-7.5-7.5-7.5s-7.5,3.358-7.5,7.5v87.298c-11.528,3.274-20,13.889-20,26.452 0,2.323 0.292,4.578 0.837,6.734l-52.702,30.427c-4.955-4.813-11.708-7.786-19.145-7.786s-14.19,2.973-19.145,7.786l-52.702-30.428c0.545-2.156 0.837-4.411 0.837-6.733 0-15.164-12.336-27.5-27.5-27.5s-27.5,12.336-27.5,27.5 12.336,27.5 27.5,27.5c7.438,0 14.19-2.973 19.146-7.786l52.702,30.428c-0.545,2.156-0.837,4.411-0.837,6.734 0,12.563 8.472,23.178 20,26.452v60.846c-11.528,3.274-20,13.889-20,26.452 0,2.323 0.292,4.578 0.837,6.734l-52.702,30.428c-4.955-4.814-11.708-7.786-19.145-7.786-15.164,0-27.5,12.336-27.5,27.5s12.336,27.5 27.5,27.5 27.5-12.336 27.5-27.5c0-2.323-0.292-4.578-0.837-6.734l52.702-30.428c4.955,4.814 11.708,7.786 19.145,7.786s14.19-2.973 19.145-7.786l52.702,30.427c-0.545,2.156-0.837,4.411-0.837,6.734 0,12.563 8.472,23.178 20,26.452v87.297c0,4.142 3.358,7.5 7.5,7.5s7.5-3.358 7.5-7.5v-87.298c11.528-3.274 20-13.889 20-26.452 0-2.323-0.292-4.578-0.837-6.734l52.702-30.427c4.955,4.814 11.708,7.786 19.145,7.786 7.438,0 14.19-2.973 19.146-7.786l52.702,30.428c-0.545,2.156-0.837,4.411-0.837,6.734 0,15.164 12.336,27.5 27.5,27.5s27.5-12.336 27.5-27.5-12.339-27.501-27.503-27.501zm0-212.5c6.893,0 12.5,5.607 12.5,12.5s-5.607,12.5-12.5,12.5-12.5-5.607-12.5-12.5 5.607-12.5 12.5-12.5zm-394.042,25c-6.893,0-12.5-5.607-12.5-12.5s5.607-12.5 12.5-12.5 12.5,5.607 12.5,12.5-5.607,12.5-12.5,12.5zm0,227.5c-6.893,0-12.5-5.607-12.5-12.5s5.607-12.5 12.5-12.5 12.5,5.607 12.5,12.5-5.607,12.5-12.5,12.5zm295.531-195.625c6.893,0 12.5,5.607 12.5,12.5s-5.607,12.5-12.5,12.5-12.5-5.607-12.5-12.5 5.608-12.5 12.5-12.5zm-98.51-56.875c6.893,0 12.5,5.607 12.5,12.5s-5.607,12.5-12.5,12.5-12.5-5.607-12.5-12.5 5.607-12.5 12.5-12.5zm-111.01,69.375c0-6.893 5.607-12.5 12.5-12.5s12.5,5.607 12.5,12.5-5.607,12.5-12.5,12.5-12.5-5.607-12.5-12.5zm12.5,126.25c-6.893,0-12.5-5.607-12.5-12.5s5.607-12.5 12.5-12.5 12.5,5.607 12.5,12.5-5.608,12.5-12.5,12.5zm98.51,56.875c-6.893,0-12.5-5.607-12.5-12.5s5.607-12.5 12.5-12.5 12.5,5.607 12.5,12.5-5.607,12.5-12.5,12.5zm71.01-69.375c0,2.323 0.292,4.578 0.837,6.734l-52.702,30.427c-4.955-4.813-11.708-7.786-19.145-7.786s-14.19,2.973-19.145,7.786l-52.702-30.427c0.545-2.156 0.837-4.411 0.837-6.734 0-12.563-8.472-23.178-20-26.452v-60.846c11.528-3.274 20-13.889 20-26.452 0-2.323-0.292-4.578-0.837-6.734l52.702-30.427c4.955,4.814 11.708,7.786 19.145,7.786 7.438,0 14.19-2.973 19.146-7.786l52.702,30.427c-0.545,2.156-0.837,4.411-0.837,6.734 0,12.563 8.472,23.178 20,26.452v60.846c-11.529,3.274-20.001,13.889-20.001,26.452zm27.5,12.5c-6.893,0-12.5-5.607-12.5-12.5 0-6.891 5.605-12.497 12.495-12.5 6.9,0.003 12.505,5.609 12.505,12.5 0,6.893-5.607,12.5-12.5,12.5zm98.511,56.875c-6.893,0-12.5-5.607-12.5-12.5s5.607-12.5 12.5-12.5 12.5,5.607 12.5,12.5-5.607,12.5-12.5,12.5z"/>
  </g>
</svg>
