<?xml version="1.0" encoding="iso-8859-1"?>
<!-- Generator: Adobe Illustrator 19.0.0, SVG Export Plug-In . SVG Version: 6.00 Build 0)  -->
<svg version="1.1" id="Capa_1" xmlns="http://www.w3.org/2000/svg" xmlns:xlink="http://www.w3.org/1999/xlink" x="0px" y="0px"
	 viewBox="0 0 487.998 487.998" style="enable-background:new 0 0 487.998 487.998;" xml:space="preserve">
<g>
	<g>
		<path d="M420.271,193.23L271.767,99.438c-0.421-5.152-1.56-10.219-3.384-15.056l1.272,1.272l40-40
			c3.123-3.124,3.123-8.188,0-11.312l-32-32c-3.124-3.123-8.188-3.123-11.312,0l-45.88,45.88c-1.48-0.112-2.96-0.224-4.464-0.224
			c-30.913,0.035-55.965,25.087-56,56v32h-32c-4.418,0-8,3.582-8,8v40c0,4.418,3.582,8,8,8h12.688l-10.344,10.344
			c-3.123,3.124-3.123,8.188,0,11.312l32,32c3.124,3.123,8.188,3.123,11.312,0l18.344-18.344v12.688c0,4.418,3.582,8,8,8h48
			c4.418,0,8-3.582,8-8V163.31l11.312-11.312h9.376l83.312,83.312v36.688h-224c-4.418,0-8,3.582-8,8v32c0,4.418,3.582,8,8,8h136v-16
			h-128v-16h144v104h-32v-24c0-17.673-14.327-32-32-32s-32,14.327-32,32v24h-56c-4.418,0-8,3.582-8,8v29.384l-56.376,2.616
			c-4.271,0.201-7.629,3.724-7.624,8v40c0,4.418,3.582,8,8,8h344c4.418,0,8-3.582,8-8v-280
			C424.001,197.252,422.593,194.697,420.271,193.23z M175.999,163.31l12.688,12.688h-12.688V163.31z M135.999,175.998v-24h24v24
			H135.999z M167.999,228.686l-20.688-20.688l16-16h1.376l20,20L167.999,228.686z M195.999,200.686l-8.688-8.688h17.376
			L195.999,200.686z M239.999,231.998h-32v-16h32V231.998z M239.999,199.998h-20.688l2.344-2.344l18.344-18.344V199.998z
			 M215.999,180.686l-2.344-2.344l-26.344-26.344h57.376L215.999,180.686z M255.999,135.998h-80v-32c0-22.091,17.909-40,40-40
			s40,17.909,40,40V135.998z M261.375,71.31c-5.838-8.086-13.721-14.475-22.84-18.512l33.464-33.488l20.688,20.688L261.375,71.31z
			 M207.999,367.998c0-8.837,7.163-16,16-16s16,7.163,16,16v24h-32V367.998z M407.999,471.998h-328v-24.36l328-15.264V471.998z
			 M407.999,416.358l-264,12.28v-20.64h264V416.358z M407.999,391.998h-104v-104h64c4.418,0,8-3.582,8-8v-48
			c0-2.122-0.844-4.156-2.344-5.656l-88-88c-1.5-1.5-3.534-2.344-5.656-2.344h-8v-17.48l136,85.888V391.998z"/>
	</g>
</g>
<g>
	<g>
		<path d="M355.999,303.998c-19.882,0-36,16.118-36,36s16.118,36,36,36s36-16.118,36-36
			C391.977,320.125,375.872,304.02,355.999,303.998z M355.999,359.998c-11.046,0-20-8.954-20-20c0-11.046,8.954-20,20-20
			c11.046,0,20,8.954,20,20C375.999,351.044,367.045,359.998,355.999,359.998z"/>
	</g>
</g>
<g>
</g>
<g>
</g>
<g>
</g>
<g>
</g>
<g>
</g>
<g>
</g>
<g>
</g>
<g>
</g>
<g>
</g>
<g>
</g>
<g>
</g>
<g>
</g>
<g>
</g>
<g>
</g>
<g>
</g>
</svg>
