<?xml version="1.0"?>
<svg xmlns="http://www.w3.org/2000/svg" viewBox="0 0 64 64" width="512" height="512"><g id="Authorization_manager" data-name="Authorization manager"><path d="M59,40V33a9,9,0,0,0-18,0v1.943a16.7,16.7,0,0,0-4.44-1.631L32,32.219V30.208A11,11,0,0,0,37,21V18h1a1,1,0,0,0,1-1V13A11.013,11.013,0,0,0,28,2H24A11.013,11.013,0,0,0,13,13v4a1,1,0,0,0,1,1h1v3a11,11,0,0,0,5,9.208v2.011l-4.562,1.093A17.087,17.087,0,0,0,2,49.935V62H59a3,3,0,0,0,3-3V43A3,3,0,0,0,59,40ZM43,33a7,7,0,0,1,14,0v7H56V33a6,6,0,0,0-12,0v7H43Zm11,7H46V33a4,4,0,0,1,8,0ZM41,40a3,3,0,0,0-3,3V59a2.966,2.966,0,0,0,.184,1H33.2l4.5-24.3A14.79,14.79,0,0,1,41,37.267ZM26,37.28l1.121.9.15,1.347L26,39.946l-1.271-.422.15-1.347Zm-1.5,4.277,1.183.392a1,1,0,0,0,.63,0l1.183-.392,1.455,13.076L26,57.586l-2.953-2.953Zm3.246-5.439,3.411-2.047,2.222.555-2.608,3.912ZM15,13a9.011,9.011,0,0,1,9-9h4a9.011,9.011,0,0,1,9,9v3H35.923a2.99,2.99,0,0,1-2.343-1.125l-2.8-3.5a1,1,0,0,0-1.562,0l-1.6,2A6.966,6.966,0,0,1,22.155,16H15Zm2,8V18h5.155a8.955,8.955,0,0,0,7.028-3.378L30,13.6l2.018,2.523A4.972,4.972,0,0,0,35,17.908V21a9,9,0,0,1-18,0Zm9,11a10.927,10.927,0,0,0,4-.764v1.2l-4,2.4-4-2.4v-1.2A10.927,10.927,0,0,0,26,32Zm-5.159,2.071,3.411,2.047-3.025,2.42-2.608-3.912ZM4,49.935A15.081,15.081,0,0,1,14.3,35.7L18.8,60H14V49a1,1,0,0,0-2,0V60H4ZM20.832,60l-4.6-24.814.308-.066,3.623,5.435a1,1,0,0,0,.679.433A.976.976,0,0,0,21,41a1,1,0,0,0,.625-.219l1.045-.837L21.006,54.889a1,1,0,0,0,.287.818l4,4a1,1,0,0,0,1.414,0l4-4a1,1,0,0,0,.287-.818L29.33,39.944l1.045.837A1,1,0,0,0,31,41a.976.976,0,0,0,.153-.012,1,1,0,0,0,.679-.433l3.623-5.434.308.066L31.168,60H20.832ZM60,59a1,1,0,0,1-1,1H41a1,1,0,0,1-1-1V43a1,1,0,0,1,1-1H59a1,1,0,0,1,1,1Z"/><path d="M50,46a2.993,2.993,0,0,0-1,5.816V57a1,1,0,0,0,2,0V51.816A2.993,2.993,0,0,0,50,46Zm0,4a1,1,0,1,1,1-1A1,1,0,0,1,50,50Z"/></g></svg>
