<svg id="outline" height="512" viewBox="0 0 512 512" width="512" xmlns="http://www.w3.org/2000/svg"><path d="m120 264h24v16h-24z"/><path d="m176 304h24v16h-24z"/><path d="m120 304h40v16h-40z"/><path d="m56 304h48v16h-48z"/><path d="m104 344h96v16h-96z"/><path d="m56 344h32v16h-32z"/><path d="m152 384h48v16h-48z"/><path d="m56 384h80v16h-80z"/><path d="m104 424h48v16h-48z"/><path d="m56 424h32v16h-32z"/><path d="m480 240a8.00008 8.00008 0 0 0 -8-8h-48a8.00008 8.00008 0 0 0 -8 8v40h-40a8.00008 8.00008 0 0 0 -8 8v40h-40a8.00008 8.00008 0 0 0 -8 8v40h-40a8.00008 8.00008 0 0 0 -8 8v48h-57.37622a24 24 0 1 0 0 16h9.37622v24a8.00917 8.00917 0 0 1 -8 8h-176a8.00917 8.00917 0 0 1 -8-8v-184h40a24.0275 24.0275 0 0 0 24-24v-40h120a8.00917 8.00917 0 0 1 8 8v8h16v-8a24.0275 24.0275 0 0 0 -24-24h-121.37305a23.84385 23.84385 0 0 0 -16.9707 7.02979l-54.62695 54.627a23.84254 23.84254 0 0 0 -7.0293 16.97065v185.37256a24.0275 24.0275 0 0 0 24 24h176a24.0275 24.0275 0 0 0 24-24v-24h256v-16h-16zm-400-4.686v28.686a8.00917 8.00917 0 0 1 -8 8h-28.686zm112 212.686a8 8 0 1 1 8-8 8.00917 8.00917 0 0 1 -8 8zm96-56h32v40h-32zm48-48h32v88h-32zm48-48h32v136h-32zm48 136v-184h32v184z"/><path d="m40 216a23.99448 23.99448 0 0 0 21.65479-34.3407l24.00439-24.00464a23.9887 23.9887 0 0 0 32.9646-13.65466h34.75244a23.99529 23.99529 0 0 0 46.29028-4.03479l45.179-38.72473a24.00054 24.00054 0 1 0 -10.88281-11.745l-38.27324 32.80552a23.98335 23.98335 0 0 0 -42.31323 5.699h-34.75244a23.99718 23.99718 0 1 0 -44.27857 18.3407l-24.00439 24.00464a23.99872 23.99872 0 1 0 -10.34082 45.65466zm216-144a8 8 0 1 1 -8 8 8.00917 8.00917 0 0 1 8-8zm-80 56a8 8 0 1 1 -8 8 8.00917 8.00917 0 0 1 8-8zm-80 0a8 8 0 1 1 -8 8 8.00917 8.00917 0 0 1 8-8zm-56 56a8 8 0 1 1 -8 8 8.00917 8.00917 0 0 1 8-8z"/><path d="m329.56543 203.12067-52.87891 52.87933h-70.06274a24 24 0 1 0 0 16h17.37622v144h16v-144h40a8.00076 8.00076 0 0 0 5.65723-2.34326l57.73777-57.73774a104.28417 104.28417 0 1 0 -13.82959-8.79828zm-145.56543 68.87933a8 8 0 1 1 8-8 8.00917 8.00917 0 0 1 -8 8zm272.17041-91.85022-46.35547-52.14978h69.81738a87.7058 87.7058 0 0 1 -23.46191 52.14978zm23.46191-68.14978h-79.63232v-79.63251a88.14413 88.14413 0 0 1 79.63232 79.63251zm-95.63232-79.63251v87.63251a7.95881 7.95881 0 0 0 2.02734 5.30908l-.00683.00586 58.19726 65.47211a87.98307 87.98307 0 1 1 -60.21777-158.41956z"/></svg>