<svg xmlns="http://www.w3.org/2000/svg" xmlns:xlink="http://www.w3.org/1999/xlink" width="1920" height="1293.871" viewBox="0 0 1920 1293.871">
  <defs>
    <linearGradient id="linear-gradient" x1="0.574" y1="0.974" x2="0.469" y2="0.137" gradientUnits="objectBoundingBox">
      <stop offset="0" stop-color="#0a1e55"/>
      <stop offset="0.266" stop-color="#5d5dcc"/>
      <stop offset="0.749" stop-color="#b726ac"/>
      <stop offset="1" stop-color="#010101"/>
    </linearGradient>
    <linearGradient id="linear-gradient-2" x1="0.574" y1="0.974" x2="0.469" y2="0.137" gradientUnits="objectBoundingBox">
      <stop offset="0" stop-color="#0a1e55"/>
      <stop offset="0.266" stop-color="#2e2e67"/>
      <stop offset="0.621" stop-color="#5f1359"/>
      <stop offset="1" stop-color="#010101"/>
    </linearGradient>
  </defs>
  <g id="Group_25" data-name="Group 25" transform="translate(0 0)">
    <path id="Subtraction_2" data-name="Subtraction 2" d="M-5143.832,1196.871V0h1920V714.1c-17.985,7.071-39.431,17.456-67.494,32.683-25.321,13.74-53.813,30.224-83.978,47.675l-.025.015c-43.934,25.417-93.73,54.226-147.987,82.876-46.506,24.558-89.732,45.553-132.149,64.186-24.133,10.6-48.286,20.538-71.787,29.533-25.252,9.665-50.6,18.568-75.334,26.461-26.329,8.4-52.8,15.926-78.683,22.364-27.353,6.8-54.886,12.607-81.836,17.244-28.322,4.874-56.85,8.608-84.792,11.1-29.237,2.607-58.694,3.929-87.552,3.931h-.059c-14.592,0-29.34-.337-43.835-1-14.807-.68-29.774-1.721-44.485-3.1-15-1.4-30.157-3.187-45.054-5.308-15.174-2.161-30.517-4.732-45.6-7.642-15.351-2.962-30.871-6.359-46.127-10.1-15.521-3.8-31.211-8.067-46.632-12.673-15.683-4.684-31.534-9.855-47.114-15.37-15.83-5.6-31.836-11.722-47.575-18.187-16.447-6.757-33.081-12.739-49.437-17.78-16.152-4.978-32.478-9.175-48.524-12.474-15.842-3.258-31.85-5.731-47.576-7.351a456.711,456.711,0,0,0-46.6-2.41c-10.721,0-21.558.393-32.209,1.168-10.555.768-21.222,1.933-31.7,3.461-10.388,1.515-20.882,3.43-31.19,5.691-10.215,2.241-20.533,4.884-30.667,7.856a484.962,484.962,0,0,0-59.732,21.953,540.7,540.7,0,0,0-57.535,29.848,619.826,619.826,0,0,0-55.264,37.231c-17.8,13.407-35.606,28.246-52.923,44.1-17.021,15.586-34.015,32.564-50.51,50.464-16.221,17.6-32.378,36.547-48.024,56.311Z" transform="translate(5143.832 97)" fill="url(#linear-gradient)"/>
    <path id="Subtraction_1" data-name="Subtraction 1" d="M-5177.958,1250.787V0h1920V805.631c-18.916,2.429-43.208,10.537-76.45,25.518-30.266,13.64-64.619,31.388-104.4,51.939l-.012.006C-3478,903.337-3522.405,926.281-3570.371,949c-42.825,20.287-82.547,37.6-121.437,52.926-22.191,8.746-44.4,16.939-66,24.352-23.23,7.971-46.557,15.311-69.331,21.818-24.247,6.928-48.645,13.132-72.516,18.441-25.23,5.611-50.651,10.395-75.556,14.218-26.177,4.019-52.572,7.1-78.45,9.151-27.081,2.149-54.4,3.239-81.2,3.24-15.449,0-31.073-.361-46.439-1.074-15.709-.729-31.6-1.847-47.223-3.323-15.962-1.508-32.106-3.432-47.983-5.719-16.2-2.334-32.6-5.113-48.719-8.261-16.443-3.21-33.074-6.894-49.432-10.95-16.672-4.134-33.534-8.772-50.118-13.785-16.89-5.105-33.975-10.746-50.783-16.767-17.106-6.128-34.407-12.822-51.422-19.9-16.228-6.747-32.641-12.72-48.784-17.753-15.942-4.97-32.06-9.162-47.905-12.457a471.714,471.714,0,0,0-47-7.342,446.669,446.669,0,0,0-46.062-2.407c-11.021,0-22.16.424-33.11,1.261-10.847.829-21.81,2.086-32.585,3.736-10.674,1.635-21.458,3.7-32.051,6.14-10.5,2.417-21.1,5.268-31.507,8.473-10.315,3.176-20.729,6.788-30.952,10.735-10.126,3.909-20.351,8.258-30.388,12.925a546.343,546.343,0,0,0-59.043,32.139,634.89,634.89,0,0,0-56.665,40.048c-18.237,14.411-36.475,30.355-54.207,47.389-17.42,16.735-34.8,34.957-51.669,54.161-16.574,18.872-33.076,39.181-49.048,60.363Z" transform="translate(5177.959)" fill="url(#linear-gradient-2)"/>
  </g>
</svg>
