<?xml version='1.0' encoding='iso-8859-1'?>
<svg version="1.1" xmlns="http://www.w3.org/2000/svg" viewBox="0 0 470 470" xmlns:xlink="http://www.w3.org/1999/xlink" enable-background="new 0 0 470 470">
  <g>
    <path d="m404.917,461.94c-0.109-55.987-16.732-104.51-50.81-148.331-29.398-37.804-68.021-67.604-105.374-96.424-71.312-55.022-138.671-106.994-138.671-209.685 1.42109e-14-4.142-3.358-7.5-7.5-7.5h-30c-4.142,0-7.5,3.358-7.5,7.5 0,56.221 16.62,104.924 50.809,148.89 23.403,30.095 52.656,55.113 82.459,78.608-27.877,21.961-58.428,47.709-82.459,78.612-34.189,43.966-50.809,92.668-50.809,148.89 0,4.142 3.358,7.5 7.5,7.5h30c4.142,0 7.5-3.358 7.5-7.5 0-7.788 0.386-15.276 1.122-22.5h53.335c4.142,0 7.5-3.358 7.5-7.5s-3.358-7.5-7.5-7.5h-51.241c2.892-16.09 7.673-30.807 14.052-44.515h185.739c4.142,0 7.5-3.358 7.5-7.5s-3.358-7.5-7.5-7.5h-177.916c9.25-15.944 20.757-30.564 34.006-44.516h91.552c4.142,0 7.5-3.358 7.5-7.5s-3.358-7.5-7.5-7.5h-76.413c15.349-14.395 32.452-28.308 50.696-42.52 65.983,51.312 124.924,102.991 124.924,199.051 0,4.142 3.358,7.5 7.5,7.5h30c4.162,0 7.52-3.358 7.52-7.5 0-0.188-0.007-0.375-0.021-0.56zm-244.189-154.103c-0.326,0.286-0.629,0.597-0.901,0.935-8.273,8.572-16.024,17.476-23.052,26.874-8.039,10.752-14.887,21.831-20.578,33.288-0.295,0.458-0.538,0.951-0.729,1.47-9.276,19.06-15.347,39.174-18.299,60.592-0.062,0.305-0.099,0.619-0.123,0.937-1.004,7.525-1.632,15.208-1.872,23.067h-15.005c1.417-49.608 17.008-92.915 47.543-132.182 23.847-30.664 54.854-56.411 82.79-78.311 3.586,2.78 7.171,5.55 10.744,8.307 0.501,0.387 1.001,0.773 1.502,1.159-22.127,17.276-43.407,34.724-62.02,53.864zm214.075,147.163c-1.424-46.424-16.173-86.979-44.97-123.759-26.875-34.327-62.115-61.517-99.427-90.305-36.61-28.248-74.467-57.457-102.694-93.754-30.535-39.267-46.126-82.574-47.543-132.182h15.008c1.424,46.424 16.173,86.979 44.97,123.759 26.875,34.327 62.115,61.517 99.425,90.303 36.61,28.247 74.467,57.456 102.695,93.756 30.536,39.267 46.127,82.574 47.544,132.182h-15.008z"/>
    <path d="m156.911,89.515c-4.142,0-7.5,3.358-7.5,7.5s3.358,7.5 7.5,7.5h30c4.142,0 7.5-3.358 7.5-7.5s-3.358-7.5-7.5-7.5h-30z"/>
    <path d="m134.9,45h221.884c-2.818,16.035-7.497,30.742-13.869,44.515h-126.004c-4.142,0-7.5,3.358-7.5,7.5s3.358,7.5 7.5,7.5h118.207c-9.111,15.733-20.557,30.344-34.047,44.516h-91.801c-4.142,0-7.5,3.358-7.5,7.5s3.358,7.5 7.5,7.5h76.632c-9.657,9.034-20.127,17.987-31.331,27.044-3.221,2.604-3.722,7.326-1.118,10.547 2.603,3.221 7.327,3.722 10.547,1.118 33.396-26.997 68.18-58.276 89.692-101.53 0.382-0.565 0.684-1.187 0.902-1.847 8.665-17.874 15.063-37.778 18.185-60.245 0.084-0.382 0.134-0.775 0.157-1.176 0.983-7.369 1.622-15.005 1.867-22.941h15.008c-1.417,49.608-17.009,92.915-47.544,132.182-15.621,20.088-35.775,40.042-63.427,62.796-3.198,2.632-3.658,7.358-1.026,10.557 1.483,1.802 3.631,2.735 5.796,2.734 1.677,0 3.365-0.56 4.761-1.708 28.53-23.477 49.418-44.185 65.737-65.171 34.19-43.966 50.81-92.668 50.81-148.89 0-4.142-3.358-7.5-7.5-7.5h-30c-4.142,0-7.5,3.358-7.5,7.5 0,7.787-0.366,15.276-1.081,22.5h-223.937c-4.142,0-7.5,3.358-7.5,7.5s3.358,7.499 7.5,7.499z"/>
    <path d="m335.082,425h-140.563c-4.142,0-7.5,3.358-7.5,7.5s3.358,7.5 7.5,7.5h140.563c4.142,0 7.5-3.358 7.5-7.5s-3.358-7.5-7.5-7.5z"/>
  </g>
</svg>
