<?xml version="1.0" encoding="iso-8859-1"?>
<!-- Generator: Adobe Illustrator 19.0.0, SVG Export Plug-In . SVG Version: 6.00 Build 0)  -->
<svg version="1.1" id="Capa_1" xmlns="http://www.w3.org/2000/svg" xmlns:xlink="http://www.w3.org/1999/xlink" x="0px" y="0px"
	 viewBox="0 0 512 512" style="enable-background:new 0 0 512 512;" xml:space="preserve">
<g>
	<g>
		<path d="M401.067,119.467c-31.812,0-62.14,13.687-83.2,37.555c-3.123,3.533-2.782,8.934,0.751,12.049
			c3.524,3.123,8.934,2.782,12.041-0.751c17.826-20.207,43.494-31.787,70.409-31.787c51.755,0,93.867,42.112,93.867,93.867
			c0,4.719,3.823,8.533,8.533,8.533S512,235.119,512,230.4C512,169.233,462.234,119.467,401.067,119.467z"/>
	</g>
</g>
<g>
	<g>
		<path d="M298.667,0c-70.579,0-128,57.421-128,128c0,15.744,2.825,31.113,8.397,45.696c1.297,3.413,4.54,5.495,7.97,5.495
			c1.015,0,2.048-0.179,3.055-0.555c4.403-1.681,6.605-6.613,4.924-11.016c-4.83-12.646-7.279-25.967-7.279-39.62
			c0-61.167,49.766-110.933,110.933-110.933c4.71,0,8.533-3.814,8.533-8.533S303.377,0,298.667,0z"/>
	</g>
</g>
<g>
	<g>
		<path d="M401.067,221.867H110.933c-4.71,0-8.533,3.814-8.533,8.533v273.067c0,4.719,3.823,8.533,8.533,8.533h290.133
			c4.71,0,8.533-3.814,8.533-8.533V230.4C409.6,225.681,405.777,221.867,401.067,221.867z M392.533,494.933H119.467v-256h273.067
			V494.933z"/>
	</g>
</g>
<g>
	<g>
		<path d="M401.067,221.867H110.933c-4.71,0-8.533,3.814-8.533,8.533v68.267c0,4.719,3.823,8.533,8.533,8.533h290.133
			c4.71,0,8.533-3.814,8.533-8.533V230.4C409.6,225.681,405.777,221.867,401.067,221.867z M392.533,290.133H119.467v-51.2h273.067
			V290.133z"/>
	</g>
</g>
<g>
	<g>
		<path d="M162.133,256h-17.067c-4.71,0-8.533,3.814-8.533,8.533s3.823,8.533,8.533,8.533h17.067c4.71,0,8.533-3.814,8.533-8.533
			S166.844,256,162.133,256z"/>
	</g>
</g>
<g>
	<g>
		<path d="M213.333,256h-17.067c-4.71,0-8.533,3.814-8.533,8.533s3.823,8.533,8.533,8.533h17.067c4.71,0,8.533-3.814,8.533-8.533
			S218.044,256,213.333,256z"/>
	</g>
</g>
<g>
	<g>
		<path d="M264.533,256h-17.067c-4.71,0-8.533,3.814-8.533,8.533s3.823,8.533,8.533,8.533h17.067c4.71,0,8.533-3.814,8.533-8.533
			S269.244,256,264.533,256z"/>
	</g>
</g>
<g>
	<g>
		<path d="M426.547,122.522C423.68,54.477,367.42,0,298.667,0c-49.323,0-93.568,27.913-114.97,71.799
			c-6.963-2.347-14.182-3.533-21.564-3.533c-37.641,0-68.267,30.626-68.267,68.267c0,5.837,0.725,11.546,2.176,17.092
			C43.145,152.363,0,194.987,0,247.467c0,51.755,42.112,93.867,93.867,93.867h17.067c4.71,0,8.533-3.814,8.533-8.533v-93.867
			h273.067V332.8c0,4.719,3.823,8.533,8.533,8.533C462.234,341.333,512,291.567,512,230.4
			C512,178.475,476.476,134.204,426.547,122.522z M409.6,323.883V230.4c0-4.719-3.823-8.533-8.533-8.533H110.933
			c-4.71,0-8.533,3.814-8.533,8.533v93.867h-8.533c-42.342,0-76.8-34.449-76.8-76.8c0-42.351,34.458-76.8,76.8-76.8
			c4.301,0,8.73,0.418,13.542,1.271c3.226,0.589,6.417-0.725,8.346-3.32c1.929-2.603,2.219-6.067,0.751-8.951
			c-3.695-7.279-5.572-15.061-5.572-23.134c0-28.237,22.963-51.2,51.2-51.2c7.706,0,15.189,1.732,22.255,5.163
			c2.116,1.024,4.565,1.143,6.767,0.282c2.202-0.845,3.959-2.56,4.847-4.736c17.152-41.899,57.446-68.975,102.665-68.975
			c61.167,0,110.933,49.766,110.916,111.104c-0.008,0.171-0.06,1.05-0.06,1.212c-0.068,4.224,2.961,7.859,7.125,8.559
			c45.363,7.595,78.285,46.473,78.285,92.459C494.933,279.287,457.378,319.556,409.6,323.883z"/>
	</g>
</g>
<g>
	<g>
		<path d="M366.933,366.933H307.2c-4.71,0-8.533,3.814-8.533,8.533S302.49,384,307.2,384h59.733c4.71,0,8.533-3.814,8.533-8.533
			S371.644,366.933,366.933,366.933z"/>
	</g>
</g>
<g>
	<g>
		<path d="M273.067,366.933h-85.333c-4.71,0-8.533,3.814-8.533,8.533s3.823,8.533,8.533,8.533h85.333
			c4.71,0,8.533-3.814,8.533-8.533S277.777,366.933,273.067,366.933z"/>
	</g>
</g>
<g>
	<g>
		<path d="M307.2,332.8h-93.867c-4.71,0-8.533,3.814-8.533,8.533c0,4.719,3.823,8.533,8.533,8.533H307.2
			c4.71,0,8.533-3.814,8.533-8.533C315.733,336.614,311.91,332.8,307.2,332.8z"/>
	</g>
</g>
<g>
	<g>
		<path d="M153.6,366.933h-8.533c-4.71,0-8.533,3.814-8.533,8.533s3.823,8.533,8.533,8.533h8.533c4.71,0,8.533-3.814,8.533-8.533
			S158.31,366.933,153.6,366.933z"/>
	</g>
</g>
<g>
	<g>
		<path d="M179.2,332.8h-34.133c-4.71,0-8.533,3.814-8.533,8.533c0,4.719,3.823,8.533,8.533,8.533H179.2
			c4.71,0,8.533-3.814,8.533-8.533C187.733,336.614,183.91,332.8,179.2,332.8z"/>
	</g>
</g>
<g>
	<g>
		<path d="M366.933,332.8h-25.6c-4.71,0-8.533,3.814-8.533,8.533c0,4.719,3.823,8.533,8.533,8.533h25.6
			c4.71,0,8.533-3.814,8.533-8.533C375.467,336.614,371.644,332.8,366.933,332.8z"/>
	</g>
</g>
<g>
	<g>
		<path d="M196.267,409.6h-51.2c-4.71,0-8.533,3.814-8.533,8.533v51.2c0,4.719,3.823,8.533,8.533,8.533h51.2
			c4.71,0,8.533-3.814,8.533-8.533v-51.2C204.8,413.414,200.977,409.6,196.267,409.6z M187.733,460.8H153.6v-34.133h34.133V460.8z"
			/>
	</g>
</g>
<g>
	<g>
		<path d="M366.933,409.6h-51.2c-4.71,0-8.533,3.814-8.533,8.533v51.2c0,4.719,3.823,8.533,8.533,8.533h51.2
			c4.71,0,8.533-3.814,8.533-8.533v-51.2C375.467,413.414,371.644,409.6,366.933,409.6z M358.4,460.8h-34.133v-34.133H358.4V460.8z"
			/>
	</g>
</g>
<g>
	<g>
		<path d="M281.6,409.6h-51.2c-4.71,0-8.533,3.814-8.533,8.533v51.2c0,4.719,3.823,8.533,8.533,8.533h51.2
			c4.71,0,8.533-3.814,8.533-8.533v-51.2C290.133,413.414,286.31,409.6,281.6,409.6z M273.067,460.8h-34.133v-34.133h34.133V460.8z"
			/>
	</g>
</g>
<g>
	<g>
		<path d="M426.667,221.867H85.333c-4.71,0-8.533,3.814-8.533,8.533s3.823,8.533,8.533,8.533h341.333
			c4.71,0,8.533-3.814,8.533-8.533S431.377,221.867,426.667,221.867z"/>
	</g>
</g>
<g>
</g>
<g>
</g>
<g>
</g>
<g>
</g>
<g>
</g>
<g>
</g>
<g>
</g>
<g>
</g>
<g>
</g>
<g>
</g>
<g>
</g>
<g>
</g>
<g>
</g>
<g>
</g>
<g>
</g>
</svg>
