<?xml version="1.0" encoding="iso-8859-1"?>
<!-- Generator: Adobe Illustrator 19.0.0, SVG Export Plug-In . SVG Version: 6.00 Build 0)  -->
<svg version="1.1" id="Capa_1" xmlns="http://www.w3.org/2000/svg" xmlns:xlink="http://www.w3.org/1999/xlink" x="0px" y="0px"
	 viewBox="0 0 512 512" style="enable-background:new 0 0 512 512;" xml:space="preserve">
<g>
	<g>
		<g>
			<path d="M214.528,409.481l0.009,0.009c4.676,5.461,11.443,8.619,18.577,8.644h0.094c7.083,0,13.833-3.098,18.569-8.542
				l114.765-133.914c9.267-10.675,8.32-27.076-2.116-36.574c-5.111-4.659-11.708-6.989-18.56-6.596
				c-6.878,0.401-13.167,3.516-17.758,8.806l-94.874,110.959l-29.193-34.432c-4.514-5.282-10.786-8.44-17.655-8.9
				c-6.929-0.452-13.457,1.826-18.603,6.443c-10.505,9.412-11.588,25.813-2.406,36.565L214.528,409.481z M179.166,328.098
				c1.69-1.527,3.831-2.304,6.084-2.125c2.253,0.145,4.318,1.195,5.803,2.927l35.644,42.052c1.621,1.911,3.994,3.012,6.494,3.021
				h0.017c2.492,0,4.864-1.092,6.485-2.987L341.035,252.45c1.51-1.741,3.593-2.773,5.828-2.901c2.21-0.094,4.386,0.631,6.076,2.176
				c3.635,3.302,3.951,9.037,0.674,12.8L238.848,398.447c-1.468,1.69-3.473,2.62-5.641,2.62h-0.034
				c-2.185-0.009-4.198-0.956-5.666-2.671l-49.152-57.532C175.138,337.101,175.505,331.375,179.166,328.098z"/>
			<path d="M418.569,196.267h-51.637v-85.333C366.933,49.766,317.166,0,255.999,0S145.066,49.766,145.066,110.933v85.333H93.432
				c-13.875,0-25.165,11.29-25.165,25.165v230.801c0,0.011-0.002,0.022-0.002,0.034s0.002,0.022,0.002,0.034v34.535
				c0,13.875,11.29,25.165,25.165,25.165h325.137c13.875,0,25.165-11.29,25.165-25.165V221.431
				C443.734,207.556,432.445,196.267,418.569,196.267z M162.133,110.933c0-51.755,42.112-93.867,93.867-93.867
				c51.755,0,93.867,42.112,93.867,93.867v85.333h-17.067v-85.333c0-42.342-34.449-76.8-76.8-76.8s-76.8,34.458-76.8,76.8v85.333
				h-17.067V110.933z M196.266,196.267v-85.333c0-32.939,26.803-59.733,59.733-59.733s59.733,26.795,59.733,59.733v85.333H196.266z
				 M93.432,213.333h60.167h34.133h136.533h34.133h60.17c4.463,0,8.098,3.635,8.098,8.098v222.302H85.334V221.431
				C85.334,216.969,88.969,213.333,93.432,213.333z M418.569,494.933H93.432c-4.463,0-8.098-3.635-8.098-8.098V460.8h341.333v26.035
				C426.668,491.298,423.032,494.933,418.569,494.933z"/>
		</g>
	</g>
</g>
<g>
</g>
<g>
</g>
<g>
</g>
<g>
</g>
<g>
</g>
<g>
</g>
<g>
</g>
<g>
</g>
<g>
</g>
<g>
</g>
<g>
</g>
<g>
</g>
<g>
</g>
<g>
</g>
<g>
</g>
</svg>
