<?xml version="1.0" encoding="iso-8859-1"?>
<!-- Generator: Adobe Illustrator 19.0.0, SVG Export Plug-In . SVG Version: 6.00 Build 0)  -->
<svg version="1.1" id="Capa_1" xmlns="http://www.w3.org/2000/svg" xmlns:xlink="http://www.w3.org/1999/xlink" x="0px" y="0px"
	 viewBox="0 0 512 512" style="enable-background:new 0 0 512 512;" xml:space="preserve">
<g>
	<g>
		<g>
			<path d="M509.759,329.507c-5.665-12.746-22.181-21.901-49.157-27.299l2.388-18.203c3.56-27.142-13.11-52.345-38.306-60.419
				l13.594-103.632c0.227,0.004,0.457,0.022,0.683,0.022c15.228,0,28.799-9.894,33.269-24.857l4.579-15.324
				c0.839-2.807,0.404-5.841-1.189-8.3c-1.594-2.459-4.185-4.095-7.09-4.476l-65.655-8.612c-2.914-0.376-5.832,0.532-8.005,2.496
				c-2.174,1.965-3.377,4.785-3.291,7.713l0.472,15.986c0.468,15.844,11.343,29.051,26.399,32.758l-13.592,103.624
				c-26.423,1.3-49.032,21.354-52.593,48.496l-4.157,31.688c-2.614,0.396-5.183,0.796-7.719,1.191
				c-40.426,6.304-67.839,10.568-128.653-25.404l-7.372-51.467c3.959-4.31,7.381-8.955,10.256-13.934
				c16.421-28.443,8.354-56.944,8.003-58.143c-1.446-4.934-6.402-7.961-11.448-7.015l-17.663,3.331l-0.169-1.177
				c-0.557-3.885-2.707-7.424-5.899-9.708c-3.192-2.285-7.236-3.177-11.093-2.451l-110.78,20.886
				c-3.887,0.733-7.343,3.062-9.482,6.389c-2.139,3.327-2.824,7.438-1.878,11.278l0.246,1l-17.726,3.342
				c-5.052,0.953-8.558,5.58-8.108,10.702c0.109,1.245,2.975,30.728,28.626,51.237c4.788,3.829,10.023,7.071,15.682,9.742
				l3.722,15.115c-30.312,14.659-55.87,38.325-68.639,54.286c-8.711,10.888-8.77,20.696-7.286,27.006
				c1.739,7.392,6.269,13.308,11.025,17.73c-0.02,0.377-0.024,0.756-0.001,1.136l3.797,62.657
				c0.842,13.896,12.406,24.78,26.327,24.78h422.286c13.712,0,25.265-10.711,26.3-24.382l4.464-58.912
				C510.395,355.917,515.39,342.177,509.759,329.507z M50.566,197.029l8.68-1.637l6.594,26.778
				C57.144,213.749,52.742,203.931,50.566,197.029z M412.04,84.012l-0.126-4.25l42.373,5.558l-1.218,4.076
				c-2.093,7.005-8.871,11.406-16.126,10.451l-12.018-1.577C417.675,97.318,412.254,91.323,412.04,84.012z M372.091,272.081
				c2.57-19.594,20.59-33.442,40.196-30.874c9.492,1.245,17.93,6.112,23.762,13.704c5.831,7.592,8.357,17.001,7.112,26.492
				l-2.327,17.74c-23.141-2.669-50.392-2.942-72.2-0.713L372.091,272.081z M204.747,167.959c0.473,7.005-0.02,17.305-4.622,27.945
				l-3.776-26.362L204.747,167.959z M189.698,264.151l2.365,16.509c0.249,1.738-0.371,3.488-1.657,4.68
				c-0.002,0.002-0.005,0.005-0.007,0.007l-0.346,0.321c-0.329,0.305-0.667,0.596-1,0.894
				c-21.94,19.649-53.556,25.275-80.951,14.283c-1.595-0.641-2.792-2.018-3.202-3.685l-4.742-19.258l-4.792-19.461l-0.087-0.352
				c0.242,0.047,0.478,0.1,0.72,0.144c7.042,1.285,14.54,1.936,22.49,1.935c7.284-0.001,14.95-0.541,22.976-1.625
				c0.345-0.047,0.687-0.111,1.025-0.193c5.681-1.381,11.075-2.96,16.191-4.727c10.388-3.587,19.607-7.965,27.63-13.118
				L189.698,264.151z M75.029,175.845l99.339-18.73l8.735,60.981c-10.972,9.108-25.947,16.049-44.829,20.699
				c-18.854,2.491-35.033,1.584-48.398-2.655L75.029,175.845z M481.41,355.639h-51.777c-5.522,0-9.999,4.477-9.999,9.999
				c0,5.519,4.477,9.996,9.999,9.996h38.17h6.67l-2.227,29.39l-1.725,22.76c-0.25,3.305-3.044,5.895-6.359,5.895H41.878
				c-3.366,0-6.162-2.632-6.365-5.991l-1.421-23.448l-1.734-28.605h11.564h305.721c5.522,0,9.999-4.477,9.999-9.999
				c0-5.522-4.477-9.999-9.999-9.999H32.535c-4.023-2.293-11.06-7.301-12.347-12.874c-0.248-1.074-1.004-4.344,3.442-9.901
				c2.459-3.074,24.148-29.421,57.926-46.872l3.928,15.953c1.946,7.903,7.617,14.431,15.172,17.463
				c11.705,4.698,24.018,6.982,36.263,6.982c24.326,0,48.37-9.02,66.742-26.063l0.352-0.327c0.964-0.895,1.84-1.863,2.643-2.88
				c63.765,36.378,96.349,31.309,136.812,25.002c1.397-0.218,2.812-0.437,4.229-0.656c5.987-0.925,12.167-1.85,18.737-2.661
				c22.574-2.793,52.841-2.466,77.105,0.831c5.308,0.721,10.109,1.554,14.454,2.464c21.341,4.469,31.411,10.848,33.491,15.532
				C493.191,341.47,489.441,348.087,481.41,355.639z"/>
			<path d="M398.874,361.806c-0.25-0.6-0.559-1.18-0.92-1.72c-0.37-0.55-0.79-1.059-1.25-1.519c-0.46-0.46-0.97-0.88-1.519-1.25
				c-0.54-0.36-1.12-0.67-1.72-0.92c-0.609-0.25-1.239-0.44-1.87-0.57c-3.25-0.65-6.709,0.42-9.028,2.74
				c-0.46,0.46-0.88,0.97-1.24,1.519c-0.36,0.54-0.67,1.12-0.92,1.72c-0.25,0.61-0.44,1.24-0.57,1.87c-0.13,0.65-0.2,1.31-0.2,1.96
				c0,0.65,0.07,1.31,0.2,1.95c0.13,0.641,0.32,1.27,0.57,1.87c0.25,0.61,0.559,1.19,0.92,1.73c0.36,0.55,0.78,1.059,1.24,1.519
				c1.859,1.86,4.439,2.929,7.069,2.929c0.65,0,1.31-0.069,1.96-0.199c0.631-0.131,1.261-0.32,1.87-0.57
				c0.6-0.25,1.181-0.56,1.72-0.92c0.55-0.36,1.059-0.78,1.519-1.24c0.46-0.46,0.88-0.97,1.25-1.519c0.36-0.54,0.67-1.12,0.92-1.73
				c0.25-0.6,0.44-1.229,0.57-1.87c0.13-0.64,0.189-1.3,0.189-1.95c0-0.649-0.06-1.309-0.189-1.96
				C399.315,363.046,399.124,362.416,398.874,361.806z"/>
		</g>
	</g>
</g>
<g>
</g>
<g>
</g>
<g>
</g>
<g>
</g>
<g>
</g>
<g>
</g>
<g>
</g>
<g>
</g>
<g>
</g>
<g>
</g>
<g>
</g>
<g>
</g>
<g>
</g>
<g>
</g>
<g>
</g>
</svg>
