<?xml version="1.0" encoding="iso-8859-1"?>
<!-- Generator: Adobe Illustrator 19.0.0, SVG Export Plug-In . SVG Version: 6.00 Build 0)  -->
<svg version="1.1" id="Capa_1" xmlns="http://www.w3.org/2000/svg" xmlns:xlink="http://www.w3.org/1999/xlink" x="0px" y="0px"
	 viewBox="0 0 480.198 480.198" style="enable-background:new 0 0 480.198 480.198;" xml:space="preserve">
<g>
	<g>
		<path d="M240,384.094c-17.673,0-32,14.327-32,32c0,17.673,14.327,32,32,32c17.673,0,32-14.327,32-32
			C272,398.421,257.673,384.094,240,384.094z M240,432.094c-8.837,0-16-7.163-16-16s7.163-16,16-16s16,7.163,16,16
			S248.837,432.094,240,432.094z"/>
	</g>
</g>
<g>
	<g>
		<path d="M336.056,64.094c-7.554-10.102-19.442-16.036-32.056-16c-22.029-0.062-39.938,17.746-40,39.776
			c-0.035,12.614,5.898,24.502,16,32.056v40.168c0,4.418,3.582,8,8,8h32c4.418,0,8-3.582,8-8v-40.168
			C345.642,106.733,349.249,81.736,336.056,64.094z M316,108.742c-2.47,1.426-3.994,4.06-4,6.912v36.44h-16v-36.44
			c-0.006-2.852-1.53-5.486-4-6.912c-7.422-4.224-12.004-12.108-12-20.648c0-13.255,10.745-24,24-24s24,10.745,24,24
			C328.004,96.634,323.422,104.518,316,108.742z"/>
	</g>
</g>
<g>
	<g>
		<path d="M478.88,136.276c-7.684-46.14-47.521-80.014-94.296-80.182C364.777,9.385,310.855-12.424,264.146,7.383
			c-17.736,7.521-32.659,20.428-42.658,36.895c-39.669-31.75-97.565-25.33-129.315,14.339C79.117,74.929,72.003,95.2,72,116.094v20
			H56c-30.928,0-56,25.072-56,56c0,30.928,25.072,56,56,56h8v48h16v-48h16v56c0,1.452,0.396,2.876,1.144,4.12L120,346.31v39.256
			c-12.497,4.418-19.046,18.131-14.627,30.627c4.418,12.497,18.131,19.046,30.627,14.627c12.497-4.418,19.046-18.131,14.627-30.627
			c-2.416-6.835-7.793-12.211-14.627-14.627v-41.472c0-1.452-0.396-2.876-1.144-4.12L112,301.878v-53.784h48v8c0,4.418,3.582,8,8,8
			h48v16h-24c-4.418,0-8,3.582-8,8v32c0,4.418,3.582,8,8,8h24v28.688c-32.767,13.255-48.584,50.563-35.33,83.33
			c13.255,32.767,50.563,48.584,83.33,35.33c32.767-13.255,48.584-50.563,35.33-83.33c-6.503-16.077-19.253-28.826-35.33-35.33
			V248.094h72v81.472c-12.497,4.418-19.046,18.131-14.627,30.627c4.418,12.497,18.131,19.046,30.627,14.627
			s19.046-18.131,14.627-30.627c-2.416-6.835-7.793-12.211-14.627-14.627v-81.472h32v56c0,1.452,0.396,2.876,1.144,4.12L408,346.31
			v39.256c-12.497,4.418-19.046,18.131-14.627,30.627s18.131,19.046,30.627,14.627c12.497-4.418,19.046-18.131,14.627-30.627
			c-2.416-6.835-7.793-12.211-14.627-14.627v-41.472c0-1.452-0.396-2.876-1.144-4.12L400,301.878v-55.2
			C452.269,237.973,487.584,188.545,478.88,136.276z M128,400.094c4.418,0,8,3.582,8,8s-3.582,8-8,8s-8-3.582-8-8
			S123.582,400.094,128,400.094z M416,400.094c4.418,0,8,3.582,8,8s-3.582,8-8,8s-8-3.582-8-8S411.582,400.094,416,400.094z
			 M288,416.094c0.007,26.51-21.477,48.006-47.987,48.013c-26.51,0.007-48.006-21.477-48.013-47.987
			c-0.006-21.23,13.936-39.943,34.28-46.011c3.392-1.008,5.718-4.125,5.72-7.664v-42.352c0-4.418-3.582-8-8-8h-24v-16h24
			c4.418,0,8-3.582,8-8v-32c0-4.418-3.582-8-8-8h-48v-16h72v130.352c0.002,3.539,2.328,6.656,5.72,7.664
			C274.001,376.252,287.905,394.903,288,416.094z M344,360.094c-4.418,0-8-3.582-8-8s3.582-8,8-8s8,3.582,8,8
			S348.418,360.094,344,360.094z M384,232.094H264v-8c0-4.418-3.582-8-8-8h-88c-4.418,0-8,3.582-8,8v8H56c-22.091,0-40-17.909-40-40
			s17.909-40,40-40h24c4.418,0,8-3.582,8-8v-28c0.021-41.974,34.065-75.983,76.039-75.961c20.286,0.01,39.727,8.131,53.993,22.553
			c3.105,3.143,8.17,3.174,11.314,0.07c0.686-0.678,1.244-1.474,1.646-2.349c17.448-38.107,62.484-54.855,100.592-37.407
			c18.722,8.572,33.157,24.384,39.992,43.807c1.146,3.179,4.165,5.296,7.544,5.288H384c44.183,0,80,35.817,80,80
			S428.183,232.094,384,232.094z"/>
	</g>
</g>
<g>
	<g>
		<path d="M478.856,379.974L456,341.878v-45.784h-16v48c0,1.452,0.396,2.876,1.144,4.12L464,386.31v93.784h16v-96
			C480,382.642,479.604,381.218,478.856,379.974z"/>
	</g>
</g>
<g>
	<g>
		<path d="M86.627,327.994C82.209,315.498,68.497,308.949,56,313.367c-12.497,4.418-19.046,18.131-14.627,30.627
			c2.416,6.835,7.793,12.211,14.627,14.627v36.056l-34.976,13.984c-3.037,1.217-5.026,4.16-5.024,7.432v64h16V421.51l34.976-13.984
			c3.037-1.217,5.026-4.16,5.024-7.432v-41.472C84.497,354.204,91.046,340.491,86.627,327.994z M64,344.094c-4.418,0-8-3.582-8-8
			s3.582-8,8-8s8,3.582,8,8S68.418,344.094,64,344.094z"/>
	</g>
</g>
<g>
</g>
<g>
</g>
<g>
</g>
<g>
</g>
<g>
</g>
<g>
</g>
<g>
</g>
<g>
</g>
<g>
</g>
<g>
</g>
<g>
</g>
<g>
</g>
<g>
</g>
<g>
</g>
<g>
</g>
</svg>
