<svg xmlns="http://www.w3.org/2000/svg" width="60" height="60" viewBox="0 0 60 60">
  <path id="Icon_awesome-linkedin" data-name="Icon awesome-linkedin" d="M55.714,2.25H4.272A4.3,4.3,0,0,0,0,6.576V57.924A4.3,4.3,0,0,0,4.272,62.25H55.714A4.316,4.316,0,0,0,60,57.924V6.576A4.316,4.316,0,0,0,55.714,2.25ZM18.134,53.679H9.241V25.045h8.906V53.679ZM13.688,21.134a5.156,5.156,0,1,1,5.156-5.156,5.158,5.158,0,0,1-5.156,5.156ZM51.469,53.679H42.576V39.75c0-3.321-.067-7.594-4.621-7.594-4.634,0-5.344,3.616-5.344,7.353v14.17H23.719V25.045H32.25v3.911h.121a9.367,9.367,0,0,1,8.424-4.621c9,0,10.674,5.933,10.674,13.647Z" transform="translate(0 -2.25)" fill="#fff"/>
</svg>
