<svg id="Layer_5" enable-background="new 0 0 64 64" height="512" viewBox="0 0 64 64" width="512" xmlns="http://www.w3.org/2000/svg"><g><path d="m60 5h-56c-1.654 0-3 1.346-3 3v48c0 1.654 1.346 3 3 3h56c1.654 0 3-1.346 3-3v-48c0-1.654-1.346-3-3-3zm-56 2h56c.552 0 1 .449 1 1v9h-58v-9c0-.551.448-1 1-1zm15 12h42v12h-42zm-2 12h-14v-12h14zm-14 25v-23h14v24h-13c-.552 0-1-.449-1-1zm57 1h-41v-24h42v23c0 .551-.448 1-1 1z"/><path d="m8 15c1.654 0 3-1.346 3-3s-1.346-3-3-3-3 1.346-3 3 1.346 3 3 3zm0-4c.552 0 1 .449 1 1s-.448 1-1 1-1-.449-1-1 .448-1 1-1z"/><path d="m16 15c1.654 0 3-1.346 3-3s-1.346-3-3-3-3 1.346-3 3 1.346 3 3 3zm0-4c.552 0 1 .449 1 1s-.448 1-1 1-1-.449-1-1 .448-1 1-1z"/><path d="m24 15c1.654 0 3-1.346 3-3s-1.346-3-3-3-3 1.346-3 3 1.346 3 3 3zm0-4c.552 0 1 .449 1 1s-.448 1-1 1-1-.449-1-1 .448-1 1-1z"/><path d="m15 29v-8h-10v8zm-8-6h6v4h-6z"/><path d="m53 21c-2.206 0-4 1.794-4 4s1.794 4 4 4 4-1.794 4-4-1.794-4-4-4zm0 6c-1.103 0-2-.897-2-2s.897-2 2-2 2 .897 2 2-.897 2-2 2z"/><path d="m41 21c-2.206 0-4 1.794-4 4s1.794 4 4 4 4-1.794 4-4-1.794-4-4-4zm0 6c-1.103 0-2-.897-2-2s.897-2 2-2 2 .897 2 2-.897 2-2 2z"/><path d="m29 21c-2.206 0-4 1.794-4 4s1.794 4 4 4 4-1.794 4-4-1.794-4-4-4zm0 6c-1.103 0-2-.897-2-2s.897-2 2-2 2 .897 2 2-.897 2-2 2z"/><path d="m5 37v6h10v-6zm8 4h-6v-2h6z"/><path d="m5 53h10v-6h-10zm2-4h6v2h-6z"/><path d="m37 53h-2v-18h-6v18h-2v-14h-6v16h22v-10h-6zm-12 0h-2v-12h2zm6-16h2v16h-2zm8 10h2v6h-2z"/><path d="m45 43h14v-8h-14zm2-6h10v4h-10z"/><path d="m45 45h2v2h-2z"/><path d="m49 45h10v2h-10z"/><path d="m45 49h2v2h-2z"/><path d="m49 49h10v2h-10z"/><path d="m45 53h2v2h-2z"/><path d="m49 53h10v2h-10z"/></g></svg>