<?xml version="1.0" encoding="iso-8859-1"?>
<!-- Generator: Adobe Illustrator 19.0.0, SVG Export Plug-In . SVG Version: 6.00 Build 0)  -->
<svg version="1.1" id="Capa_1" xmlns="http://www.w3.org/2000/svg" xmlns:xlink="http://www.w3.org/1999/xlink" x="0px" y="0px"
	 viewBox="0 0 512 512" style="enable-background:new 0 0 512 512;" xml:space="preserve">
<g>
	<g>
		<path d="M448,144c-35.104,0-63.648,28.416-63.936,63.456l-56.128,14.208c-10.688-22.272-31.104-38.976-55.936-44.032v-51.904
			c27.52-7.168,48-32,48-61.728c0-35.296-28.704-64-64-64c-35.296,0-64,28.704-64,64c0,29.728,20.48,54.56,48,61.728v51.904
			c-24.832,5.056-45.248,21.76-55.936,44.032l-56.128-14.208C127.648,172.416,99.104,144,64,144c-35.296,0-64,28.704-64,64
			s28.704,64,64,64c24.224,0,45.088-13.664,55.936-33.568l56.384,14.272c-0.032,1.12-0.32,2.176-0.32,3.296
			c0,21.952,8.896,41.856,23.264,56.32L148.8,387.776C142.272,385.504,135.328,384,128,384c-35.296,0-64,28.704-64,64
			c0,35.296,28.704,64,64,64s64-28.704,64-64c0-16.384-6.368-31.168-16.512-42.496l50.464-75.456
			C235.232,333.824,245.376,336,256,336c10.624,0,20.768-2.176,30.048-5.952l50.464,75.456C326.368,416.832,320,431.616,320,448
			c0,35.296,28.704,64,64,64c35.296,0,64-28.704,64-64c0-35.296-28.704-64-64-64c-7.328,0-14.272,1.504-20.832,3.776l-50.432-75.456
			C327.104,297.856,336,277.952,336,256c0-1.12-0.288-2.176-0.32-3.296l56.384-14.272C402.912,258.336,423.776,272,448,272
			c35.296,0,64-28.704,64-64S483.296,144,448,144z M64,240c-17.664,0-32-14.368-32-32s14.336-32,32-32s32,14.368,32,32
			S81.664,240,64,240z M128,480c-17.664,0-32-14.368-32-32c0-17.632,14.336-32,32-32s32,14.368,32,32
			C160,465.632,145.664,480,128,480z M224,64c0-17.632,14.336-32,32-32s32,14.368,32,32s-14.336,32-32,32S224,81.632,224,64z
			 M256,304c-26.464,0-48-21.536-48-48s21.536-48,48-48s48,21.536,48,48S282.464,304,256,304z M384,416c17.664,0,32,14.368,32,32
			c0,17.632-14.336,32-32,32s-32-14.368-32-32C352,430.368,366.336,416,384,416z M448,240c-17.664,0-32-14.368-32-32
			s14.336-32,32-32s32,14.368,32,32S465.664,240,448,240z"/>
	</g>
</g>
<g>
</g>
<g>
</g>
<g>
</g>
<g>
</g>
<g>
</g>
<g>
</g>
<g>
</g>
<g>
</g>
<g>
</g>
<g>
</g>
<g>
</g>
<g>
</g>
<g>
</g>
<g>
</g>
<g>
</g>
</svg>
