<svg id="Layer_5" enable-background="new 0 0 64 64" height="512" viewBox="0 0 64 64" width="512" xmlns="http://www.w3.org/2000/svg"><g><path d="m49 1c-1.298 0-11.734.092-13.686 3h-17.456c-.447-1.721-2-3-3.858-3-2.206 0-4 1.794-4 4 0 1.859 1.28 3.411 3 3.858v6.142h-9c-1.654 0-3 1.346-3 3v16c0 1.654 1.346 3 3 3h9v4h-9c-1.654 0-3 1.346-3 3v16c0 1.654 1.346 3 3 3h20c1.654 0 3-1.346 3-3v-16c0-1.654-1.346-3-3-3h-9v-4h9c1.654 0 3-1.346 3-3v-16c0-1.654-1.346-3-3-3h-9v-6.142c1.399-.364 2.494-1.459 2.858-2.858h17.142v17c0 1.127 1.034 1.824 1.917 2.235-.585 1.477-.917 3.082-.917 4.765 0 6.134 4.276 11.277 10 12.637v2.363c0 .061.013.119.018.179-1.171.409-2.018 1.512-2.018 2.821v10c0 2.757 2.243 5 5 5s5-2.243 5-5v-10c0-1.309-.847-2.412-2.018-2.821.005-.06.018-.118.018-.179v-2.363c5.724-1.36 10-6.503 10-12.637 0-1.683-.332-3.288-.917-4.765.88-.409 1.917-1.107 1.917-2.235v-18c0-3.888-12.567-4-14-4zm-24 59c0 .552-.449 1-1 1h-20c-.551 0-1-.448-1-1v-9h22zm-1-17c.551 0 1 .448 1 1v5h-22v-5c0-.552.449-1 1-1zm1-9c0 .552-.449 1-1 1h-20c-.551 0-1-.448-1-1v-9h22zm-1-17c.551 0 1 .448 1 1v5h-22v-5c0-.552.449-1 1-1zm-10-10c-1.103 0-2-.897-2-2s.897-2 2-2 2 .897 2 2-.897 2-2 2zm35-4c6.93 0 11.228 1.233 11.945 2-.717.767-5.015 2-11.945 2s-11.228-1.233-11.945-2c.717-.767 5.015-2 11.945-2zm-12 19.927v-3.654c.859.396 1.998.729 3.405 1-1.028.909-1.909 1.975-2.608 3.165-.546-.251-.742-.443-.797-.511zm15 25.073v10c0 1.654-1.346 3-3 3s-3-1.346-3-3v-10c0-.552.449-1 1-1h1 2 1c.551 0 1 .448 1 1zm-4-3v-2.051c.331.026.662.051 1 .051s.669-.025 1-.051v2.051zm1-4c-6.065 0-11-4.935-11-11s4.935-11 11-11 11 4.935 11 11-4.935 11-11 11zm12-18.073c-.055.068-.251.26-.797.51-.699-1.189-1.58-2.256-2.608-3.165 1.408-.271 2.546-.604 3.405-1zm0-6.001c-.215.302-1.637 1.158-5.731 1.693-1.86-1.029-3.996-1.619-6.269-1.619s-4.408.59-6.269 1.618c-4.094-.535-5.516-1.391-5.731-1.693v-3.655c3.606 1.667 10.927 1.73 12 1.73s8.394-.063 12-1.729zm0-6.003c-.484.758-4.831 2.077-12 2.077s-11.516-1.319-12-2.077v-3.652c3.606 1.666 10.927 1.729 12 1.729s8.394-.063 12-1.729z"/><path d="m49 21c-4.962 0-9 4.037-9 9s4.038 9 9 9 9-4.037 9-9-4.038-9-9-9zm0 16c-3.86 0-7-3.141-7-7s3.14-7 7-7 7 3.141 7 7-3.14 7-7 7z"/><path d="m48 29h2v2h-2z"/><path d="m52 29h2v2h-2z"/><path d="m44 29h2v2h-2z"/><path d="m5 19h2v2h-2z"/><path d="m9 19h2v2h-2z"/><path d="m13 19h2v2h-2z"/><path d="m13 27h-8v6h8zm-2 4h-4v-2h4z"/><path d="m15 27h8v2h-8z"/><path d="m15 31h8v2h-8z"/><path d="m5 45h2v2h-2z"/><path d="m9 45h2v2h-2z"/><path d="m13 45h2v2h-2z"/><path d="m13 53h-8v6h8zm-2 4h-4v-2h4z"/><path d="m15 53h8v2h-8z"/><path d="m15 57h8v2h-8z"/></g></svg>