<svg id="Capa_1" enable-background="new 0 0 512 512" height="512" viewBox="0 0 512 512" width="512" xmlns="http://www.w3.org/2000/svg"><g><g><path d="m485.871 16.987h-459.77c-14.392 0-26.101 11.709-26.101 26.101v324.711c0 14.408 11.709 26.13 26.101 26.13h135.018v39.103h-50.207c-17.08 0-30.976 13.896-30.976 30.977v21.005c0 5.522 4.478 10 10 10h332.129c5.522 0 10-4.478 10-10v-21.005c0-17.08-13.908-30.977-31.004-30.977h-50.179v-39.103h134.989c14.407 0 26.129-11.722 26.129-26.13v-324.711c0-14.392-11.722-26.101-26.129-26.101zm-73.807 447.021v11.005h-312.128v-11.005c0-6.053 4.924-10.977 10.976-10.977h290.149c6.067 0 11.003 4.924 11.003 10.977zm-81.182-30.977h-149.764v-39.103h149.764zm154.989-59.102h-459.77c-3.307 0-6.101-2.808-6.101-6.13v-20.104h191.086c5.522 0 10-4.478 10-10s-4.478-10-10-10h-191.086v-284.607c0-3.307 2.794-6.101 6.101-6.101h459.771c3.322 0 6.129 2.794 6.129 6.101v284.607h-191.115c-5.522 0-10 4.478-10 10s4.478 10 10 10h191.114v20.104c0 3.322-2.807 6.13-6.129 6.13z"/><path d="m448.058 220.46h-135.522c-5.522 0-10 4.478-10 10v62.249c0 5.522 4.478 10 10 10h135.521c5.522 0 10-4.478 10-10v-62.249c.001-5.522-4.477-10-9.999-10zm-10 62.249h-115.522v-42.249h115.521v42.249z"/><path d="m262.647 151.436h-1.421c-1.93-6.256-4.45-12.321-7.541-18.143l.979-.984c3.554-3.523 5.51-8.229 5.51-13.251s-1.956-9.729-5.479-13.223l-17.205-17.205c-3.523-3.553-8.229-5.51-13.25-5.51-.001 0-.001 0-.002 0-5.021 0-9.728 1.956-13.223 5.479l-1.004 1.004c-5.803-3.073-11.87-5.59-18.15-7.527v-1.4c0-10.328-8.39-18.73-18.702-18.73h-24.378c-10.312 0-18.702 8.402-18.702 18.73v1.4c-6.28 1.938-12.348 4.454-18.15 7.527l-1.004-1.004c-3.535-3.534-8.232-5.479-13.232-5.479-.013 0-.025 0-.038 0-5.001.01-9.689 1.966-13.169 5.475l-17.269 17.24c-3.52 3.521-5.459 8.216-5.459 13.223 0 5.006 1.939 9.701 5.459 13.221l1.022 1.023c-3.081 5.798-5.598 11.859-7.528 18.134h-1.417c-10.312 0-18.702 8.39-18.702 18.702v24.378c0 10.328 8.39 18.731 18.702 18.731h1.417c1.93 6.269 4.442 12.325 7.52 18.118l-1.043 1.039c-7.222 7.282-7.222 19.131.035 26.449l17.257 17.229c7.262 7.26 19.111 7.273 26.445 0l1.003-1.004c5.81 3.076 11.877 5.589 18.151 7.516v1.413c0 10.312 8.39 18.702 18.702 18.702h24.378c10.312 0 18.702-8.39 18.702-18.702v-1.413c6.274-1.927 12.342-4.439 18.151-7.516l1.003 1.004c3.521 3.521 8.217 5.459 13.223 5.459 5.007 0 9.703-1.939 13.223-5.459l17.234-17.234c3.533-3.534 5.479-8.235 5.479-13.237s-1.946-9.702-5.479-13.236l-1.001-1.001c3.087-5.816 5.604-11.875 7.532-18.126h1.421c10.312 0 18.702-8.403 18.702-18.731v-24.378c.001-10.314-8.389-18.703-18.702-18.703zm-1.297 41.811h-7.802c-4.678 0-8.73 3.242-9.757 7.807-2.112 9.397-5.832 18.352-11.055 26.614-2.498 3.952-1.924 9.107 1.382 12.414l5.529 5.528-15.409 15.409-5.515-5.515c-3.307-3.305-8.461-3.879-12.415-1.381-8.219 5.195-17.181 8.905-26.636 11.025-4.566 1.024-7.812 5.078-7.812 9.758v7.802h-21.782v-7.802c0-4.68-3.245-8.733-7.812-9.758-9.455-2.12-18.417-5.83-26.636-11.025-3.951-2.497-9.106-1.925-12.415 1.381l-5.516 5.516-15.434-15.408 5.539-5.515c3.325-3.311 3.901-8.488 1.386-12.448-5.201-8.188-8.916-17.136-11.043-26.596-1.026-4.564-5.079-7.807-9.757-7.807h-7.801v-21.812h7.801c4.678 0 8.73-3.242 9.757-7.807 2.127-9.46 5.842-18.408 11.043-26.595 2.511-3.954 1.941-9.121-1.37-12.433l-5.542-5.544 15.421-15.396 5.516 5.516c3.308 3.307 8.464 3.879 12.414 1.382 8.205-5.187 17.175-8.907 26.661-11.06 4.555-1.033 7.787-5.082 7.787-9.752v-7.802h21.782v7.802c0 4.67 3.232 8.719 7.787 9.752 9.486 2.152 18.456 5.873 26.661 11.06 3.949 2.497 9.106 1.923 12.414-1.382l5.515-5.515 15.396 15.397-5.532 5.558c-3.293 3.308-3.859 8.452-1.366 12.397 5.223 8.263 8.942 17.217 11.055 26.614 1.026 4.564 5.079 7.807 9.757 7.807h7.802v21.814z"/><path d="m219.192 152.709c-.363-3.027-2.143-5.803-4.758-7.378l-48.301-29.112c-3.176-1.914-7.148-1.913-10.322-.002l-48.33 29.112c-2.96 1.783-4.84 5.11-4.84 8.566v56.892c0 3.507 1.837 6.757 4.84 8.566l48.33 29.112c3.132 1.887 7.188 1.886 10.322-.002l48.301-29.112c3.002-1.81 4.838-5.059 4.838-8.564v-56.892c-.001-.393-.033-.795-.08-1.186zm-58.223-16.251 28.931 17.437-28.931 17.437-28.947-17.437zm-38.328 35.135 28.33 17.065v33.544l-28.33-17.065zm76.63 33.546-28.301 17.058v-33.541l28.301-17.057z"/><path d="m357.436 102.752h90.622c5.522 0 10-4.478 10-10s-4.478-10-10-10h-90.622c-5.522 0-10 4.478-10 10s4.477 10 10 10z"/><path d="m312.536 102.752h.057c5.522 0 9.972-4.478 9.972-10s-4.506-10-10.028-10-10 4.478-10 10 4.477 10 9.999 10z"/><path d="m357.407 146.065h90.594c5.522 0 10-4.478 10-10s-4.478-10-10-10h-90.594c-5.522 0-10 4.478-10 10s4.478 10 10 10z"/><path d="m312.508 146.065h.028c5.522 0 9.986-4.478 9.986-10s-4.492-10-10.015-10-10 4.478-10 10 4.478 10 10.001 10z"/><path d="m357.351 189.379h90.622c5.522 0 10-4.478 10-10s-4.478-10-10-10h-90.622c-5.522 0-10 4.478-10 10s4.477 10 10 10z"/><path d="m312.451 189.379h.057c5.522 0 9.972-4.478 9.972-10s-4.506-10-10.028-10-10 4.478-10 10 4.477 10 9.999 10z"/><path d="m255.985 327.695c-5.522 0-10 4.478-10 10s4.478 10 10 10h.058c5.522 0 9.972-4.478 9.972-10s-4.507-10-10.03-10z"/></g></g></svg>