<?xml version="1.0" encoding="iso-8859-1"?>
<!-- Generator: Adobe Illustrator 19.0.0, SVG Export Plug-In . SVG Version: 6.00 Build 0)  -->
<svg version="1.1" id="Layer_1" xmlns="http://www.w3.org/2000/svg" xmlns:xlink="http://www.w3.org/1999/xlink" x="0px" y="0px"
	 viewBox="0 0 512 512" style="enable-background:new 0 0 512 512;" xml:space="preserve">
<g>
	<g>
		<path d="M433.159,67.951H9.312C4.169,67.951,0,72.12,0,77.263v287.956c0,5.143,4.169,9.312,9.312,9.312h423.846
			c5.143,0,9.312-4.169,9.312-9.312V77.263C442.471,72.12,438.302,67.951,433.159,67.951z M423.846,355.907H18.625v-47.223h405.221
			V355.907z M423.846,290.059H18.625V137.336h405.221V290.059z M423.846,118.711H18.625V86.576h405.221V118.711z"/>
	</g>
</g>
<g>
	<g>
		<path d="M502.688,137.475h-41.595c-5.143,0-9.312,4.169-9.312,9.312s4.169,9.312,9.312,9.312h32.283v32.144h-32.283
			c-5.143,0-9.312,4.169-9.312,9.312c0,5.143,4.169,9.312,9.312,9.312h32.283v218.556H88.149v-32.271
			c0-5.143-4.169-9.312-9.312-9.312s-9.312,4.169-9.312,9.312v41.583c0,5.143,4.169,9.312,9.312,9.312h423.851
			c5.143,0,9.312-4.169,9.312-9.312v-287.95C512,141.644,507.831,137.475,502.688,137.475z"/>
	</g>
</g>
<g>
	<g>
		<path d="M221.236,146.038c-28.413,0-51.529,23.116-51.529,51.529s23.116,51.529,51.529,51.529s51.529-23.116,51.529-51.529
			S249.648,146.038,221.236,146.038z M221.236,230.472c-6.596-0.001-12.739-1.959-17.895-5.314c5.26-3.412,11.433-5.288,17.83-5.301
			c0.022,0,0.043,0.004,0.065,0.004c0.02,0,0.04-0.002,0.06-0.002c6.397,0.012,12.569,1.891,17.829,5.304
			C233.97,228.515,227.829,230.472,221.236,230.472z M215.746,195.747c0-3.027,2.462-5.489,5.489-5.489s5.489,2.462,5.489,5.489
			c0,3.015-2.444,5.466-5.453,5.486c-0.015,0-0.029-0.001-0.043-0.001c-0.011,0-0.021,0.001-0.032,0.001
			C218.187,201.21,215.746,198.76,215.746,195.747z M251.291,210.934c-2.615-1.881-5.389-3.514-8.293-4.869
			c1.491-3.134,2.352-6.623,2.352-10.318c0-13.297-10.817-24.114-24.114-24.114s-24.114,10.817-24.114,24.114
			c0,3.693,0.859,7.181,2.349,10.313c-2.904,1.355-5.678,2.987-8.294,4.866c-1.823-4.085-2.845-8.603-2.845-13.359
			c0-18.143,14.761-32.904,32.904-32.904s32.904,14.761,32.904,32.904C254.139,202.325,253.116,206.846,251.291,210.934z"/>
	</g>
</g>
<g>
	<g>
		<path d="M353.472,321.721h-94.124c-5.143,0-9.312,4.169-9.312,9.312s4.169,9.312,9.312,9.312h94.124
			c5.143,0,9.312-4.169,9.312-9.312S358.615,321.721,353.472,321.721z"/>
	</g>
</g>
<g>
	<g>
		<path d="M227.686,321.721h-60.22c-5.143,0-9.312,4.169-9.312,9.312s4.169,9.312,9.312,9.312h60.22
			c5.143,0,9.312-4.169,9.312-9.312S232.829,321.721,227.686,321.721z"/>
	</g>
</g>
<g>
	<g>
		<path d="M137.666,321.721H88.999c-5.143,0-9.312,4.169-9.312,9.312s4.169,9.312,9.312,9.312h48.667
			c5.143,0,9.312-4.169,9.312-9.312S142.809,321.721,137.666,321.721z"/>
	</g>
</g>
<g>
	<g>
		<path d="M273.006,260.266H169.465c-5.143,0-9.312,4.169-9.312,9.312s4.169,9.312,9.312,9.312h103.542
			c5.143,0,9.312-4.169,9.312-9.312S278.149,260.266,273.006,260.266z"/>
	</g>
</g>
<g>
	<g>
		<path d="M391.032,173.964h-58.839c-5.143,0-9.312,4.169-9.312,9.312s4.169,9.312,9.312,9.312h58.839
			c5.143,0,9.312-4.169,9.312-9.312S396.175,173.964,391.032,173.964z"/>
	</g>
</g>
<g>
	<g>
		<path d="M307.151,173.964h-2.414c-5.143,0-9.312,4.169-9.312,9.312s4.169,9.312,9.312,9.312h2.414
			c5.143,0,9.312-4.169,9.312-9.312S312.294,173.964,307.151,173.964z"/>
	</g>
</g>
<g>
	<g>
		<path d="M391.032,201.281h-17.453c-5.143,0-9.312,4.169-9.312,9.312s4.169,9.312,9.312,9.312h17.453
			c5.143,0,9.312-4.169,9.312-9.312S396.175,201.281,391.032,201.281z"/>
	</g>
</g>
<g>
	<g>
		<path d="M346.263,201.281h-41.526c-5.143,0-9.312,4.169-9.312,9.312s4.169,9.312,9.312,9.312h41.526
			c5.143,0,9.312-4.169,9.312-9.312S351.406,201.281,346.263,201.281z"/>
	</g>
</g>
<g>
	<g>
		<path d="M137.734,173.964h-23.246c-5.143,0-9.312,4.169-9.312,9.312s4.169,9.312,9.312,9.312h23.246
			c5.143,0,9.312-4.169,9.312-9.312S142.877,173.964,137.734,173.964z"/>
	</g>
</g>
<g>
	<g>
		<path d="M89.654,173.964H51.439c-5.143,0-9.312,4.169-9.312,9.312s4.169,9.312,9.312,9.312h38.214
			c5.143,0,9.312-4.169,9.312-9.312S94.797,173.964,89.654,173.964z"/>
	</g>
</g>
<g>
	<g>
		<path d="M137.734,201.281H51.439c-5.143,0-9.312,4.169-9.312,9.312s4.169,9.312,9.312,9.312h86.295
			c5.143,0,9.312-4.169,9.312-9.312S142.877,201.281,137.734,201.281z"/>
	</g>
</g>
<g>
	<g>
		<path d="M460.496,391.875h-96.849c-5.143,0-9.312,4.169-9.312,9.312c0,5.143,4.169,9.312,9.312,9.312h96.849
			c5.143,0,9.312-4.169,9.312-9.312C469.809,396.044,465.639,391.875,460.496,391.875z"/>
	</g>
</g>
<g>
	<g>
		<path d="M331.364,391.875h-24.833c-5.143,0-9.312,4.169-9.312,9.312c0,5.143,4.169,9.312,9.312,9.312h24.833
			c5.143,0,9.312-4.169,9.312-9.312C340.677,396.044,336.507,391.875,331.364,391.875z"/>
	</g>
</g>
<g>
	<g>
		<circle cx="39.572" cy="103.194" r="9.312"/>
	</g>
</g>
<g>
	<g>
		<circle cx="96.03" cy="103.194" r="9.312"/>
	</g>
</g>
<g>
	<g>
		<circle cx="67.799" cy="103.194" r="9.312"/>
	</g>
</g>
<g>
</g>
<g>
</g>
<g>
</g>
<g>
</g>
<g>
</g>
<g>
</g>
<g>
</g>
<g>
</g>
<g>
</g>
<g>
</g>
<g>
</g>
<g>
</g>
<g>
</g>
<g>
</g>
<g>
</g>
</svg>
