<?xml version="1.0" encoding="iso-8859-1"?>
<!-- Generator: Adobe Illustrator 19.0.0, SVG Export Plug-In . SVG Version: 6.00 Build 0)  -->
<svg version="1.1" id="Capa_1" xmlns="http://www.w3.org/2000/svg" xmlns:xlink="http://www.w3.org/1999/xlink" x="0px" y="0px"
	 viewBox="0 0 512.146 512.146" style="enable-background:new 0 0 512.146 512.146;" xml:space="preserve">
<g transform="translate(0 -1)">
	<g>
		<g>
			<path d="M377.301,48.027c-71.422-29.538-153.763-4.522-196.685,59.754s-34.473,149.918,20.18,204.568
				c30.416,30.454,71.713,47.533,114.754,47.458c77.289-0.084,143.76-54.742,158.776-130.558S448.723,77.565,377.301,48.027z
				 M450.158,253.155c-26.513,64.116-94.633,100.566-162.685,87.051S170.4,266.976,170.4,197.595
				c-0.067-38.514,15.214-75.468,42.462-102.687l0,0c49.001-49.119,125.88-56.772,183.603-18.278
				C454.189,115.124,476.671,189.039,450.158,253.155z"/>
			<path d="M454.606,58.545c-73.198-73.2-190.637-77.042-268.462-8.783s-89.333,185.196-26.304,267.315l-15.088,15.088
				c-5.861-1.584-12.123,0.074-16.431,4.352L19.583,445.253c-4.279,4.308-5.937,10.57-4.351,16.431L7.5,469.416
				C2.698,474.217,0,480.73,0,487.52s2.698,13.303,7.5,18.104l6.033-6.038l-6.012,6.059c4.8,4.802,11.312,7.5,18.102,7.5
				c6.79,0,13.302-2.698,18.102-7.5l7.734-7.734c5.861,1.676,12.17,0.005,16.432-4.353l108.733-108.734
				c4.28-4.308,5.938-10.57,4.352-16.431l15.089-15.089c82.117,63.031,199.055,51.527,267.316-26.297
				S527.804,131.744,454.606,58.545z M31.654,493.578c-3.374,3.225-8.688,3.225-12.063,0l-0.025-0.025v-0.004
				c-1.601-1.599-2.5-3.769-2.5-6.031c0-2.263,0.899-4.432,2.5-6.031l6.059-6.059l12.092,12.092L31.654,493.578z M55.825,481.491
				l-12.087-12.085l-12.079-12.081l-0.009-0.005l84.575-84.575l24.174,24.172L55.825,481.491z M152.466,384.85l-24.174-24.172
				l12.094-12.094l0.003,0.005l12.083,12.081l12.085,12.087L152.466,384.85z M170.587,354.649l-6.048-6.046l-6.046-6.047
				l12.399-12.399c1.933,2.108,3.7,4.313,5.741,6.355c2.041,2.041,4.245,3.808,6.352,5.74L170.587,354.649z M384.201,363.333
				c-67.035,27.767-144.195,12.419-195.501-38.888c-69.942-70.105-69.942-183.595,0-253.7
				c51.306-51.306,128.466-66.654,195.501-38.888c67.035,27.767,110.742,93.18,110.742,165.738S451.235,335.566,384.201,363.333z"/>
			<path d="M384.008,171.803c-9.422,0.009-17.057,7.645-17.067,17.067v42.667h-17.067v-76.8
				c-0.009-9.422-7.645-17.057-17.067-17.067h-25.6c-9.422,0.009-17.057,7.645-17.067,17.067v76.8h-17.067V120.603
				c-0.009-9.422-7.645-17.057-17.067-17.067h-25.6c-9.422,0.009-17.057,7.645-17.067,17.067V240.07c0,4.713,3.82,8.533,8.533,8.533
				h196.267c4.713,0,8.533-3.82,8.533-8.533v-51.2c-0.009-9.422-7.645-17.057-17.067-17.067H384.008z M256.008,231.537h-25.6
				l-0.012-110.933h25.612V231.537z M332.808,231.537h-25.6l-0.012-76.8h25.612V231.537z M409.608,231.537h-25.6l-0.012-42.667
				h25.612V231.537z"/>
			<path d="M401.075,265.67h-8.533c-4.713,0-8.533,3.821-8.533,8.533c0,4.713,3.82,8.533,8.533,8.533h8.533
				c4.713,0,8.533-3.821,8.533-8.533C409.608,269.491,405.788,265.67,401.075,265.67z"/>
			<path d="M324.275,265.67h-8.533c-4.713,0-8.533,3.821-8.533,8.533c0,4.713,3.82,8.533,8.533,8.533h8.533
				c4.713,0,8.533-3.821,8.533-8.533C332.808,269.491,328.988,265.67,324.275,265.67z"/>
			<path d="M247.475,265.67h-8.533c-4.713,0-8.533,3.821-8.533,8.533c0,4.713,3.82,8.533,8.533,8.533h8.533
				c4.713,0,8.533-3.821,8.533-8.533C256.008,269.491,252.188,265.67,247.475,265.67z"/>
		</g>
	</g>
</g>
<g>
</g>
<g>
</g>
<g>
</g>
<g>
</g>
<g>
</g>
<g>
</g>
<g>
</g>
<g>
</g>
<g>
</g>
<g>
</g>
<g>
</g>
<g>
</g>
<g>
</g>
<g>
</g>
<g>
</g>
</svg>
