<?xml version="1.0" encoding="iso-8859-1"?>
<!-- Generator: Adobe Illustrator 19.0.0, SVG Export Plug-In . SVG Version: 6.00 Build 0)  -->
<svg version="1.1" id="Capa_1" xmlns="http://www.w3.org/2000/svg" xmlns:xlink="http://www.w3.org/1999/xlink" x="0px" y="0px"
	 viewBox="0 0 480 480" style="enable-background:new 0 0 480 480;" xml:space="preserve">
<g>
	<g>
		<path d="M176,4C78.798,4,0,82.798,0,180v288c0,4.418,3.582,8,8,8h136c4.418,0,8-3.582,8-8v-40h96
			c30.913-0.035,55.965-25.087,56-56v-88h40c4.418,0,8-3.582,8-8v-96C352,82.798,273.202,4,176,4z M336,268h-40
			c-4.418,0-8,3.582-8,8v96c-0.026,22.08-17.92,39.974-40,40H144c-4.418,0-8,3.582-8,8v40H16V180C16,91.634,87.634,20,176,20
			s160,71.634,160,160V268z"/>
	</g>
</g>
<g>
	<g>
		<path d="M224,290.24v-26.464c20.327-16.622,32.082-41.518,32-67.776c0-48.601-39.399-88-88-88s-88,39.399-88,88
			c-0.082,26.258,11.673,51.154,32,67.776v26.464c-9.819,8.745-10.691,23.794-1.946,33.613c3.111,3.494,7.183,5.993,11.706,7.187
			c-4.993,12.231,0.875,26.193,13.106,31.186c2.899,1.184,6.003,1.786,9.134,1.774h48c13.211,0.045,23.956-10.628,24.001-23.839
			c0.011-3.116-0.588-6.203-1.761-9.089c12.718-3.339,20.321-16.356,16.982-29.073C230.028,297.452,227.515,293.361,224,290.24z
			 M192,348h-48c-4.418,0-8-3.582-8-8s3.582-8,8-8h48c4.418,0,8,3.582,8,8S196.418,348,192,348z M208,316h-80c-4.418,0-8-3.582-8-8
			s3.582-8,8-8h80c4.418,0,8,3.582,8,8S212.418,316,208,316z M211.2,253.504c-2.014,1.511-3.2,3.882-3.2,6.4V284h-80v-24.112
			c-0.005-2.512-1.19-4.877-3.2-6.384c-31.812-23.859-38.259-68.988-14.4-100.8s68.988-38.259,100.8-14.4s38.259,68.988,14.4,100.8
			C221.507,244.562,216.658,249.41,211.2,253.504z"/>
	</g>
</g>
<g>
	<g>
		<path d="M168,60c-4.418,0-8,3.582-8,8v16c0,4.418,3.582,8,8,8s8-3.582,8-8V68C176,63.582,172.418,60,168,60z"/>
	</g>
</g>
<g>
	<g>
		<path d="M108.64,100.688L99.2,87.744c-2.598-3.574-7.602-4.366-11.176-1.768s-4.366,7.602-1.768,11.176l9.44,12.944
			c2.598,3.574,7.602,4.366,11.176,1.768S111.238,104.262,108.64,100.688z"/>
	</g>
</g>
<g>
	<g>
		<path d="M63.952,153.76v0.024l-15.2-4.952c-4.259-1.176-8.665,1.322-9.841,5.581c-1.102,3.99,1.022,8.163,4.897,9.619l15.2,4.944
			c0.799,0.258,1.633,0.39,2.472,0.392c4.418-0.001,7.999-3.583,7.999-8.002C69.478,157.902,67.247,154.831,63.952,153.76z"/>
	</g>
</g>
<g>
	<g>
		<path d="M247.347,86.088c-3.424-2.218-7.968-1.504-10.547,1.656l-9.44,12.944c-2.598,3.574-1.807,8.577,1.767,11.175
			c1.365,0.992,3.009,1.528,4.697,1.529c2.563,0.003,4.973-1.223,6.48-3.296l9.408-12.944
			C252.114,93.444,251.055,88.49,247.347,86.088z"/>
	</g>
</g>
<g>
	<g>
		<path d="M296.867,153.753c-1.456-3.875-5.628-6-9.619-4.897l-15.2,4.952c-4.202,1.366-6.501,5.88-5.134,10.082
			c1.071,3.295,4.142,5.526,7.606,5.526l0-0.024c0.839-0.002,1.673-0.134,2.472-0.392l15.2-4.944
			C296.328,162.502,298.421,157.889,296.867,153.753z"/>
	</g>
</g>
<g>
	<g>
		<path d="M472,76h-24V52c0-4.418-3.582-8-8-8h-32c-4.418,0-8,3.582-8,8v24h-24c-4.418,0-8,3.582-8,8v32c0,4.418,3.582,8,8,8h24v24
			c0,4.418,3.582,8,8,8h32c4.418,0,8-3.582,8-8v-24h24c4.418,0,8-3.582,8-8V84C480,79.582,476.418,76,472,76z M464,108h-24
			c-4.418,0-8,3.582-8,8v24h-16v-24c0-4.418-3.582-8-8-8h-24V92h24c4.418,0,8-3.582,8-8V60h16v24c0,4.418,3.582,8,8,8h24V108z"/>
	</g>
</g>
<g>
	<g>
		<path d="M472,220h-24v-24c0-4.418-3.582-8-8-8h-32c-4.418,0-8,3.582-8,8v24h-24c-4.418,0-8,3.582-8,8v32c0,4.418,3.582,8,8,8h24
			v24c0,4.418,3.582,8,8,8h32c4.418,0,8-3.582,8-8v-24h24c4.418,0,8-3.582,8-8v-32C480,223.582,476.418,220,472,220z M464,252h-24
			c-4.418,0-8,3.582-8,8v24h-16v-24c0-4.418-3.582-8-8-8h-24v-16h24c4.418,0,8-3.582,8-8v-24h16v24c0,4.418,3.582,8,8,8h24V252z"/>
	</g>
</g>
<g>
	<g>
		<path d="M472,364h-24v-24c0-4.418-3.582-8-8-8h-32c-4.418,0-8,3.582-8,8v24h-24c-4.418,0-8,3.582-8,8v32c0,4.418,3.582,8,8,8h24
			v24c0,4.418,3.582,8,8,8h32c4.418,0,8-3.582,8-8v-24h24c4.418,0,8-3.582,8-8v-32C480,367.582,476.418,364,472,364z M464,396h-24
			c-4.418,0-8,3.582-8,8v24h-16v-24c0-4.418-3.582-8-8-8h-24v-16h24c4.418,0,8-3.582,8-8v-24h16v24c0,4.418,3.582,8,8,8h24V396z"/>
	</g>
</g>
<g>
</g>
<g>
</g>
<g>
</g>
<g>
</g>
<g>
</g>
<g>
</g>
<g>
</g>
<g>
</g>
<g>
</g>
<g>
</g>
<g>
</g>
<g>
</g>
<g>
</g>
<g>
</g>
<g>
</g>
</svg>
