<?xml version="1.0" encoding="iso-8859-1"?>
<!-- Generator: Adobe Illustrator 16.0.0, SVG Export Plug-In . SVG Version: 6.00 Build 0)  -->
<!DOCTYPE svg PUBLIC "-//W3C//DTD SVG 1.1//EN" "http://www.w3.org/Graphics/SVG/1.1/DTD/svg11.dtd">
<svg version="1.1" id="Capa_1" xmlns="http://www.w3.org/2000/svg" xmlns:xlink="http://www.w3.org/1999/xlink" x="0px" y="0px"
	 width="47.001px" height="47.001px" viewBox="0 0 47.001 47.001" style="enable-background:new 0 0 47.001 47.001;"
	 xml:space="preserve">
<g>
	<g id="Layer_1_78_">
		<g>
			<path d="M44.845,42.718H2.136C0.956,42.718,0,43.674,0,44.855c0,1.179,0.956,2.135,2.136,2.135h42.708
				c1.18,0,2.136-0.956,2.136-2.135C46.979,43.674,46.023,42.718,44.845,42.718z"/>
			<path d="M4.805,37.165c-1.18,0-2.136,0.956-2.136,2.136s0.956,2.137,2.136,2.137h37.37c1.18,0,2.136-0.957,2.136-2.137
				s-0.956-2.136-2.136-2.136h-0.533V17.945h0.533c0.591,0,1.067-0.478,1.067-1.067s-0.478-1.067-1.067-1.067H4.805
				c-0.59,0-1.067,0.478-1.067,1.067s0.478,1.067,1.067,1.067h0.534v19.219H4.805z M37.37,17.945v19.219h-6.406V17.945H37.37z
				 M26.692,17.945v19.219h-6.406V17.945H26.692z M9.609,17.945h6.406v19.219H9.609V17.945z"/>
			<path d="M2.136,13.891h42.708c0.007,0,0.015,0,0.021,0c1.181,0,2.136-0.956,2.136-2.136c0-0.938-0.604-1.733-1.443-2.021
				l-21.19-9.535c-0.557-0.25-1.194-0.25-1.752,0L1.26,9.808c-0.919,0.414-1.424,1.412-1.212,2.396
				C0.259,13.188,1.129,13.891,2.136,13.891z"/>
		</g>
	</g>
</g>
<g>
</g>
<g>
</g>
<g>
</g>
<g>
</g>
<g>
</g>
<g>
</g>
<g>
</g>
<g>
</g>
<g>
</g>
<g>
</g>
<g>
</g>
<g>
</g>
<g>
</g>
<g>
</g>
<g>
</g>
</svg>
