<?xml version="1.0" encoding="iso-8859-1"?>
<!-- Generator: Adobe Illustrator 19.0.0, SVG Export Plug-In . SVG Version: 6.00 Build 0)  -->
<svg version="1.1" id="Capa_1" xmlns="http://www.w3.org/2000/svg" xmlns:xlink="http://www.w3.org/1999/xlink" x="0px" y="0px"
	 viewBox="0 0 478.36 478.36" style="enable-background:new 0 0 478.36 478.36;" xml:space="preserve">
<g>
	<g>
		<path d="M422.36,199.239c-5.838-0.005-11.642,0.888-17.208,2.648c0.528-4.195,0.795-8.42,0.8-12.648
			c-1.039-61.847-52.019-111.142-113.866-110.103c-45.131,0.758-85.397,28.534-102.134,70.455
			c-32.368-20.07-74.878-10.101-94.948,22.267c-6.534,10.537-10.106,22.641-10.34,35.037c-8.714-5.031-18.602-7.673-28.664-7.656
			c-30.928,0-56,25.072-56,56c0,30.928,25.072,56,56,56h47.16c4.418,0,8-3.582,8-8s-3.582-8-8-8H56
			c-22.089-0.359-39.704-18.556-39.345-40.645c0.359-22.089,18.556-39.704,40.645-39.345c13.446,0.219,25.882,7.179,33.1,18.525
			c2.42,3.697,7.378,4.732,11.075,2.313c3.195-2.091,4.467-6.148,3.037-9.689c-2.519-6.076-3.834-12.583-3.872-19.16
			c0.321-28.992,24.048-52.253,53.04-52c12.918,0.051,25.38,4.78,35.08,13.312c3.33,2.904,8.384,2.558,11.287-0.772
			c0.787-0.902,1.361-1.97,1.681-3.124c14.638-50.936,67.796-80.361,118.731-65.723c40.442,11.622,68.595,48.236,69.437,90.307
			c-0.034,8.386-1.205,16.729-3.48,24.8c-1.183,4.257,1.308,8.667,5.565,9.85c2.303,0.64,4.772,0.217,6.731-1.154
			c6.92-4.88,15.181-7.498,23.648-7.496c22.091,0,40,17.909,40,40c0,22.091-17.909,40-40,40h-55.2c-4.418,0-8,3.582-8,8s3.582,8,8,8
			h55.2c30.928,0,56-25.072,56-56C478.36,224.311,453.288,199.239,422.36,199.239z"/>
	</g>
</g>
<g>
	<g>
		<path d="M255.16,295.239h-32c-4.418,0-8,3.582-8,8s3.582,8,8,8h32c4.418,0,8-3.582,8-8S259.578,295.239,255.16,295.239z"/>
	</g>
</g>
<g>
	<g>
		<path d="M364.814,337.582c-1.5-1.499-3.534-2.342-5.654-2.342h-16v-120c0-4.418-3.582-8-8-8h-48c-4.418,0-8,3.582-8,8v120h-16
			c-4.418,0.001-7.999,3.583-7.998,8.002c0,2.121,0.843,4.154,2.342,5.654l48,48c3.124,3.123,8.188,3.123,11.312,0l48-48
			C367.94,345.771,367.939,340.705,364.814,337.582z M311.16,379.927l-28.688-28.688h4.688c4.418,0,8-3.582,8-8v-120h32v120
			c0,4.418,3.582,8,8,8h4.688L311.16,379.927z"/>
	</g>
</g>
<g>
	<g>
		<path d="M220.816,257.583l-48-48c-3.124-3.123-8.188-3.123-11.312,0l-48,48c-3.124,3.125-3.123,8.19,0.002,11.314
			c1.5,1.499,3.534,2.342,5.654,2.342h16v120c0,4.418,3.582,8,8,8h48c4.418,0,8-3.582,8-8v-120h16
			c4.418-0.001,7.999-3.583,7.998-8.002C223.158,261.117,222.315,259.083,220.816,257.583z M191.16,255.239c-4.418,0-8,3.582-8,8
			v120h-32v-120c0-4.418-3.582-8-8-8h-4.688l28.688-28.688l28.688,28.688H191.16z"/>
	</g>
</g>
<g>
</g>
<g>
</g>
<g>
</g>
<g>
</g>
<g>
</g>
<g>
</g>
<g>
</g>
<g>
</g>
<g>
</g>
<g>
</g>
<g>
</g>
<g>
</g>
<g>
</g>
<g>
</g>
<g>
</g>
</svg>
