<?xml version="1.0" encoding="iso-8859-1"?>
<!-- Generator: Adobe Illustrator 19.0.0, SVG Export Plug-In . SVG Version: 6.00 Build 0)  -->
<svg version="1.1" id="Layer_1" xmlns="http://www.w3.org/2000/svg" xmlns:xlink="http://www.w3.org/1999/xlink" x="0px" y="0px"
	 viewBox="0 0 512 512" style="enable-background:new 0 0 512 512;" xml:space="preserve">
<g>
	<g>
		<path d="M265.873,100.838c-85.34,0.001-154.769,69.606-154.769,155.162s69.428,155.162,154.767,155.162
			c1.023,0,2.044-0.021,3.063-0.057c61.562-1.202,116.272-38.472,139.948-95.684c1.655-3.999-0.245-8.583-4.243-10.238
			c-4.001-1.654-8.583,0.246-10.238,4.245c-1.98,4.784-4.206,9.408-6.651,13.871c-5.601-2.544-11.327-4.896-17.155-7.07
			c5.053-16.47,8.011-34.145,8.669-52.392h25.478c-0.296,5.354-0.888,10.684-1.783,15.919c-0.729,4.266,2.137,8.316,6.403,9.046
			c4.276,0.729,8.316-2.137,9.046-6.403c1.481-8.657,2.232-17.539,2.232-26.399C420.64,170.443,351.212,100.838,265.873,100.838z
			 M350.511,186.055c-9.911,3.05-20.094,5.554-30.485,7.498c-4.385-27.559-11.739-52.268-21.881-69.237
			C320.311,135.386,338.86,157.519,350.511,186.055z M359.445,263.836h4.129c-0.653,16.724-3.382,32.668-7.826,47.321
			c-10.915-3.387-22.145-6.134-33.598-8.246c1.476-12.783,2.347-25.954,2.594-39.074h4.398c4.329,0,7.837-3.509,7.837-7.837
			c0-4.328-3.508-7.837-7.837-7.837h-4.398c-0.248-13.12-1.118-26.291-2.593-39.074c11.453-2.113,22.682-4.86,33.598-8.246
			c4.443,14.653,7.172,30.597,7.825,47.319h-4.129c-4.329,0-7.837,3.509-7.837,7.837
			C351.608,260.327,355.116,263.836,359.445,263.836z M273.71,263.837h35.364c-0.232,12.607-1.027,24.889-2.339,36.631
			c-10.869-1.434-21.899-2.303-33.025-2.579V263.837z M273.709,119.37c7.401,5.252,14.834,17.535,20.903,35.025
			c4.239,12.217,7.607,26.3,10.035,41.608c-10.179,1.341-20.511,2.165-30.938,2.436V119.37z M273.708,214.112h0.001
			c11.126-0.276,22.156-1.145,33.025-2.579c1.311,11.74,2.108,24.022,2.339,36.63h-35.365V214.112z M222.674,248.163
			c0.234-12.505,1.026-24.815,2.349-36.628c10.865,1.432,21.89,2.301,33.012,2.577v34.051H222.674z M258.035,263.837v34.052
			c-11.126,0.276-22.157,1.145-33.026,2.579c-1.31-11.74-2.108-24.023-2.339-36.631H258.035z M233.584,124.324
			c-3.564,5.956-7.059,13.317-10.369,22.419c-1.479,4.068,0.621,8.564,4.687,10.042c4.073,1.481,8.565-0.621,10.042-4.688
			c5.893-16.213,13.025-27.665,20.089-32.703v79.045c-10.423-0.272-20.749-1.095-30.923-2.435c0.739-4.667,1.562-9.227,2.475-13.654
			c0.876-4.239-1.852-8.384-6.091-9.259c-4.229-0.872-8.384,1.852-9.258,6.091c-0.961,4.656-1.827,9.451-2.604,14.355
			c-10.361-1.941-20.518-4.442-30.402-7.484C192.881,157.527,211.422,135.396,233.584,124.324z M206.996,263.837
			c0.249,13.12,1.12,26.292,2.596,39.074c-11.453,2.113-22.682,4.86-33.596,8.246c-4.444-14.653-7.173-30.598-7.826-47.32H206.996z
			 M168.17,248.163c0.653-16.723,3.382-32.667,7.826-47.319c10.895,3.379,22.102,6.123,33.534,8.235
			c-1.436,12.608-2.29,25.75-2.532,39.084H168.17z M192.286,137.684c-2.591,3.022-5.104,6.208-7.519,9.573
			c-7.311,10.19-13.469,21.541-18.391,33.742c-4.716-1.764-9.352-3.66-13.91-5.682C163.122,160.299,176.672,147.486,192.286,137.684
			z M144.056,188.731c5.582,2.533,11.287,4.874,17.092,7.041c-5.053,16.469-8.01,34.144-8.667,52.391H127
			C128.192,226.71,134.24,206.538,144.056,188.731z M127.001,263.837h25.481c0.657,18.247,3.614,35.923,8.667,52.392
			c-5.807,2.166-11.512,4.508-17.092,7.041C134.24,305.462,128.192,285.289,127.001,263.837z M152.465,336.683
			c4.557-2.021,9.194-3.917,13.91-5.682c4.924,12.201,11.081,23.552,18.391,33.742c2.416,3.367,4.928,6.553,7.519,9.574
			C176.672,364.516,163.122,351.702,152.465,336.683z M181.233,325.945c9.91-3.049,20.093-5.553,30.483-7.497
			c4.385,27.559,11.739,52.268,21.882,69.236C211.431,376.615,192.884,354.48,181.233,325.945z M273.709,392.63v-29.005
			c0-4.328-3.509-7.837-7.837-7.837c-4.329,0-7.837,3.509-7.837,7.837v29.006c-7.402-5.252-14.835-17.535-20.904-35.025
			c-4.239-12.217-7.606-26.3-10.035-41.608c10.179-1.341,20.511-2.165,30.938-2.437v18.716c0,4.328,3.508,7.837,7.837,7.837
			c4.329,0,7.838-3.509,7.838-7.837v-18.716c10.427,0.272,20.759,1.096,30.938,2.437c-2.429,15.308-5.797,29.391-10.035,41.608
			C288.543,375.094,281.11,387.378,273.709,392.63z M298.144,387.685c10.143-16.968,17.497-41.678,21.882-69.237
			c10.389,1.945,20.573,4.448,30.485,7.498C338.859,354.482,320.311,376.616,298.144,387.685z M379.379,336.728
			c-10.827,15.349-24.534,28.189-40.201,37.916c2.693-3.117,5.297-6.414,7.799-9.9c7.31-10.19,13.469-21.539,18.392-33.741
			C370.118,332.78,374.79,334.69,379.379,336.728z M365.369,180.999c-4.924-12.201-11.081-23.552-18.392-33.742
			c-2.415-3.366-4.927-6.552-7.518-9.572c15.613,9.802,29.162,22.614,39.819,37.633
			C374.722,177.339,370.084,179.235,365.369,180.999z M379.263,248.163c-0.658-18.246-3.616-35.923-8.668-52.391
			c5.805-2.166,11.512-4.508,17.091-7.041c9.818,17.807,15.865,37.979,17.056,59.432H379.263z"/>
	</g>
</g>
<g>
	<g>
		<path d="M483.905,256.133l-19.95-20.002c-1.47-1.474-3.467-2.303-5.549-2.303c-2.081,0-4.078,0.829-5.549,2.303l-19.949,20.002
			c-3.056,3.065-3.05,8.027,0.016,11.083c3.065,3.056,8.027,3.049,11.082-0.015l6.93-6.949
			c-2.262,100.403-84.407,181.384-185.064,181.384c-102.075,0-185.117-83.276-185.117-185.635S163.797,70.364,265.872,70.364
			c4.328,0,7.837-3.509,7.837-7.837c0-4.328-3.509-7.837-7.837-7.837C155.156,54.691,65.08,144.998,65.08,256
			s90.074,201.309,200.791,201.309c109.057,0,198.083-87.62,200.728-196.331l6.207,6.222c1.532,1.535,3.54,2.303,5.549,2.303
			c2.002,0,4.004-0.762,5.534-2.288C486.955,264.158,486.96,259.196,483.905,256.133z"/>
	</g>
</g>
<g>
	<g>
		<path d="M427.108,135.758c-2.564-3.417-5.276-6.797-8.057-10.048c-2.813-3.287-7.76-3.675-11.049-0.859
			c-3.289,2.814-3.674,7.76-0.859,11.05c2.565,2.998,5.065,6.115,7.428,9.265c1.54,2.051,3.893,3.133,6.275,3.133
			c1.636,0,3.287-0.511,4.698-1.569C429.006,144.132,429.706,139.219,427.108,135.758z"/>
	</g>
</g>
<g>
	<g>
		<path d="M449.92,174.534c-1.738-3.903-3.629-7.801-5.618-11.59c-2.014-3.832-6.751-5.308-10.582-3.294
			c-3.832,2.012-5.306,6.751-3.294,10.583c1.834,3.491,3.576,7.084,5.177,10.679c1.3,2.917,4.162,4.65,7.162,4.65
			c1.067,0,2.149-0.218,3.186-0.68C449.905,183.12,451.681,178.487,449.92,174.534z"/>
	</g>
</g>
<g>
	<g>
		<path d="M463.475,217.45c-0.821-4.207-1.788-8.432-2.875-12.559c-1.102-4.186-5.391-6.687-9.573-5.584
			c-4.186,1.101-6.686,5.388-5.584,9.573c1.001,3.801,1.892,7.695,2.648,11.571c0.73,3.742,4.009,6.337,7.684,6.337
			c0.497,0,1.002-0.048,1.509-0.146C461.531,225.814,464.303,221.699,463.475,217.45z"/>
	</g>
</g>
<g>
	<g>
		<path d="M358.923,77.902c-3.796-1.977-7.703-3.855-11.614-5.583c-3.955-1.748-8.586,0.043-10.335,4.002
			c-1.749,3.959,0.043,8.586,4.001,10.335c3.606,1.592,7.209,3.324,10.708,5.146c1.157,0.603,2.394,0.888,3.614,0.888
			c2.828,0,5.56-1.536,6.957-4.218C364.253,84.633,362.761,79.901,358.923,77.902z"/>
	</g>
</g>
<g>
	<g>
		<path d="M316.924,61.724c-4.139-1.079-8.365-2.036-12.562-2.847c-4.256-0.821-8.36,1.959-9.182,6.208
			c-0.82,4.25,1.959,8.359,6.208,9.18c3.87,0.747,7.767,1.63,11.583,2.625c0.662,0.173,1.328,0.256,1.981,0.256
			c3.481,0,6.659-2.336,7.579-5.862C323.622,67.096,321.113,62.815,316.924,61.724z"/>
	</g>
</g>
<g>
	<g>
		<path d="M396.261,103.013c-3.256-2.765-6.648-5.462-10.081-8.019c-3.47-2.586-8.381-1.866-10.965,1.606
			c-2.586,3.472-1.867,8.381,1.605,10.966c3.166,2.357,6.293,4.845,9.295,7.395c1.473,1.251,3.276,1.863,5.069,1.863
			c2.221,0,4.427-0.938,5.978-2.765C399.964,110.761,399.559,105.815,396.261,103.013z"/>
	</g>
</g>
<g>
	<g>
		<path d="M439.918,81.517C393.431,34.904,331.619,9.233,265.872,9.233c-0.004,0,0.002,0-0.002,0
			c-65.743,0-127.558,25.673-174.043,72.284c-42.783,42.897-67.856,98.809-71.581,158.828l-6.86-6.876
			c-3.058-3.065-8.02-3.071-11.083-0.015c-3.065,3.056-3.071,8.019-0.015,11.082l19.95,20.002c1.47,1.474,3.467,2.303,5.549,2.303
			s4.078-0.829,5.548-2.303l19.949-20.002c3.056-3.065,3.05-8.027-0.016-11.083c-3.066-3.057-8.028-3.05-11.082,0.016l-6.2,6.216
			c3.841-55.586,27.261-107.319,66.935-147.1c43.526-43.643,101.397-67.679,162.949-67.678c61.553,0,119.423,24.036,162.949,67.679
			c43.532,43.649,67.507,101.684,67.507,163.415s-23.974,119.767-67.506,163.416c-42.815,42.93-99.51,66.869-159.935,67.641
			c-4.715,0.002-11.126-0.706-15.138-0.913c-4.347-0.229-8.007,3.101-8.23,7.423c-0.223,4.322,3.14,7.61,7.424,8.23
			c5.31,0.767,11.796,0.971,12.931,0.971c65.748,0,127.559-25.671,174.047-72.284C486.401,383.876,512,321.91,512,256
			S486.401,128.124,439.918,81.517z"/>
	</g>
</g>
<g>
	<g>
		<path d="M43.978,320.602c-1.127-3.861-2.167-7.802-3.09-11.717c-0.992-4.213-5.212-6.823-9.425-5.832
			c-4.212,0.993-6.823,5.212-5.831,9.425c0.984,4.184,2.096,8.397,3.301,12.521c1,3.42,4.126,5.64,7.519,5.64
			c0.727,0,1.467-0.102,2.202-0.317C42.809,329.108,45.193,324.756,43.978,320.602z"/>
	</g>
</g>
<g>
	<g>
		<path d="M82.146,395.808c-2.451-3.197-4.845-6.497-7.118-9.808c-2.448-3.569-7.328-4.475-10.896-2.026
			c-3.568,2.448-4.475,7.326-2.026,10.895c2.426,3.535,4.983,7.058,7.599,10.472c1.543,2.014,3.871,3.071,6.227,3.071
			c1.662,0,3.338-0.528,4.762-1.616C84.128,404.162,84.779,399.244,82.146,395.808z"/>
	</g>
</g>
<g>
	<g>
		<path d="M59.575,359.969c-1.814-3.574-3.562-7.253-5.195-10.935c-1.755-3.957-6.384-5.743-10.34-3.988
			c-3.956,1.754-5.742,6.383-3.988,10.34c1.744,3.933,3.61,7.862,5.548,11.679c1.382,2.722,4.137,4.29,6.994,4.29
			c1.193,0,2.405-0.274,3.542-0.851C59.994,368.546,61.534,363.828,59.575,359.969z"/>
	</g>
</g>
<g>
	<g>
		<path d="M223.659,482.622c-3.959-0.729-7.95-1.573-11.859-2.507c-4.216-1.007-8.439,1.591-9.445,5.8
			c-1.006,4.21,1.591,8.438,5.8,9.444c4.175,0.998,8.438,1.899,12.667,2.677c0.48,0.088,0.956,0.131,1.427,0.131
			c3.707,0,7.003-2.643,7.698-6.42C230.732,487.49,227.916,483.404,223.659,482.622z"/>
	</g>
</g>
<g>
	<g>
		<path d="M110.892,426.951c-2.988-2.698-5.945-5.509-8.787-8.355c-3.057-3.064-8.02-3.068-11.082-0.01
			c-3.064,3.057-3.069,8.02-0.011,11.083c3.033,3.04,6.191,6.041,9.383,8.92c1.499,1.352,3.375,2.018,5.246,2.018
			c2.141,0,4.274-0.872,5.821-2.588C114.361,434.805,114.106,429.85,110.892,426.951z"/>
	</g>
</g>
<g>
	<g>
		<path d="M144.835,452.357c-3.427-2.107-6.848-4.334-10.168-6.62c-3.563-2.456-8.445-1.557-10.899,2.007
			c-2.457,3.564-1.557,8.444,2.007,10.899c3.543,2.441,7.196,4.819,10.857,7.068c1.279,0.786,2.695,1.161,4.095,1.161
			c2.633,0,5.205-1.327,6.684-3.736C149.676,459.449,148.523,454.622,144.835,452.357z"/>
	</g>
</g>
<g>
	<g>
		<path d="M182.855,471.138c-3.753-1.44-7.527-3.005-11.217-4.65c-3.947-1.76-8.586,0.015-10.348,3.967
			c-1.762,3.953,0.015,8.586,3.969,10.349c3.939,1.755,7.968,3.426,11.978,4.965c0.924,0.355,1.874,0.522,2.808,0.522
			c3.15,0,6.121-1.913,7.317-5.029C188.913,477.223,186.896,472.689,182.855,471.138z"/>
	</g>
</g>
<g>
</g>
<g>
</g>
<g>
</g>
<g>
</g>
<g>
</g>
<g>
</g>
<g>
</g>
<g>
</g>
<g>
</g>
<g>
</g>
<g>
</g>
<g>
</g>
<g>
</g>
<g>
</g>
<g>
</g>
</svg>
