<?xml version="1.0" encoding="iso-8859-1"?>
<!-- Generator: Adobe Illustrator 18.0.0, SVG Export Plug-In . SVG Version: 6.00 Build 0)  -->
<!DOCTYPE svg PUBLIC "-//W3C//DTD SVG 1.1//EN" "http://www.w3.org/Graphics/SVG/1.1/DTD/svg11.dtd">
<svg version="1.1" id="Capa_1" xmlns="http://www.w3.org/2000/svg" xmlns:xlink="http://www.w3.org/1999/xlink" x="0px" y="0px"
	 viewBox="0 0 468.851 468.851" style="enable-background:new 0 0 468.851 468.851;" xml:space="preserve">
<path d="M465.709,80.878c-2.76-3.776-7.013-6.191-11.67-6.624l-35.71-3.322l-4.026-10.736c-1.692-4.515-5.484-7.952-10.143-9.193
	l-46.517-12.405c-3.11-0.829-6.443-0.617-9.431,0.598c-0.124,0.048-0.247,0.1-0.367,0.154l-46.697,20.016
	c-2.395,1.027-4.085,3.223-4.465,5.8c-0.38,2.578,0.605,5.168,2.603,6.842l10.949,9.175l-9.702,23.431
	c-12.648,30.546-42.172,50.969-75.215,52.032L105.454,160.5l-11.735-10.058c-8.886-7.616-12.117-20.105-8.042-31.077l3.287-8.853
	c3.202-8.619-0.29-18.146-8.305-22.654c-4.511-2.539-9.922-3.077-14.846-1.476c-4.924,1.601-8.984,5.218-11.142,9.924l-1.981,4.32
	c-11.902,25.97-9.532,55.944,5.961,79.599c-9.361,7.703-17.175,18.194-19.453,32.317c-4.359,27.027-6.154,78.387-6.836,106.596
	c-0.134,5.533-3.485,10.578-8.539,12.851c-9.011,4.055-15.36,12.296-16.986,22.043l-6.505,39.031
	c-1.177,7.066,0.803,14.254,5.434,19.721c4.631,5.466,11.396,8.601,18.56,8.601h23.118c4,0,7.825-1.709,10.492-4.69
	c2.668-2.981,3.944-6.97,3.502-10.944c-1.152-10.371-7.827-19.222-17.299-23.244c5.688-10.049,14.55-17.814,25.428-22.166
	c17.428-6.971,31.465-20.145,39.527-37.096l19.828-41.689c6.368-2.968,28.055-11.095,59.587-2.084
	c12.765,3.647,24.869,7.721,36.575,11.661c21.85,7.354,39.919,13.422,53.704,13.796c2.053,35.041,3.467,75.305,0.482,87.241
	c-2.184,8.734-1.218,16.575,2.871,23.304c6.891,11.339,19.932,14.724,21.396,15.072c0.569,0.136,1.152,0.204,1.737,0.204h17.295
	c4.403,0,8.436-2.026,11.064-5.559c2.628-3.533,3.41-7.978,2.145-12.195c-2.987-9.958-9.914-18.009-19.056-22.454l24.507-86.307
	c12.52-13.036,21.135-29.213,24.963-46.913l23.418-108.267c9.726-2.401,23.39-4.99,39.952-7.557
	c17.637-2.734,32.062-16.3,35.894-33.758l3.015-13.735C469.475,89.44,468.467,84.654,465.709,80.878z M342.69,57.881l-1.605,25.725
	c-0.059,0.938-0.642,1.379-1.12,1.585c-0.479,0.207-1.203,0.327-1.922-0.275l-19.771-16.568L342.69,57.881z M66.327,106.878
	l1.981-4.32c0.567-1.24,1.586-1.729,2.143-1.909s1.669-0.383,2.855,0.284c1.541,0.867,2.213,2.699,1.597,4.358l-3.287,8.854
	c-6.254,16.835-1.294,36,12.342,47.688l3.317,2.843c-4.846,1.707-10.483,4.052-16.168,7.186
	C58.519,152.526,56.613,128.072,66.327,106.878z M453.821,90.791l-3.015,13.735c-2.516,11.457-11.976,20.358-23.541,22.151
	c-20.047,3.108-35.526,6.156-46.01,9.058c-6.107,1.692-12.852,0.859-18.506-2.281c-9.917-5.509-16.102-9.213-16.162-9.25
	c-3.554-2.132-8.16-0.977-10.29,2.574c-2.131,3.552-0.979,8.158,2.573,10.289c0.258,0.155,6.438,3.858,16.596,9.5
	c5.707,3.171,11.947,4.85,18.252,5.021l-22.185,102.566c-3.358,15.523-11.069,29.665-22.3,40.895
	c-0.903,0.904-1.562,2.024-1.911,3.254l-26.921,94.808c-1.13,3.98,1.177,8.125,5.155,9.261l1.015,0.29
	c6.624,1.893,11.871,6.727,14.31,13.089h-14.55c-1.511-0.483-5.11-1.823-8.187-4.422c-4.619-3.904-5.992-8.835-4.32-15.52
	c5.98-23.923-2.345-126.588-3.314-138.216c-0.35-4.206-4.106-7.31-8.33-6.828c-4.076,0.465-6.932,4.289-6.592,8.378
	c0.636,7.658,1.456,18.495,2.264,30.752c-11.582-0.729-29.354-6.708-47.982-12.977c-11.315-3.809-24.141-8.125-37.239-11.867
	c-23.159-6.617-42.044-5.116-54.833-2.155l5.57-11.71c1.764-3.709,0.443-8.301-3.211-10.175c-3.782-1.939-8.388-0.36-10.201,3.45
	l-34.407,72.344c-6.435,13.53-17.64,24.046-31.551,29.611c-16.383,6.553-29.232,19.093-36.184,35.311l-0.897,2.095
	c-0.512,1.196-0.785,2.498-0.664,3.793c0.291,3.128,2.412,5.627,5.241,6.51l5.511,1.722c4.856,1.518,8.444,5.592,9.375,10.54
	l-21.783,0c-2.159,0-4.306-0.632-6.003-1.967c-2.742-2.158-4.018-5.559-3.462-8.889l6.504-39.03
	c0.799-4.79,3.919-8.838,8.346-10.831c10.284-4.627,17.106-14.898,17.38-26.167c0.541-22.404,2.272-77.443,6.648-104.57
	c4.65-28.832,44.722-38.308,49.655-39.367l122.139-3.927c38.92-1.251,73.693-25.307,88.592-61.286l7.895-19.068l6.124,5.132
	c4.902,4.101,11.596,5.082,17.474,2.556c5.873-2.523,9.77-8.052,10.169-14.431l1.894-30.34l42.31,11.261l2.134,5.689l-7.2,0.48
	c-4.022,0.268-7.341,3.551-7.293,7.581c0.05,4.167,3.441,7.422,7.492,7.422c0.168,0,0.337-0.006,0.507-0.017l0,0
	c11.289-0.753,22.62-0.604,33.885,0.444l22.867,2.127c0.491,0.046,0.785,0.317,0.946,0.537
	C453.757,89.946,453.926,90.309,453.821,90.791z"/>
<g>
</g>
<g>
</g>
<g>
</g>
<g>
</g>
<g>
</g>
<g>
</g>
<g>
</g>
<g>
</g>
<g>
</g>
<g>
</g>
<g>
</g>
<g>
</g>
<g>
</g>
<g>
</g>
<g>
</g>
</svg>
